<?xml version="1.0" standalone="no"?>
<!DOCTYPE svg PUBLIC "-//W3C//DTD SVG 1.1//EN" "http://www.w3.org/Graphics/SVG/1.1/DTD/svg11.dtd" >
<svg>
<metadata>
Created by FontForge 20090914 at Mon Feb 17 14:08:12 2014
 By www-data
czcionki.com 2001 - freeware [for non-commercial use]
</metadata>
<defs>
<font id="MaszynaAEG" horiz-adv-x="1500" >
  <font-face 
    font-family="MaszynaAEG"
    font-weight="400"
    font-stretch="normal"
    units-per-em="2048"
    panose-1="2 11 6 0 5 3 2 2 2 4"
    ascent="1638"
    descent="-410"
    x-height="1275"
    cap-height="1874"
    bbox="-619.667 -591.221 1861.95 2163.76"
    underline-thickness="0"
    underline-position="0"
    unicode-range="U+0020-U+201E"
  />
<missing-glyph horiz-adv-x="1536" 
d="M256 0v1280h1024v-1280h-1024zM288 32h960v1216h-960v-1216z" />
    <glyph glyph-name=".notdef" unicode="&#x192;" horiz-adv-x="1536" 
d="M256 0v1280h1024v-1280h-1024zM288 32h960v1216h-960v-1216z" />
    <glyph glyph-name=".notdef" unicode="&#x2122;" horiz-adv-x="1536" 
d="M256 0v1280h1024v-1280h-1024zM288 32h960v1216h-960v-1216z" />
    <glyph glyph-name=".notdef" unicode="&#x2030;" horiz-adv-x="1536" 
d="M256 0v1280h1024v-1280h-1024zM288 32h960v1216h-960v-1216z" />
    <glyph glyph-name=".notdef" unicode="&#x2026;" horiz-adv-x="1536" 
d="M256 0v1280h1024v-1280h-1024zM288 32h960v1216h-960v-1216z" />
    <glyph glyph-name=".notdef" unicode="&#x2dc;" horiz-adv-x="1536" 
d="M256 0v1280h1024v-1280h-1024zM288 32h960v1216h-960v-1216z" />
    <glyph glyph-name=".notdef" unicode="&#x2c6;" horiz-adv-x="1536" 
d="M256 0v1280h1024v-1280h-1024zM288 32h960v1216h-960v-1216z" />
    <glyph glyph-name="space" unicode=" " 
 />
    <glyph glyph-name="space" unicode="&#xa0;" 
 />
    <glyph glyph-name="exclam" unicode="!" horiz-adv-x="515" 
d="M75 1727l12.999 -132v-53c0 -52.667 13.333 -96.667 40 -132l-27 -40v-39c26.667 -124 31.334 -234.333 14.001 -331l39 -13l-26 -14l13 -39c-8.66699 -70.667 -13 -123.667 -13 -159c35.333 -96.667 57.333 -180.667 66 -252c18 106.667 66.667 160 146 160
c8.66699 25.333 17.667 42.666 27 51.999c-9.33301 79.333 -5 150 13 212c-18 62 -22.333 119 -13 171l-40 14l26 26c26.667 97.333 35.667 190.333 27 279l39 -67c8.66699 18 13 49 13 93l-52 92l26 13v266c-44 43.333 -92.667 65 -146 65
c-79.333 -43.333 -141 -100.666 -185 -171.999zM74.999 193c-26.667 -106 13.002 -154.668 119.002 -146.001l53 -66c53.333 44 110.666 75 171.999 93c26 70.667 65.667 128 119 172l-66 79c-35.333 150 -128 207.333 -278 172
c-140.667 -97.333 -180.334 -198.666 -119.001 -303.999z" />
    <glyph glyph-name="quotedbl" unicode="&#x22;" horiz-adv-x="176" 
d="M-164 1909c-47.333 0 -59.333 -17.6689 -36 -53.002c-17.333 -35.333 -11.333 -59 18 -71c-18 -117.333 11.333 -176 88 -176c-82 -117.333 -55.333 -155.666 80 -114.999l8 -17c47.333 58.667 50.333 111.334 9 158.001l9 36l35 9l9 79l18 53
c23.333 47.333 35 97.333 35 150c-100 106 -179.333 120.667 -238 44l-44 62c-41.333 -64.667 -38.333 -117.667 9 -159zM-573 1893c-46.667 0 -58.333 -17.668 -35 -53.001c-17.333 -35.333 -11.333 -59 18 -71c-18 -117.333 11.333 -176 88 -176
c-82.667 -118 -56.334 -156.333 78.999 -115l9 -17c47.333 58.667 50.333 111.334 9 158.001l9 36l35 8l9 80l18 53c23.333 46.667 35 96.667 35 150c-100 106 -179.333 120.667 -238 44l-44 62c-41.333 -64.667 -38.666 -117.667 8.00098 -159z" />
    <glyph glyph-name="numbersign" unicode="#" horiz-adv-x="1109" 
d="M590 1473l-86 -17l-17 -68c-79.333 -113.333 -136 -215.333 -170 -306l-68 -103l-17 -68l-85 -137l-35 -101l-68 -103c-22.667 -90.667 -51 -170 -85 -238l51 -102l34 34c68.667 124.667 137 221 205 289v69c102 135.333 164.333 277 187 425
c113.333 136.667 170 278.667 170 426h-16zM1143 1445l-86.001 -16.001l-17 -68c-79.333 -114 -136.333 -216.333 -171 -307l-68 -103l-17 -67l-85 -137l-34 -102l-69 -103c-22 -90 -50.333 -169.333 -85 -238l52 -102l33 35c68.667 124 137 220.333 205 289v68
c102.667 136 165.334 278 188.001 426c112.667 136.667 169 278.334 169 425.001h-15zM217.999 979.999c-20 27.333 -60 45.333 -120 54c-240 -154 -200 -194.667 120 -122l60 -13l180 -28c240 9.33301 430 5 570 -13c20 36 69.667 54 149 54
c-20 100 -229.667 145.333 -629 136zM169.999 707.999c-19.333 27.333 -59 45.667 -119 55c-240 -154.667 -200.333 -195.667 119 -123l61 -13l180 -28c240 9.33301 430 5 570 -13c20 36 69.667 54 149 54c-20 100 -230 145.333 -630 136z" />
    <glyph glyph-name="dollar" unicode="$" horiz-adv-x="1490" 
d="M858 107c124.667 -23.333 222.332 15.665 292.999 116.998c140.667 62.667 195.334 203.334 164.001 422.001l-24 12c-23.333 93.333 -70 171.333 -140 234l-59 -35l-35 11l-71 36l-58 59c-140.667 -24 -265.667 -12.667 -375 34l-12 -46
c-15.333 46.667 -23 89.334 -23 128.001l-36 -12c24 78.667 12.667 122 -34 130l46 11c31.333 328.667 195.333 422.334 492 281.001l83 12l46 -70c-7.33301 148.667 -69.666 254.334 -186.999 317.001l-36 -47l-81 35l-35 -24c-70 94 -125 106 -165 36
c-70 22.667 -116.667 3 -140 -59c-62 -8 -101 -39.333 -117 -94c-39.333 8 -70.666 0 -93.999 -24v-34c-132.667 -70.667 -167.667 -164.334 -105 -281.001c0 -47.333 15.333 -78.666 46 -93.999c-15.333 -70.667 12.334 -117.667 83.001 -141
c-8 -38.667 3.33301 -70 34 -94l70 -12c55.333 -31.333 102.666 -39 141.999 -23c54 -46.667 108.333 -58.334 163 -35.001l48 -71l70 12l23 -12l70 -22c78.667 -16 141.334 -36 188.001 -60c31.333 -86 70.333 -152.333 117 -199l12 -70c-94 -16 -133 -78.333 -117 -187
c-109.333 30.667 -211 14.667 -305 -48c-78.667 78.667 -133.334 153 -164.001 223c-164.667 -23.333 -250.334 39.334 -257.001 188.001h-60c-30.667 -54.667 -30.667 -105.334 0 -152.001c-70 -55.333 -73.667 -102.333 -11 -141
c-39.333 -62.667 -43.333 -121.334 -12 -176.001c62 -15.333 93 12 93 82l48 -82c78 46.667 140.333 31 187 -47c54.667 8 97.667 -3.66699 129 -35c31.333 23.333 66.666 39 105.999 47zM988.998 1491c-15.333 -30.667 -38.667 -46 -70 -46l-12 94zM694.997 338.998
c-28 -34 -46.667 -102 -56 -204c157.333 -406.667 199 -338.667 125 204l14 102l28 305c-10 408 -5.33301 730.333 14 967c-37.333 34 -56 119 -56 255c-102 -34 -148 -390.333 -138 -1069z" />
    <glyph glyph-name="percent" unicode="%" horiz-adv-x="1554" 
d="M1767 -61c-9.33301 18.667 -22.667 41.334 -40 68.001h26c0 -26.667 4.66699 -49.334 14 -68.001zM299.999 -7c0 72 2.66504 121.332 7.99805 147.999c10 44.667 30 67 60 67v94h39c0 62 3.33301 93 10 93c4.66699 0 10.334 -4 17.001 -12c18 18 31.667 27 41 27
c0 18.667 9 28 27 28c0 8.66699 9.33301 22 28 40c8.66699 36 22 81 40 135h40c0 26.667 9 66.667 27 120c36 36 62.667 58.333 80 67c-8.66699 18.667 -13 36.667 -13 54c10 10.667 18 26.667 24 48c4.66699 17.333 9.66699 26 15 26c4.66699 0 14 -6.66699 28 -20
c0 36 9.33301 71.667 28 107c35.333 0 62 -4.33301 80 -13c0 -26.667 4.33301 -49 13 -67c-18 -18 -27 -36 -27 -54h-27c-17.333 -54 -26 -98.667 -26 -134l-41 -121c-17.333 0 -35 -9 -53 -27s-31 -32 -39 -42c-13.333 -16.667 -23 -34 -29 -52v-27
c-33.333 0 -54.666 -2 -63.999 -6c-14 -5.33301 -21 -18 -21 -38s6 -50.333 18 -91c-18 0 -35.667 -9 -53 -27c-8.66699 -18 -13 -49.667 -13 -95c-28 -26 -60 -66 -96 -120c-9.33301 -9.33301 -14 -31.666 -14 -66.999c-8.66699 0 -21.667 -9 -39 -27v40h-54v-54h-14z
M1229 207.999v13.002l-54 28c-9.33301 0 -14 -4.66699 -14 -14l-27 54c-8.66699 0 -22 -9 -40 -27c-18 8.66699 -36 13 -54 13l-41 81c-16 0 -28.667 3 -38 9c-7.33301 3.33301 -14.333 9.66602 -21 18.999c-9.33301 13.333 -16.333 22 -21 26c0 36.667 4.5 59.5 13.5 68.5
s26.833 13.5 53.5 13.5h-67c-8.66699 17.333 -13 35.333 -13 54c8.66699 44.667 22 107 40 187c9.33301 18 22.666 36 39.999 54c4.66699 0 14 -4.33301 28 -13c0 26.667 0.166992 42.334 0.5 47.001s3.16602 7.66699 8.49902 9s11 5 17 11
c0 49.333 22.333 89.666 67 120.999c9.33301 8.66699 22.666 13 39.999 13c0 18 9.33301 36 28 54v-27c17.333 0 30.333 -4.33301 39 -13c16 16 25 24 27 24c11.333 0 25 -8 41 -24v-54c-29.333 -14.667 -52 -37.334 -68 -68.001c-8.66699 -8.66699 -13 -26.334 -13 -53.001
h13c-22 -22.667 -39.667 -54 -53 -94c-9.33301 0 -22.666 -9 -39.999 -27v27c-20.667 -51.333 -38.667 -123 -54 -215c0 -8.66699 9 -31 27 -67c26.667 0 49 -5 67 -15v-26c28 14 45.333 21 52 21c14 0 28 -7 42 -21v41h41v27c8.66699 8.66699 26.334 22 53.001 40
c6.66699 20 10.667 39.333 12 58c0.666992 8 3 12 7 12l15.5 -1.5c10.333 -1 21.166 -1.5 32.499 -1.5c-8.66699 18.667 -13 36.667 -13 54v94c0 80.667 4.33301 139 13 175c-8.66699 26.667 -13 66.667 -13 120c-8 8.66699 -17 13.334 -27 14.001
c45.333 0 81 -4.66699 107 -14c28 -17.333 69 -53 123 -107c-9.33301 -53.333 -14 -143 -14 -269c-18 -36 -27 -67 -27 -93c-18 -9.33301 -36 -23 -54 -41v-40c-18.667 -19.333 -31.667 -33.666 -39 -42.999c-13.333 -16.667 -22.666 -34.334 -27.999 -53.001l-41 41
c-32 -48.667 -54.333 -98 -67 -148c-9.33301 0 -22.666 -9 -39.999 -27c-18.667 18 -28 31.333 -28 40c-8.66699 -8.66699 -21.667 -31 -39 -67zM3.99707 774.001v161l14 -14c18 9.33301 45 14 81 14c17.333 -14 48.333 -36.667 93 -68v-53c-17.333 0 -44 -9 -80 -27
c-54 0 -90 -4.33301 -108 -13zM420.997 962.001c-9.33301 18 -22.667 40.333 -40 67c8.66699 18 26.334 40.667 53.001 68h109v39h40v54c36 18 63 27 81 27l40 41c4.66699 0 13.667 -4.66699 27 -14c-18 -18 -27 -36 -27 -54c-35.333 0 -53 -5.66699 -53 -17
c0 -3.33301 1 -9.33301 3 -18s3 -16.667 3 -24c0 -12 -2.33301 -23.333 -7 -34c-8.66699 0 -22 -9 -40 -27s-31.333 -36.333 -40 -55h-82c-18 -8.66699 -30.667 -15.667 -38 -21c-12.667 -9.33301 -22.334 -20 -29.001 -32zM218.996 1043
c-8.66699 8.66699 -13 17.333 -13 26c7.33301 7.33301 11 19.666 11 36.999v40c1.33301 20.667 11 31 29 31c0 -9.33301 9 -31.666 27 -66.999c-8.66699 -8.66699 -13 -26.667 -13 -54c-18 0 -31.667 -4.33301 -41 -13zM299.996 1043v13.001h-14
c-8 0 -12.333 4.33301 -13 13h41c-9.33301 -8.66699 -14 -17.334 -14 -26.001zM905.996 1043c0 64 5.99902 109.999 17.999 137.999l49 77c8.66699 8.66699 26.667 13 54 13c0 27.333 4.33301 45.333 13 54h40c-8.66699 -27.333 -13 -76.666 -13 -147.999
c-22 0 -34 -6.33301 -36 -19l-4 -48l-13 13c-36 -17.333 -58.667 -35.333 -68 -54c-9.33301 -3.33301 -22.666 -12 -39.999 -26zM1067 1338h-14v54l41 41l13 -14zM326.995 1446c-18 36 -27 63.333 -27 82c15.333 29.333 38 51.333 68 66c-10 -26.667 -15 -66.667 -15 -120
c-17.333 0 -26 -9.33301 -26 -28zM1134 1446v54l27 -26c0 17.333 4.66699 26 14 26v-54h-41zM757.995 1528c-8.66699 8.66699 -22.333 13 -41 13c-22.667 22 -34 49.667 -34 83c0 17.333 3.5 36.833 10.5 58.5l10.5 32.5c8.66699 -17.333 26.667 -44 54 -80
c0 26.667 8.66699 57.667 26 93l-13 15h54c0 -36 4.33301 -67.667 13 -95c-17.333 0 -26 -9 -26 -27v40c-17.333 -17.333 -27.333 -34.333 -30 -51c1.33301 11.333 2 -11.667 2 -69c-17.333 0 -26 -4.33301 -26 -13zM380.996 1541c-8.66699 17.333 -13 39.667 -13 67h66
c-18 -18 -27 -40.333 -27 -67h-26zM864.996 1675h-13v68c8.66699 8.66699 22 13 40 13l14 -13c0 8.66699 8.66699 13 26 13l14 -13c-18 -10 -45 -32.667 -81 -68zM1147 1743c-8.66699 8.66699 -22 13 -40 13v80c0 9.33301 9 14 27 14c6 -5.33301 13.667 -8 23 -8
c4 0 9.83301 0.333008 17.5 1s13.167 1 16.5 1c15.333 0 23 -11.667 23 -35l-29 -18c-6.66699 -4.66699 -10 -20.667 -10 -48h-28zM1040 1756v26c8.66699 9.33301 22 14 40 14c0 -4.66699 4.66699 -13.667 14 -27c-27.333 0 -45.333 -4.33301 -54 -13zM1336 1782l40 122
c0 8.66699 9 13 27 13c0 -36 4.33301 -67.333 13 -94c-17.333 0 -35.333 -9 -54 -27l-13 13c-8.66699 0 -13 -9 -13 -27z" />
    <glyph glyph-name="ampersand" unicode="&#x26;" horiz-adv-x="1820" 
d="M468 1651c91.333 18.667 155.335 59.999 192.002 123.999c64 -46 128 -41.333 192 14l28 -42v42l13 -83c46 -18 69 -45.333 69 -82c64 -9.33301 87 -55 69 -137c-18.667 -18.667 -41.667 -28 -69 -28c18 -100.667 -27.667 -123.667 -137 -69
c0 -100.667 -41.333 -137 -124 -109c-9.33301 -28 0 -51 28 -69c-82.667 -18 -137.667 9.33301 -165 82l-110 -96c-46 36.667 -91.667 55 -137 55c-9.33301 -91.333 18 -160 82 -206c-54.667 -36.667 -114 -50.334 -178 -41.001c-9.33301 -36.667 -5 -68.667 13 -96
l-123 -14c0 -18 9 -27 27 -27l41 -55c-36 -164.667 -26.667 -325 28 -481c-27.333 -18 -45.666 -36.333 -54.999 -55c-54.667 36.667 -91.334 27.667 -110.001 -27l14 -55c54.667 36.667 95.667 4.66699 123 -96c0 73.333 32.333 114.333 97 123l27 -109
c54.667 8.66699 105 4 151 -14c46 -100.667 105.667 -110 179 -28c45.333 -18 81.666 -36 108.999 -54l28 41c118.667 8.66699 219.334 45.334 302.001 110.001l41 -69c64 0 96 -36.667 96 -110c46 -9.33301 82.667 0 110 28c82.667 -64.667 128.334 -46.667 137.001 54
c18.667 -27.333 23.334 -50 14.001 -68c311.333 9.33301 398.333 160.333 261 453c-100.667 -9.33301 -151 -55 -151 -137c-18.667 54.667 -55.334 95.667 -110.001 123c-46 -18 -73.333 -50 -82 -96c-36.667 36.667 -73.334 46 -110.001 28
c0 27.333 -9.16699 52.333 -27.5 75s-41.166 34 -68.499 34c54.667 64 95.667 73.333 123 28c55.333 174 101.333 201.333 138 82l13 179c73.333 8.66699 123.666 -9.66602 150.999 -54.999c27.333 118.667 -27.334 201 -164.001 247c-46 -27.333 -64.333 -64 -55 -110
c-46 18 -73.667 50 -83 96c-45.333 -36.667 -86.333 -41.334 -123 -14.001c-36.667 -64 -59.667 -123.333 -69 -178c-18 36.667 -45.333 73.334 -82 110.001c-119.333 -46 -229.333 9 -330 165c27.333 36 41 68 41 96c46 -9.33301 82.667 -0.333008 110 27
c73.333 -46 110 -4.66699 110 124c119.333 0 169.666 77.667 150.999 233l-55 14l55 13c9.33301 220 -105 334.667 -343 344c-201.333 -36.667 -302 -114.667 -302 -234zM344.002 1706c9.33301 36.667 0.333008 59.667 -27 69zM385.002 1500
c-45.333 -182.667 -8.66699 -242 110 -178l14 151l-69 55zM248.001 1267c9.33301 82 -18 132.332 -82 150.999c-55.333 -119.333 -28 -169.666 82 -150.999zM715.001 799.998c18 -18 41.001 -26.999 69.001 -26.999c-18.667 -46 -21.167 -87.333 -7.5 -124
s20.5 -27.334 20.5 27.999l41 -97c-45.333 9.33301 -68 -4.33398 -68 -41.001c36.667 -109.333 64 -141.333 82 -96c27.333 -174 -87 -256.333 -343 -247v82c-54.667 0 -100.334 32.333 -137.001 97c18 91.333 13.333 178 -14 260l14 42
c45.333 54.667 72.666 109.334 81.999 164.001c64 -36.667 119 -32 165 14c-27.333 54.667 -32 105 -14 151c82.667 -46 119.334 -114.667 110.001 -206zM633.002 717.999c91.333 36.667 86.667 64 -14 82zM1305 648.999c-27.333 27.333 -41 59.333 -41 96
c27.333 -18 41 -50 41 -96zM-12.9971 497.999c92 -54.667 115 -41 69 41zM118.003 387.999l-3.99902 12c-18.667 -10.667 -17.334 -14.667 3.99902 -12z" />
    <glyph glyph-name="quotesingle" unicode="'" horiz-adv-x="560" 
d="M133 1376c-35.333 -157.333 8.33301 -262.333 131 -315l52 -26l105 183c-18 174.667 -0.666992 332 52 472c-70 104.667 -166 148 -288 130c-122 -139.333 -139.333 -287.333 -52 -444z" />
    <glyph glyph-name="parenleft" unicode="(" horiz-adv-x="860" 
d="M595 1874c-31.333 -19.333 -56.3359 -41.3311 -75.0029 -65.998c-101.333 -44.667 -167.666 -117.334 -198.999 -218.001l-38 -28v-66c-31.333 -12.667 -50 -34.667 -56 -66c-12.667 12 -28.667 15 -48 9l10 -113c-107.333 -113.333 -132.666 -227 -75.999 -341
c-18.667 -24.667 -31.334 -46.667 -38.001 -66c12.667 -50 28.667 -91 48 -123l-29 -37c38 -170.667 94.667 -296.667 170 -378c-12.667 -38 0 -63.333 38 -76c-31.333 -18.667 -47 -44 -47 -76c50.667 0 76 -25 76 -75l56 38c25.333 -25.333 47.333 -41.333 66 -48
c56.667 -94 132.334 -128.667 227.001 -104c0 -24.667 25.333 -40.334 76 -47.001c12.667 113.333 -25.333 189 -114 227l29 47c-19.333 0 -29 -9.33301 -29 -28c-18.667 44 -47 63 -85 57l10 47c-44 -12.667 -66 6.33301 -66 57c18.667 -12.667 31 -6.66699 37 18
c-44 38 -66 35 -66 -9c-18.667 31.333 -47 44 -85 38c12.667 56.667 -12.333 81.667 -75 75c24.667 56.667 15 107.334 -29 152.001c19.333 37.333 10 62.333 -28 75c50.667 63.333 44.334 107.333 -18.999 132c25.333 12.667 38 31.667 38 57l-19 38
c25.333 31.333 31.666 69 18.999 113l38 123v29l37 141l19 10l29 47l-29 28c25.333 6.66699 47.333 6.66699 66 0c12.667 38 44.334 54 95.001 48l19 66h-28c50 31.333 87.667 66 113 104c12.667 -12.667 28.334 -16 47.001 -10l29 48
c-6.66699 75.333 -41.334 125.666 -104.001 150.999h-10zM84.9971 579.002c38 25.333 47.333 57 28 95c-18.667 -25.333 -28 -57 -28 -95z" />
    <glyph glyph-name="parenright" unicode=")" horiz-adv-x="762" 
d="M126 1786l-20.002 -81.001c47.333 13.333 84.333 26.666 111 39.999l-20 -40c34 -47.333 68 -77.666 102 -90.999c33.333 -81.333 80.333 -145.666 141 -192.999c20.667 -60.667 54.667 -101 102 -121c-34 -27.333 -47.667 -61.333 -41 -102l71 -142
c-20 -94.667 -23.333 -175.667 -10 -243c-27.333 -40.667 -37.333 -81 -30 -121c-47.333 -74.667 -78 -145.667 -92 -213c-33.333 -6.66699 -60.333 -17 -81 -31v-30c-26.667 -34 -40 -67.667 -40 -101c-13.333 13.333 -30.333 16.666 -51 9.99902
c27.333 -40.667 14 -84.667 -40 -132l-92 -20c-47.333 -47.333 -71 -105 -71 -173c94.667 0 179.334 20.333 254.001 61l30 81c20.667 -6.66699 34.334 -6.66699 41.001 0c270 331.333 354.333 686 253 1064l30 51l-40 20c-20 94.667 -50.333 172.334 -91 233.001l-10 71
l-21 21v30c-26.667 26.667 -43.334 53.667 -50.001 81l-41 20l-223 152l-91 10c-27.333 -47.333 -20.666 -84.333 20.001 -111zM792.998 366.999l-41 30.999c0 -47.333 13.667 -57.666 41 -30.999z" />
    <glyph glyph-name="asterisk" unicode="*" horiz-adv-x="1266" 
d="M554 1615c0 6.66699 4 16.0029 12 28.0029c8 8 14 20.667 18 38l-6 67l-4 38v33l-18 40c0 9.33301 -1.33301 16 -4 20l44 53l49 8c26.667 -32.667 38.667 -55 36 -67l-6 -42l-10 -36l-28 -69c-1.33301 -10.667 -2 -18.667 -2 -24c0 -14 2 -30.333 6 -49
c20 -26.667 40.667 -39.334 62 -38.001c15.333 5.33301 38.333 19.333 69 42l91 12l109 2c4 -24 3.33301 -36.667 -2 -38l-42 -20l-47 -6l-40 -2l-45 -21l-44 -14l-30 -2h-37l-26 8l-10 -16l-8 -14l38 -30l33 -30c16 -16.667 32 -41.667 48 -75l51 -55
c20 -16 32 -37.333 36 -64c0 -16.667 -8.66699 -27.667 -26 -33c-12.667 -2.66699 -21.667 -1.33398 -27 3.99902l-14 12c-22.667 19.333 -40.667 38.333 -54 57l-41 65l-26 48l-24 57h-24l-21 4c-24 -36.667 -42 -77 -54 -121l-26 -128l-45 -32
c-8 -4 -22.667 -1.33301 -44 8l-4 71l10 26l18 42l75 77l14 39l20 42l-20 56l-32 15l-29 18l-38 2l-32 -4l-69 -12c-31.333 12 -54.333 25.333 -69 40c-13.333 17.333 -20 40.333 -20 69c10.667 5.33301 26.667 10.666 48 15.999c19.333 0 38.333 -3.33301 57 -10l38 -20
l43 -19l30 -20c10.667 -2.66699 22 -8 34 -16l27 -18z" />
    <glyph glyph-name="plus" unicode="+" horiz-adv-x="1190" 
d="M1254 765l-48 87.0029l-65 -18c-126.667 27.333 -234.667 35.666 -324 24.999l-113 20l-63 -17l-148 20l-100 -16l-112 21c-84.667 -24.667 -162.667 -36.334 -234 -35.001l-64 -113l42 -19c132 -9.33301 240 -33.666 324 -72.999l58 37
c154.667 -40.667 298 -33.334 430 21.999c160 -52.667 301.333 -39.334 424 39.999zM607 1350l-90.999 -46.999l20 -59c-25.333 -118.667 -31 -220 -17 -304l-19 -105l21 -59l-18 -139l20 -92l-19 -107c28 -78.667 42.333 -151 43 -217l122 -59l18 40
c6.66699 123.333 29.667 224.666 69 303.999l-41 53c39.333 145.333 27.666 279 -35.001 401c52.667 150.667 34.667 282.667 -54 396z" />
    <glyph glyph-name="comma" unicode="," horiz-adv-x="556" 
d="M87 -17c114 -76 145.668 -196.333 95.001 -361c304 139.333 354.667 348.333 152 627h-95c-88.667 -76 -139.334 -164.667 -152.001 -266z" />
    <glyph glyph-name="hyphen" unicode="-" horiz-adv-x="928" 
d="M235 714c-13.333 40 -39.999 66.667 -79.999 80c-160 -226.667 -133.333 -286.667 80 -180l40 -20l120 -40c160 13.333 286.667 6.66602 380 -20.001c13.333 53.333 46.666 80 99.999 80c-13.333 146.667 -153.333 213.334 -420 200.001z" />
    <glyph glyph-name="hyphen" unicode="&#xad;" horiz-adv-x="928" 
d="M235 714c-13.333 40 -39.999 66.667 -79.999 80c-160 -226.667 -133.333 -286.667 80 -180l40 -20l120 -40c160 13.333 286.667 6.66602 380 -20.001c13.333 53.333 46.666 80 99.999 80c-13.333 146.667 -153.333 213.334 -420 200.001z" />
    <glyph glyph-name="period" unicode="." horiz-adv-x="520" 
d="M40 56c81.333 -202.667 209.999 -250 385.999 -142c94.667 176 67.334 318.333 -81.999 427c-162 -54.667 -263.333 -149.667 -304 -285z" />
    <glyph glyph-name="slash" unicode="/" horiz-adv-x="1221" 
d="M1113 1975l-138.001 -27l-28 -110c-127.333 -182.667 -218.666 -347 -273.999 -493l-109 -165l-28 -109l-136 -220l-56 -164l-110 -165c-36 -146 -81.333 -274 -136 -384l82 -164l54 55c110.667 200.667 220.667 356 330 466v110c164.667 218.667 265 447 301 685
c182.667 220 274 448.333 274 685h-26z" />
    <glyph glyph-name="zero" unicode="0" 
d="M663 1691c251.333 80.667 246.667 148 -14 202c-18 -72 -13.333 -139.333 14 -202zM501.001 1758c-107.333 44.667 -197.001 13.3359 -269.001 -93.9971c-54 -80.667 -76.333 -161.334 -67 -242.001c-54 -72 -94.667 -139.333 -122 -202
c36 -126 31.667 -224.667 -13 -296l40 -41v-161l27 -108c36 -80.667 58.667 -152.334 68 -215.001c62.667 -18 98.334 -54 107.001 -108h54c-26.667 -27.333 -35.667 -58.666 -27 -93.999c90 -72 175.333 -121.333 256 -148c98.667 -72 166 -72 202 0
c98.667 -72 170.334 -54.333 215.001 53l41 -27c26.667 18 40 36 40 54c197.333 -8.66699 287 112.666 269 363.999c80.667 80.667 98.667 170.334 54 269.001c27.333 54 32 108 14 162l53 13c-17.333 125.333 -44 228.666 -80 309.999
c26.667 116.667 -5 215.334 -95 296.001c-44.667 -80.667 -62.334 -161.667 -53.001 -243c44.667 -26.667 89.334 -40 134.001 -40l-13 -27c0 -62.667 -9 -107.334 -27 -134.001c18 -72 27 -130.333 27 -175c-27.333 -27.333 -36.333 -54.333 -27 -81l27 -68
c-80.667 -98.667 -121 -206.334 -121 -323.001l-95 -40c-44.667 -80.667 -98.334 -143.334 -161.001 -188.001l-67 26l-229 -40c-45.333 90 -90.333 112.333 -135 67c-36 27.333 -72 45.333 -108 54l-121 310l-67 13c26.667 90 31 175.333 13 256
c-8.66699 54 -26.334 94.333 -53.001 121c62.667 134.667 71.334 242.334 26.001 323.001c54 54 85.667 108 95 162c53.333 18 84.666 54 93.999 108c54 17.333 94.333 35 121 53c36 -62.667 76.333 -62.667 121 0c-8.66699 63.333 -35.667 99.333 -81 108c54 36 54 63 0 81
c-35.333 -27.333 -57.666 -63.333 -66.999 -108zM986 1718c71.333 -36 107 -85.333 107 -148c27.333 0 41 13.333 41 40l27 -81c44.667 80.667 40 166 -14 256l-94 40l-81 41c0 -62.667 4.66699 -112 14 -148zM1268 1785c54 -8.66699 63 0.333008 27 27zM1780 1368h-40
c8.66699 -62.667 22 -62.667 40 0zM1632 1139c72 -26.667 76.333 0.333008 13 81z" />
    <glyph glyph-name="one" unicode="1" horiz-adv-x="1339" 
d="M254 1829c-94 17.333 -149.665 -16.999 -166.998 -102.999c120 -60 236 -85.667 348 -77c68.667 0 103 -34.333 103 -103c-34.667 -34 -77.667 -55.333 -129 -64c60 -42.667 98.667 -51.334 116 -26.001c25.333 -51.333 55.333 -90 90 -116
c-34.667 -42.667 -52 -85.334 -52 -128.001c0 -26 -8.33301 -47.667 -25 -65l-39 65c0 -60 21.333 -103 64 -129c-34 -60 -51 -111.333 -51 -154c8.66699 -26 25.667 -43.333 51 -52l-25 -39l12 -25l13 -103v-180c-25.333 -60 -33.666 -116 -24.999 -168l-52 -38l26 -13
c-94.667 8.66699 -154.667 -12.666 -180 -63.999c-154.667 76.667 -253.334 38 -296.001 -116l25 -65l78 13l25 26h129l52 -26l115 26l26 -26c42.667 8.66699 85.667 4.33398 129 -12.999l26 13l25 -13c68.667 0 128.667 -4 180 -12l26 -65l26 77c154 -34 287 -34 399 0
c17.333 94.667 -8.33398 167.667 -77.001 219c-60.667 8.66699 -116.667 8.66699 -168 0c-94 86 -192.667 103.333 -296 52l13 115c-8.66699 86 -21.334 159 -38.001 219l25 13c-8.66699 86 0 163.333 26 232l-26 51c0 51.333 8.66699 98.666 26 141.999
c-34 120 -38.333 227 -13 321l-13 168c17.333 -17.333 39 -21.666 65 -12.999c-52 51.333 -65 111.333 -39 180c-68.667 34 -120 68.333 -154 103c-128.667 -34.667 -244.667 -30.334 -348 12.999z" />
    <glyph glyph-name="two" unicode="2" horiz-adv-x="1372" 
d="M227 -30c-10.667 20.667 -26.3379 41.665 -47.0049 62.998h-79c-20.667 20.667 -31 36.334 -31 47.001c-20.667 83.333 -31 135.666 -31 156.999v125c7.33301 7.33301 11 15.666 11 24.999l1 24c2 9.33301 13.667 14 35 14c10 41.333 25.667 93.666 47 156.999
c20.667 20.667 41.667 31 63 31v31c20.667 31.333 62.334 68 125.001 110h47v63c22 21.333 44.333 35 67 41c15.333 4 45.333 6 90 6v31c42 20.667 73.333 31 94 31v16c83.333 21.333 146 32 188 32v31l94 47c10.667 0 37 -10.333 79 -31c0 48 9 79.333 27 94l98 47
c0 20.667 10.333 41.334 31 62.001c0 10.667 10.667 16 32 16h-32c0 12 -1.16699 25.833 -3.5 41.5s-3.5 25.5 -3.5 29.5c0 15.333 13 23 39 23c0 21.333 10.333 42.333 31 63l-31 31v94c-21.333 0 -32 -5 -32 -15c-20.667 20.667 -31 36.334 -31 47.001
c-26.667 0 -42.334 11 -47.001 33v45c-20.667 0 -31 -5.33301 -31 -16c0 21.333 5 37 15 47c-31.333 0 -49.666 -0.333008 -54.999 -1s-8.66602 -3.33398 -9.99902 -8.00098c-2 -7.33301 -6.33301 -14.666 -13 -21.999l-16 16c-20.667 0 -36.334 -5.33301 -47.001 -16
c-10.667 20.667 -16 41.667 -16 63c0 10.667 5.33301 16 16 16l-47 94l-47 -47l-16 15c-10 -10 -15 -25.667 -15 -47h-32c-41.333 0 -72.666 -5 -93.999 -15c-10 20.667 -15 41.334 -15 62.001c-10.667 0 -16 -5 -16 -15v47l-16 15c0 10.667 15.667 16 47 16
c0 10.667 10.667 26.334 32 47.001c41.333 -20.667 77.666 -36.334 108.999 -47.001c31.333 0 57.666 -5.33301 78.999 -16c25.333 25.333 38 44.666 38 57.999v0v0c-4 -1.33301 4.33301 -15.333 25 -42c20.667 0 72.667 -10.333 156 -31
c36.667 -73.333 73.334 -110 110.001 -110l29 -59c16.667 -23.333 38.334 -35 65.001 -35v-47c10.667 10 26.334 15 47.001 15c-10 -10 -15 -36 -15 -78s5 -73.333 15 -94h16c-20.667 -104.667 -31 -188.334 -31 -251.001h-16c-10.667 -20.667 -16 -52 -16 -94l-57 -33
c-14 -10.667 -21 -41.667 -21 -93h-63c-42 -41.333 -68 -72.666 -78 -93.999c-21.333 10.667 -47.666 16 -78.999 16c-20.667 -10.667 -52 -31.667 -94 -63v32h-78v-47c-31.333 0 -49.833 -0.5 -55.5 -1.5s-8.83398 -3.83301 -9.50098 -8.5
c-2 -7.33301 -6.66699 -14.666 -14 -21.999c-41.333 0 -72.666 -5 -93.999 -15c-10 0 -15 -10.667 -15 -32c-10.667 -5.33301 -29.167 -13.166 -55.5 -23.499s-44.5 -18.166 -54.5 -23.499c-10.667 -20.667 -16 -57.334 -16 -110.001l-63 32v-47
c-41.333 0 -67.333 -5.33301 -78 -16v-63l-94 -94c0 -2 4.33301 -13 13 -33s13 -36 13 -48s-3.33301 -21.333 -10 -28h125c0 19.333 2.33301 29 7 29c6 0 9 -9.66699 9 -29h345c0 -21.333 5 -37 15 -47c21.333 10 58 15 110 15c21.333 21.333 42.333 32 63 32h94
c0 -15.333 26 -26.666 78 -33.999c62 -8 104 -23 126 -45c0 10.667 10.333 26.334 31 47.001c21.333 0 37 -5 47 -15c-20.667 -42 -31 -73.667 -31 -95c-10 10 -20.667 15.333 -32 16c-40.667 0 -61 -5.66699 -61 -17c0 -10 10 -25.333 30 -46l-47 -47l-16 16
c-10 0 -15 -10.333 -15 -31l-63 31c-20.667 0 -31 -10.333 -31 -31v47c-21.333 10 -52.666 15 -93.999 15v-47c-63.333 0 -110.666 -5 -141.999 -15c-9.33301 9.33301 -14.333 19.666 -15 30.999c-21.333 0 -32 -5.33301 -32 -16c-10 10.667 -15 26.334 -15 47.001
c-31.333 0 -52.333 -5.16699 -63 -15.5s-16 -25.833 -16 -46.5h-47c-10 10 -15 25.667 -15 47c-10.667 -10.667 -16 -26.334 -16 -47.001l-16 15c-20.667 10.667 -46.667 16 -78 16c-10.667 10.667 -26.334 16 -47.001 16c-10.667 -10.667 -25.667 -16 -45 -16
c-22.667 0 -34 10.333 -34 31c-9.33301 10 -19.666 15.333 -30.999 16c-20.667 -42 -45.334 -63 -74.001 -63c-13.333 0 -25.333 5.33301 -36 16c-20.667 -20.667 -31 -36.334 -31 -47.001zM-8.00391 94.998c-10.667 10.667 -16 26.333 -16 47c0 10.667 5.33301 16 16 16
v-63zM837.996 769.997c-10 10 -15 25.667 -15 47h47c-21.333 -21.333 -32 -37 -32 -47zM257.996 1381l0.000976562 16.001h-47c-20.667 42 -36.334 68 -47.001 78v94c16 47.333 37 84 63 110c10.667 21.333 36.834 42.333 78.501 63s72.834 31 93.501 31
c0 20.667 6 32 18 34c-9.33301 -1.33301 16 -2 76 -2c0 20.667 5.33301 31 16 31c0 -10.667 10.333 -36.667 31 -78v0c-20.667 -21.333 -36.334 -42.333 -47.001 -63l16 -16c-10.667 10.667 -26.334 16 -47.001 16c-42 0 -68 -5.33301 -78 -16
c-10.667 -20.667 -16 -57.334 -16 -110.001c-37.333 -56 -63.333 -113.333 -78 -172c-21.333 0 -32 -5.33301 -32 -16z" />
    <glyph glyph-name="three" unicode="3" horiz-adv-x="1380" 
d="M122 -341c-21.333 11.333 -48.0049 27.6699 -80.0049 49.0029c0 50 0.666992 70.333 2 61c-1.33301 12.667 -12.666 29.334 -33.999 50.001c21.333 21.333 64 42.666 128 63.999c0 21.333 10.667 42.666 32 63.999c14 28 35.333 49 64 63c21.333 0 42.333 -5 63 -15
c42.667 21.333 75 32 97 32c4.66699 0 15.334 -5.66699 32.001 -17c0 -4.66699 5 -15.334 15 -32.001c0 11.333 5.33301 17 16 17c0 32 5.33301 53 16 63c32 11.333 80.333 17 145 17v-48c0 20.667 5 36.667 15 48h16c0 52 4.33301 87 13 105c6 10 16.833 17.833 32.5 23.5
s27.167 15.834 34.5 30.501h32v65c8 0 15.333 6.66699 22 20s13.334 20 20.001 20c8 0 20.667 -8.33301 38 -25c0 32.667 3.33301 51.667 10 57c6.66699 2 14 4.66699 22 8v47c13.333 6.66699 24 21.667 32 45c4 13.333 30.667 20 80 20l15 -17
c0 -42 5.66699 -73.667 17 -95c0 42 5 73.667 15 95v-48h17c0 10 -0.5 21.5 -1.5 34.5s-1.5 21.167 -1.5 24.5c0.666992 14 12 21 34 21c0 32 10.667 69.333 32 112c-10 74.667 -15 181 -15 319c-27.333 -4 -54 -12.667 -80 -26c-22.667 -10.667 -37 -16 -43 -16
c-6.66699 0 -14 3.33301 -22 10c-10 21.333 -15 48 -15 80c-21.333 11.333 -42.666 17 -63.999 17s-32 -5.66699 -32 -17v64c-10.667 -10.667 -16 -26.334 -16 -47.001c-21.333 10 -53.333 15 -96 15c-85.333 0 -149 -5 -191 -15c-21.333 -21.333 -32 -37.666 -32 -48.999
c-11.333 11.333 -27.666 17 -48.999 17c-10.667 -22 -16 -59.333 -16 -112c-10 0 -25.667 -11 -47 -33c-11.333 22 -17 43.667 -17 65c-10.667 -11.333 -16 -27.333 -16 -48v48c-21.333 -21.333 -32 -37.333 -32 -48c-10 10.667 -25.667 16 -47 16v144
c-21.333 0 -32 -5.66699 -32 -17c0 20.667 -2.33301 31 -7 31c-6 0 -9 -10.333 -9 -31c-21.333 0 -32.666 -3 -33.999 -9c1.33301 6 2 -17.667 2 -71h-17c-20.667 64.667 -31 112.667 -31 144c10.667 10.667 26.667 16 48 16c0 -10.667 10.667 -26.667 32 -48
c0 42.667 10.667 96 32 160l63 -32c0 31.333 10.667 79.333 32 144c22 10 59.333 15 112 15v33c10.667 21.333 37.334 42.666 80.001 63.999c20 0 30 -11.333 30 -34c0 -4 -0.333008 -10.333 -1 -19s-1 -14.667 -1 -18c0 -17.333 6.66699 -26 20 -26
c0 10.667 -0.333008 22.334 -1 35.001s-1 21 -1 25c0.666992 13.333 12 20 34 20c0 -5.33301 5.33301 -15.666 16 -30.999v31c21.333 21.333 42.666 37.666 63.999 48.999c-21.333 20.667 -37.333 31 -48 31v64c10.667 11.333 26.667 17 48 17v-81h48
c21.333 21.333 48 32 80 32v80l38 43c6 4 30.333 6 73 6l48 47l-31 64c-11.333 10.667 -27.666 16 -48.999 16s-42.333 -10.667 -63 -32c-10.667 10.667 -27 16 -49 16l17 -16h-80c-10.667 0 -16 -10.667 -16 -32c-42.667 21.333 -74.667 32 -96 32s-32 -5 -32 -15v47
c-21.333 -21.333 -32 -37 -32 -47h-96v15h-96c-20.667 0 -31 -5 -31 -15l-49 95v-32c-10.667 0 -23.667 3 -39 9s-25.333 9 -30 9c-7.33301 0 -11 -11.333 -11 -34h-32c-20.667 21.333 -31 37.333 -31 48c0 32 5.33301 53.333 16 64c7.33301 0 14.166 4.66699 20.499 14
s12.166 14 17.499 14c8.66699 0 22.667 -9.33301 42 -28c42.667 0 79.667 -5.33301 111 -16v32h80c0 21.333 3.66699 32.666 11 33.999c-7.33301 -1.33301 15.667 -2 69 -2c32 -21.333 90.667 -53 176 -95c0 36 4.66699 54 14 54c1.33301 0 9.33301 -1.16699 24 -3.5
s28.667 -3.5 42 -3.5c0 -21.333 5.33301 -37 16 -47c0 19.333 7.33301 29 22 29c8 0 16.667 -4.66699 26 -14v32h96c0 -21.333 5 -37 15 -47c32 31.333 85.333 47 160 47v-32c21.333 21.333 48 32 80 32c0 -10.667 10.667 -26.334 32 -47.001
c-10 -43.333 -15 -107.333 -15 -192h-65l-95 -97h-32c-21.333 -42.667 -32 -80 -32 -112h-48c0 -31.333 5 -57.666 15 -78.999c-10 -10.667 -15 -26.667 -15 -48l-17 15c-21.333 -10 -47.666 -25.667 -78.999 -47c21.333 0 53.333 -10.667 96 -32v-33
c74.667 0 149 -37 223 -111c10.667 0 37.667 -10.667 81 -32c0 -31.333 10.333 -79.333 31 -144c21.333 0 37.666 -5 48.999 -15c0 -12 -7 -28 -21 -48s-21 -36.333 -21 -49c0 -14.667 8.33301 -30.334 25 -47.001c-18.667 -18.667 -28 -29.334 -28 -32.001
c0 -13.333 9.33301 -29.333 28 -48c-21.333 -43.333 -32 -80.666 -32 -111.999l32 -63c-21.333 0 -32 -11 -32 -33v-112l-42 -38c-4 -6 -6 -30.667 -6 -74c-21.333 -21.333 -32 -37 -32 -47h-32c-10.667 -11.333 -16 -27.333 -16 -48h-32c-21.333 0 -32 -10.667 -32 -32
c-10 9.33301 -15.333 20 -16 32c-21.333 -42.667 -32 -74.667 -32 -96c-42 0 -73.667 -5.33301 -95 -16c-11.333 -11.333 -17 -38 -17 -80c-21.333 20.667 -32 36.667 -32 48c-20.667 0 -31 -5.66699 -31 -17c-21.333 -20.667 -32 -41.667 -32 -63
c-32 0 -69.333 -10.667 -112 -32v-80c-32 10.667 -80 16 -144 16v-31h-48l-144 -49c-28 -14 -49 -35 -63 -63l-17 15c-20.667 0 -31 -10.667 -31 -32h-144zM744.995 1736c-10.667 10.667 -16 26.667 -16 48c0 24 4.33301 36 13 36c10 0 27 -12 51 -36h-32
c-10.667 -10.667 -16 -26.667 -16 -48z" />
    <glyph glyph-name="four" unicode="4" horiz-adv-x="1602" 
d="M1043 0c-20 0 -30 14.998 -30 44.998c0 36 -1.66699 55.333 -5 58c0 69.333 6 115.333 18 138c-10.667 10.667 -22.334 16.667 -35.001 18c0 45.333 5.66699 74 17 86c-22.667 22.667 -34 39.667 -34 51l52 52l-138 69c-12 11.333 -18 28.666 -18 51.999
c-68.667 0 -114.334 -6 -137.001 -18c-12 12 -18 29.333 -18 52c12 11.333 29.333 17 52 17c-22.667 12 -57 18 -103 18c-30.667 -15.333 -53.667 -38.333 -69 -69c-23.333 0 -40.666 -6 -51.999 -18c-22.667 23.333 -34 40.666 -34 51.999
c-21.333 0 -35.833 -4.83301 -43.5 -14.5s-11.167 -14.5 -10.5 -14.5c-3.33301 0.666992 -8.33301 4.66699 -15 12c-23.333 0 -40.666 -5.66699 -51.999 -17c0 53.333 -20 80 -60 80c-10.667 0 -23.167 -1.83301 -37.5 -5.5s-22.166 -5.5 -23.499 -5.5
c-22.667 -23.333 -39.667 -46.333 -51 -69l-35 34c-11.333 -11.333 -17 -28.666 -17 -51.999c-69.333 23.333 -115.333 35 -138 35v224c22.667 22.667 45.667 34 69 34c0 34.667 11.5 63.5 34.5 86.5s57.5 46.167 103.5 69.5c11.333 22.667 28.666 45.667 51.999 69
c0 17.333 -1.16699 36.166 -3.5 56.499s-3.5 32.166 -3.5 35.499c0 18.667 19.333 28 58 28c0 78.667 13 142.667 39 192l65 101c-12 23.333 -18 46.333 -18 69c0 74.667 -0.666992 105.667 -2 93c2 18.667 14.333 28 37 28v-86h17c0 35.333 3.66699 55.333 11 60l24 8
c-10.667 10.667 -22.334 16.667 -35.001 18c0 11.333 11.667 17 35 17l-35 34h35c-12 34.667 -18 75 -18 121h52c0 34.667 5.66699 57.667 17 69h69c0 -22.667 11.667 -57 35 -103c0 -115.333 0.666992 -161.333 2 -138c-2 -35.333 -14.333 -64 -37 -86
c0 -6 5.66699 -17.667 17 -35c-22.667 -22.667 -57 -63 -103 -121h-34c0 -45.333 5.66699 -79.666 17 -102.999l-52 -207l-103 -207c-23.333 -46 -35 -86 -35 -120v34c-11.333 -22.667 -17 -57 -17 -103h17v52l52 -52v34c34.667 12 97.667 18 189 18
c34.667 0 63.667 -6 87 -18c0 -5.33301 5.66699 -16.666 17 -33.999v34c57.333 12 149.333 18 276 18c0 22.667 11.333 45.334 34 68.001l35 -34c-12 34.667 -18 75 -18 121c23.333 22.667 40.666 34 51.999 34v121c-23.333 23.333 -35 48.333 -35 75
c0 30 11.667 56.667 35 80c-11.333 46 -17 109 -17 189c0 10.667 1.83301 23.167 5.5 37.5s5.5 24.5 5.5 30.5c0 16.667 -9.33301 34.334 -28 53.001c0.666992 22.667 2 56.334 4 101.001c2 36 35 54 99 54c11.333 -34.667 40 -86.334 86 -155.001
c0 -2 -11.167 -29.667 -33.5 -83s-33.5 -99.666 -33.5 -138.999c0 -48.667 16.667 -89.667 50 -123c-11.333 0 -17 -5.66699 -17 -17l51 -52c-22.667 -45.333 -34 -91 -34 -137c-7.33301 -8 -14.666 -13.333 -21.999 -16s-11 -4.33398 -11 -5.00098
c3.33301 -2.66699 14.333 -13 33 -31c0 -23.333 11.333 -69.333 34 -138h35c-11.333 0 -17 -11.333 -17 -34c57.333 11.333 155 17 293 17c0 11.333 5.66699 17 17 17c22.667 0 57 -11.333 103 -34c0 -19.333 9 -31.333 27 -36c38.667 -10.667 58.334 -16 59.001 -16v-121
c-91.333 0 -160 -5.66699 -206 -17c-23.333 0 -46.333 -11.667 -69 -35c-12 23.333 -18 46.333 -18 69c-22.667 12 -57 18 -103 18c-22.667 -23.333 -34 -46.333 -34 -69c-60.667 0 -91 -17 -91 -51c0 -5.33301 0.666992 -17.666 2 -36.999s2 -36 2 -50
c-22.667 0 -34 -11.667 -34 -35l34 -69c-22.667 -114.667 -34 -200.667 -34 -258c-23.333 -23.333 -35 -46.333 -35 -69h-120z" />
    <glyph glyph-name="five" unicode="5" horiz-adv-x="1390" 
d="M175 -258l0.00488281 15.998c-40.667 20 -102.334 40.333 -185.001 61v46c40.667 41.333 76.667 72 108 92h46v31h108c10 10.667 30.333 26 61 46v31l92 47c20.667 9.33301 51.667 14 93 14c20.667 20.667 51.334 41.334 92.001 62.001h62v31h46
c0 35.333 3.33301 53 10 53c2 0 8.5 -1.16699 19.5 -3.5s21.5 -3.5 31.5 -3.5c-8.66699 10 -13.334 20 -14.001 30c40.667 21.333 71.334 32 92.001 32l46 92h47v31c20 20 45.333 30 76 30c-19.333 0 -29 2.33301 -29 7c0 6 9.66699 9 29 9v31h46c0 39.333 4 59 12 59
c4 0 10.333 -4 19 -12c0 20 5.33301 30 16 30c0 30.667 10 56.334 30 77.001v154c0 10 10.333 15 31 15c-20.667 0 -31 -5 -31 -15c-20 82 -30 133.333 -30 154c-10.667 0 -26.334 -10.333 -47.001 -31c-8.66699 9.33301 -13.334 19.666 -14.001 30.999h-32v46l-139 46
c-9.33301 20 -14 51 -14 93c-20.667 0 -31 -10.333 -31 -31v0c-20.667 10 -41.667 15 -63 15c-9.33301 -20.667 -14 -51.334 -14 -92.001c-14 0 -27.167 1 -39.5 3l-18.5 3c-2.66699 0 -4 -17.333 -4 -52h-123c-10.667 0 -16 -5 -16 -15v45c-10 -10 -15 -25 -15 -45h-138v45
l-93 -92c-9.33301 9.33301 -14.333 19.666 -15 30.999h-108c-7.33301 18 -11 58 -11 120c-0.666992 50.667 -12.667 87.334 -36 110.001c0 10.667 10.333 16 31 16c-18.667 0 -28 2.33301 -28 7c0 6 9.33301 9 28 9v246c0 20.667 10.333 41.334 31 62.001
c-10 30.667 -15 66.334 -15 107.001c0 -7.33301 -0.666992 9.33398 -2 50.001c-0.666992 28 -0.333984 49.667 0.999023 65c2.66699 22 8.33398 33 17.001 33c4 0 9 -3 15 -9c0 20.667 5 36 15 46s30.667 15 62 15v31c20 10.667 56 16 108 16l14 -16
c62 10.667 154.667 16 278 16h76c20.667 0 62 -10.333 124 -31c10 10 35.667 15 77 15l62 -31c20 10.667 55.667 16 107 16c10.667 0 26.334 -10.333 47.001 -31v-107c-10.667 9.33301 -26.334 14 -47.001 14c-20 -9.33301 -45.667 -24.333 -77 -45l-14 15
c-10.667 0 -16 -5 -16 -15l-31 61c-10.667 -10.667 -16 -26 -16 -46h-122l-31 30v-30c-20.667 -20.667 -31 -36.334 -31 -47.001h-32c-9.33301 10.667 -14 26.334 -14 47.001c-10.667 0 -16 -5 -16 -15l-15 15l-46 -47c-31.333 0 -52 -5 -62 -15
c-41.333 20.667 -72.333 31 -93 31c0 10.667 5.33301 16 16 16c-11.333 0 -24.666 1.16699 -39.999 3.5s-25 3.5 -29 3.5c-16 0 -24 -13 -24 -39v32c-10 10 -25 15 -45 15c-25.333 -37.333 -46.333 -88.333 -63 -153v-263h32c0 -51.333 5 -92.333 15 -123h61v30
c21.333 10.667 52.333 16 93 16c0 -10.667 10.333 -26 31 -46l46 46c24.667 0 60.167 -5.66699 106.5 -17s79.833 -17 100.5 -17c34 0 62.333 11.333 85 34c51.333 0 92.666 -5.33301 123.999 -16v-30c12 35.333 19.667 53 23 53c4.66699 0 7 -17.667 7 -53h77
c0 -4.66699 5.33301 -15 16 -31c34 0 55 -20.5 63 -61.5s33.333 -61.5 76 -61.5v-46h45c-20 0 -30 -10.333 -30 -31c0 -20 10 -61 30 -123h31c0 -20.667 5.33301 -36 16 -46c10.667 10 26 15 46 15v-154c-81.333 0 -124.333 -4 -129 -12l-25 -127
c-10 0 -25.667 -10.333 -47 -31c-20 -40.667 -30 -71 -30 -91c-27.333 -14 -48 -34.667 -62 -62h-30v-46l-51 -30.5c-17.333 -10.333 -26 -31.166 -26 -62.499c-31.333 -20.667 -67.333 -51.334 -108 -92.001c-6.66699 0 -16.334 0.833008 -29.001 2.5
s-22.334 2.5 -29.001 2.5c-12.667 0 -19 -17.333 -19 -52c-20.667 -10 -41.334 -35.333 -62.001 -76c-36.667 0 -61 -4 -73 -12l-50 -34l-15 14c-46 -14.667 -82 -35 -108 -61c-62 0 -103.333 -5 -124 -15l-92 -46c-20 -20.667 -30 -36.334 -30 -47.001
c-31.333 0 -67.333 -10 -108 -30zM1406 203.998c-9.33301 20 -14 50.333 -14 91c0 10.667 4.66699 16 14 16v-107zM1406 434.998c-8.66699 9.33301 -13.333 19.666 -14 30.999c-21.333 0 -32 -5.33301 -32 -16c-10 10.667 -15 26 -15 46c0 10 5 15 15 15
c0 -4.66699 5.33301 -15 16 -31c0 10.667 10 26.334 30 47.001v-92z" />
    <glyph glyph-name="six" unicode="6" horiz-adv-x="1719" 
d="M730 -66l-0.000976562 34.0039h-82c-37.333 37.333 -65.666 56 -84.999 56c-7.33301 0 -12.333 -2 -15 -6v49c-21.333 -22 -32 -44 -32 -66v49l-82 82c-22 11.333 -55 17 -99 17h-83c0 22 5.33301 33 16 33c-43.333 0 -65 38.667 -65 116
c-4.66699 8.66699 -14.334 38 -29.001 88c-10.667 37.333 -23.167 61.166 -37.5 71.499s-30.5 17.5 -48.5 21.5v214c-10.667 10 -22 15.333 -34 16c0 14.667 -1.33301 35 -4 61s-4 43.667 -4 53c0 34 14 51 42 51c-11.333 33.333 -17 83 -17 149c0 98.667 5 166.667 15 204
c16 62 49.333 93 100 93c-10.667 22 -16 43.667 -16 65c0 11.333 11 28 33 50c0 66 4.16699 104.5 12.5 115.5s36.833 16.5 85.5 16.5v49c22.667 22 45 33 67 33c0 62.667 13 102 39 118c5.33301 3.33301 39.333 10.666 102 21.999c53.333 10 99.666 35 138.999 75h197v49
c12 -11.333 39.667 -27.666 83 -48.999c0 10.667 5.66699 16 17 16c4.66699 0 15.334 -5.33301 32.001 -16c34.667 33.333 73.334 50 116.001 50c29.333 0 62.333 -6 99 -18c22 -10.667 54.667 -32.334 98 -65.001c-21.333 0 -32 -11 -32 -33l32 -34
c-43.333 10.667 -109.333 16 -198 16c-10.667 0 -16 -5.33301 -16 -16c-22 10.667 -44 16 -66 16h-65c-11.333 0 -17 -10.667 -17 -32l-16 16c0 10.667 5.33301 16 16 16h-132c-22 0 -33 -10.667 -33 -32c-10.667 -11.333 -16 -33.333 -16 -66c-22 10.667 -44 16 -66 16
c-11.333 -10.667 -17 -27 -17 -49h-32c-22 22 -33 38.333 -33 49c-66.667 -43.333 -111 -76 -133 -98v-66c-21.333 0 -32 -11.333 -32 -34c-22 -10.667 -44 -27 -66 -49c-10 10 -15.333 21 -16 33c-42 0 -63 -1 -63 -3c0 0.666992 2 -7.5 6 -24.5s6 -35.167 6 -54.5
c-32.667 -34 -49 -61 -49 -81c0 -16 5.33301 -38.667 16 -68c-41.333 0 -62 -18.333 -62 -55c0 -10.667 2.5 -32 7.5 -64s7.5 -58 7.5 -78c0 -11.333 -0.666992 -22.333 -2 -33h17c-11.333 0 -17 -11.333 -17 -34h116v34c66 22 115.333 33 148 33
c7.33301 18 16.333 27 27 27c7.33301 0 14.666 -3.66699 21.999 -11c22.667 22 48.334 33 77.001 33c25.333 0 49.333 -11 72 -33c65.333 22 120 33 164 33v-33c0 31.333 20 47 60 47c13.333 0 37.666 -2.33301 72.999 -7s62.666 -7 81.999 -7v-33
c21.333 11.333 54.333 17 99 17l49 -49c115.333 0 214.333 -28 297 -84v-82c22.667 0 37.334 -7.66699 44.001 -23c3.33301 -9.33301 5 -29 5 -59h-98c10.667 0 27 -11 49 -33c-22 -44 -33 -82.667 -33 -116c0 11.333 5.33301 17 16 17
c-10.667 -11.333 -16 -38.666 -16 -81.999c0 -18.667 8.66699 -30 26 -34c36.667 -10 55.334 -15 56.001 -15c-10.667 0 -16 -11 -16 -33h49c-10.667 10.667 -16 27 -16 49l16 -16c0 43.333 5.33301 70.666 16 81.999c0 10.667 11 16 33 16h-33c-10.667 44 -16 99 -16 165
c22 -10.667 55.333 -38.334 100 -83.001v-66c-22.667 -21.333 -34 -35.333 -34 -42c0 -15.333 11.333 -34 34 -56l32 -66l-49 -247c-10.667 -10.667 -16 -27.334 -16 -50.001c-12 0 -29 -11 -51 -33c-32.667 0 -54.334 -5.66699 -65.001 -17
c-33.333 -10.667 -71.666 -38 -114.999 -82c-22 11.333 -49.667 17 -83 17c-11.333 0 -17 -11 -17 -33c-43.333 10.667 -98 16 -164 16l-50 -49c-66 -10.667 -159.333 -27 -280 -49v33zM862.999 216.004l131.003 0.000976562c0 62.667 11 101.667 33 117l82 30
c0 44 5.66699 71.333 17 82c11.333 22.667 27.666 45 48.999 67c0 -10.667 11 -27.334 33 -50.001c22 22.667 44 34 66 34l16 -17c0 66 5.66699 115.333 17 148c-22 66 -38.333 110 -49 132c-14.667 0 -22 2.66699 -22 8c0 6.66699 7.33301 15 22 25
c-34.667 0 -59.667 18 -75 54l-24 78l-33 32c-33.333 11.333 -72 17 -116 17l-49 50c-49.333 -16.667 -88 -39 -116 -67l-33 67c-18.667 19.333 -33.334 29 -44.001 29c-14 0 -21 -21 -21 -63l-50 51c-32.667 0 -71.334 -11 -116.001 -33l-16 16c-26 -40 -48 -95 -66 -165
c-32.667 0 -54.334 -5.33301 -65.001 -16v-50h-66c0.666992 -11.333 6 -22.333 16 -33c-32.667 0 -71.334 -11 -116.001 -33l-49 -50l17 -16v-115c0 -10.667 10.667 -27 32 -49c44.667 -22.667 83.334 -45 116.001 -67c0 -22 5.66699 -38.333 17 -49
c14.667 29.333 36.334 51 65.001 65v-65c42 0 67 -4 75 -12s16 -37 24 -87h34c0.666992 -11.333 6 -22.333 16 -33l230 -50v-33c0 22 6 39 18 51zM-27.998 298.005c0 10.667 5.33301 16 16 16l-16 17c10.667 10.667 27 16 49 16v-49h-49zM-27.998 561.005l-33 66v82
c0 22.667 11 34 33 34c0 -6 5.33301 -17.333 16 -34c-10.667 0 -16 -5.33301 -16 -16l33 -66c-22 -22 -33 -44 -33 -66zM384.002 643.005c-21.333 22 -32 38.667 -32 50l16 -17c0 11.333 5.33301 17 16 17v-50zM401.002 726.005c-11.333 11.333 -17 28 -17 50h50
c-22 -22 -33 -38.667 -33 -50zM466.002 743.005c-10.667 22 -16 49.333 -16 82c32.667 7.33301 49 -14.667 49 -66c-22 0 -33 -5.33301 -33 -16zM346.002 1235z" />
    <glyph glyph-name="seven" unicode="7" horiz-adv-x="1420" 
d="M450 -240c-30.667 20.667 -76.999 46.3301 -138.999 76.9971c0 15.333 -1 33.5 -3 54.5s-3 34.5 -3 40.5c0 29.333 17.667 44 53 44c-21.333 61.333 -32 97.333 -32 108c0 10 10.667 25.333 32 46c9.33301 51.333 24.666 123.333 45.999 216
c20.667 40.667 41 71.667 61 93c0 40.667 5.33301 66 16 76l19 45c14.667 21.333 44 32 88 32c-9.33301 10 -14.333 20.333 -15 31c14.667 58 40.334 114.333 77.001 169h47c0 36 3.66699 58.333 11 67c18 17.333 29.667 31 35 41l16 -15c0 30.667 4.66699 51.334 14 62.001
c31.333 30.667 77.666 66.334 138.999 107.001c30.667 72 87.334 170 170.001 294c20 20 45.333 30 76 30c-8.66699 10 -18.667 15.333 -30 16l46 277h31v62c-28 0 -47.333 1.66699 -58 5c-7.33301 2 -11.833 6.16699 -13.5 12.5s-3.5 10.5 -5.5 12.5
c-10.667 0 -16 -5 -16 -15c-20 10 -40.333 15 -61 15c-30.667 0 -51.334 -5 -62.001 -15c-10 10 -15 25.667 -15 47c-61.333 -21.333 -107.666 -42 -138.999 -62c-9.33301 9.33301 -14.333 19.333 -15 30l-61 32c-21.333 0 -32 -10.667 -32 -32c-20 10.667 -51 16 -93 16
c-9.33301 0 -24.666 -10.333 -45.999 -31c-40.667 20.667 -66.334 31 -77.001 31c-30.667 0 -77 -10.333 -139 -31c-40.667 20.667 -66 36.334 -76 47.001c-31.333 0 -51.666 -5.33301 -60.999 -16c-10.667 -30.667 -16 -87 -16 -169c-20.667 0 -31 -10.333 -31 -31
c-10 -21.333 -15 -57.333 -15 -108c18 0 29.667 -11.667 35 -35l11 -58c-20.667 -61.333 -36 -112.666 -46 -153.999c-20.667 10 -51.667 15 -93 15v247c0 82.667 10.333 206 31 370c10 10 35.667 25.333 77 46h231c41.333 0 72 -5.33301 92 -16c0 10.667 5.33301 16 16 16
l15 -16c20.667 10.667 56.667 16 108 16l47 -46c61.333 10 153.666 15 276.999 15c20.667 20.667 36.334 31 47.001 31c9.33301 0 34.666 -10.333 75.999 -31h31c0 20.667 5.66699 31.667 17 33c-9.33301 -1.33301 15.667 -2 75 -2c20.667 -10.667 62 -36.334 124 -77.001
c-10 0 -15 -5.33301 -15 -16c0 -20 10 -71 30 -153c-10 0 -15 -5.33301 -15 -16c0 -40.667 5 -76.334 15 -107.001c-20 -41.333 -40.667 -103 -62 -185c-10 0 -25.333 -10.333 -46 -31c0 19.333 -2 29 -6 29c-6 0 -9 -9.66699 -9 -29h-31c-10 -21.333 -15 -57.333 -15 -108
c-21.333 -20.667 -32 -41.334 -32 -62.001c-20 -31.333 -45.333 -77.333 -76 -138c-10 -10.667 -15 -36.667 -15 -78l-105 -61c-22.667 -19.333 -34 -55.333 -34 -108h-32c-2 -11.333 -21.667 -46.666 -59 -105.999c-32 -52.667 -48 -99.667 -48 -141l-92 -46v-62
c-12 -7.33301 -23.667 -15 -35 -23c-8 -7.33301 -12 -30.666 -12 -69.999c-36 -35.333 -61.667 -76.333 -77 -123c-10 -30.667 -15 -81.667 -15 -153l15 -16c-20.667 0 -31 -5.33301 -31 -16v-123c-20.667 -20 -51.334 -61 -92.001 -123z" />
    <glyph glyph-name="eight" unicode="8" horiz-adv-x="1550" 
d="M727 -102c-10.667 11.333 -16.0049 27.998 -16.0049 49.998c-44.667 22.667 -72.667 34 -84 34c-34 0 -73.333 -11.333 -118 -34c-41.333 0 -65.666 3.66699 -72.999 11l-10 23c-33.333 0 -56 -5.66699 -68 -17c-38.667 34 -94.334 78.667 -167.001 134l-101 101
c-11.333 34 -28 73 -50 117c0 33.333 11 72.333 33 117c-22 45.333 -33 73.666 -33 84.999c22 110.667 38.667 188.667 50 234c11.333 11.333 28 17 50 17c0 22 11.667 55.333 35 100c33.333 22.667 83.333 45.334 150 68.001c0 22 5.33301 38.667 16 50
c0 -67.333 5.66699 -117.666 17 -150.999c-22 0 -33 -11.333 -33 -34c-10.667 10.667 -22 16.334 -34 17.001l-100 -50v-50l-51 -101v-117c0 11.333 6 17 18 17c0 -56.667 5.66699 -101.667 17 -135h50v-67l66 -33c0 -22 5.66699 -44.667 17 -68c10.667 20 19 30 25 30
c5.33301 0 8 -10 8 -30h51v-33h84l50 -50h84c-11.333 0 -17 -11.333 -17 -34h235c0 47.333 29.333 71 88 71c12.667 0 32.834 -1.16699 60.501 -3.5s48.834 -3.5 63.501 -3.5s28 1 40 3c0 22.667 5.33301 39.334 16 50.001c0 -22 5.66699 -44.333 17 -67
c0 34 5.5 56.667 16.5 68s27.833 17 50.5 17v67c16.667 50 44.667 94.333 84 133v235c-22.667 12 -45 18 -67 18c-22.667 66.667 -34 105.334 -34 116.001l-33 67c-33.333 0 -55.666 -5.66699 -66.999 -17l-34 68c-10 10.667 -21.333 16.334 -34 17.001
c0 11.333 5.66699 17 17 17v50c-33.333 0 -61 -11.333 -83 -34c-22.667 0 -34 -11 -34 -33c-10 10.667 -15.667 21.667 -17 33c-28 0 -45.333 -4 -52 -12c-4.66699 -12.667 -9.66699 -25.334 -15 -38.001c-44.667 11.333 -106 28 -184 50v34h-68
c-10.667 -11.333 -16 -28 -16 -50c-11.333 0 -28 -11.333 -50 -34h-117c0 42 1.33301 64.333 4 67c10 5.33301 19.667 11 29 17c-11.333 22 -17 44 -17 66v-66c-22.667 10.667 -45 16 -67 16c-22.667 44.667 -39.334 72.667 -50.001 84c-44.667 67.333 -78 112 -100 134
c0 11.333 11 28 33 50l-33 34c0 12 -0.666992 32.167 -2 60.5s-2 49.833 -2 64.5c0 140 45.667 210 137 210v84h84c0 22 11.333 44.667 34 68c22 0 38.667 -5.66699 50 -17c0.666992 0 23.334 17 68.001 51c26.667 20.667 57.667 31 93 31c25.333 0 55.333 -5 90 -15
c0 22 11.333 33 34 33c44.667 -22 83.667 -44.333 117 -67c22.667 22.667 45 34 67 34l101 -27c46 -18 79.333 -48.333 100 -91h84c11.333 -44.667 39.333 -111.667 84 -201c0 -11.333 11.333 -28 34 -50c0 22 5.33301 33 16 33c2.66699 -44.667 19.334 -67 50.001 -67
c-29.333 -14.667 -51.333 -37 -66 -67c0 -22 5.33301 -44.333 16 -67c-15.333 -11.333 -33.666 -22.333 -54.999 -33c-17.333 -8 -26 -12.667 -26 -14c0 -2 21.667 -3 65 -3v-50c-14.667 -8 -31.667 -13.667 -51 -17c-12.667 -2.66699 -19 -5.33398 -19 -8.00098
c0 -4 12 -18 36 -42c-22 -22.667 -38.667 -45.334 -50 -68.001c-52 0 -78 -10 -78 -30c0 -6 3.66699 -12.667 11 -20c-11.333 0 -17 -11 -17 -33c33.333 0 61.333 -5.66699 84 -17c-11.333 -11.333 -17 -28 -17 -50c34 0 84.333 -11.333 151 -34l50 -252
c11.333 -22 28.333 -66.333 51 -133v-85c-27.333 -26 -48.333 -39 -63 -39v0v0c2.66699 4 18 -5.33301 46 -28c-11.333 0 -17 -5.33301 -17 -16l17 -17c-11.333 0 -17 -5.66699 -17 -17l34 -66h-34v50c-22.667 -44.667 -34 -84 -34 -118
c-44.667 -44.667 -78 -83.667 -100 -117h-33v50c-11.333 -11.333 -17 -39 -17 -83h-51c-29.333 -15.333 -51.666 -38 -66.999 -68h-100c-22.667 -11.333 -45.334 -28 -68.001 -50c-122.667 0 -212 -5.66699 -268 -17zM827.995 1071l17.002 -15.9971
c22 10.667 55.333 16 100 16c18.667 38 46.667 66.333 84 85c0 22 5.66699 33 17 33c22.667 22.667 45 34 67 34l50 50l50 151c-16.667 11.333 -27.667 17 -33 17c-11.333 33.333 -17 78 -17 134c0 11.333 5.66699 17 17 17c-11.333 22 -17 55.333 -17 100
c-11.333 -11.333 -17 -28 -17 -50l-87 21c-42.667 10 -64 25.333 -64 46c-66.667 22 -111 38.667 -133 50c-11.333 22.667 -17 45 -17 67c-11.333 0 -17 -11 -17 -33c0 38 -2.66699 57 -8 57c-4 0 -12.667 -19 -26 -57h-50v33c-22 -22 -38.667 -44.333 -50 -67
c-11.333 17.333 -17 28.666 -17 33.999c-11.333 0 -17 -6 -17 -18l-16 18l-101 -51c-22.667 11.333 -45 17 -67 17v-50c-30 0 -46 -4.33301 -48 -13c-4 -15.333 -16 -28 -36 -38c-22.667 22.667 -34 39.667 -34 51c-22 -11.333 -44.333 -28.333 -67 -51
c-10.667 -10.667 -16 -38.334 -16 -83.001c0 -34 5.33301 -62 16 -84c-10.667 -11.333 -27.334 -39.333 -50.001 -84l67 -134c45.333 -22.667 84.666 -39.334 117.999 -50.001v-50c11.333 0 50.333 -11.333 117 -34v-34h168l100 -50c0 10.667 5.66699 16 17 16z" />
    <glyph glyph-name="nine" unicode="9" horiz-adv-x="1425" 
d="M-36 -239l0.000976562 84c0 -15.333 6.66699 -25.333 20 -30c24 -8.66699 45 -22 63 -40c-36.667 0 -64.334 -4.66699 -83.001 -14zM502.001 -45c-9.33301 18 -14.0059 36.3311 -14.0059 54.998c-8 8 -17.333 12.333 -28 13h-55c0 37.333 -0.333008 53.666 -1 48.999
c0.666992 4.66699 10.334 7 29.001 7c-8.66699 0 -13 -9 -13 -27c2.66699 0 4 7.66699 4 23s3 23 9 23s15 -6.33301 27 -19v55c55.333 18.667 101.333 32.334 138 41.001c0 34.667 1.33301 52 4 52c-0.666992 0 5.83301 -1.66699 19.5 -5s28.834 -5 45.501 -5
c16 30.667 39.333 53.667 70 69c18 8.66699 50.333 22.334 97 41.001c0 18 9 27 27 27c4.66699 26.667 9.66699 52.667 15 78c2.66699 3.33301 25.334 5 68.001 5v56c8.66699 18 31.334 36.333 68.001 55v28c9.33301 8.66699 28 13 56 13
c8.66699 36.667 22.334 82.667 41.001 138c9.33301 46 23.333 106 42 180h27c0 0.666992 1.5 8.83398 4.5 24.501s4.5 28.5 4.5 38.5c0 22 -7.66699 33 -23 33l-55 27l-41 -82l-14 14l-42 -42c-8 8 -17.333 12.667 -28 14c-18 -9.33301 -31 -17 -39 -23
c-13.333 -8.66699 -23 -19.667 -29 -33c-54.667 0 -91.667 -4.33301 -111 -13c-18 -18 -27 -32 -27 -42c-8.66699 9.33301 -18 14 -28 14c-8.66699 0 -22.334 -9 -41.001 -27c-9.33301 8.66699 -14 22.334 -14 41.001c0 9.33301 4.66699 14 14 14
c-18 8.66699 -45.333 13 -82 13c-19.333 0 -47.333 -9 -84 -27c-8.66699 9.33301 -22.334 14 -41.001 14l-42 42v27c-18 9.33301 -45.333 14 -82 14c-9.33301 0 -14 -9.33301 -14 -28v42c-57.333 28 -86 77.333 -86 148c0 9.33301 0.5 19 1.5 29s1.5 15.333 1.5 16
c-18 0 -27 -9.33301 -27 -28l-28 55c0 18.667 9.33301 37 28 55c27.333 0 50.333 -4.33301 69 -13c0 -18 12.333 -42 37 -72l60 -67c8.66699 -13.333 27 -36 55 -68h41l27 -55c28 8.66699 69.333 13 124 13c18.667 -8.66699 51 -22.334 97 -41.001v28
c36.667 18 73.334 27 110.001 27v41c18.667 9.33301 46.334 14 83.001 14c0 27.333 9 50.666 27 69.999c0 8.66699 9.33301 13 28 13c0 18.667 9 37 27 55l42 42h28c0 18 4.66699 27 14 27c0 46.667 9.33301 106.667 28 180c-18.667 0 -28 -4.66699 -28 -14
c-9.33301 18 -14 36.333 -14 55c18 18 27 37.667 27 59c0 16 -4.33301 28.333 -13 37c-18 -18 -27 -31.333 -27 -40l-28 55c-19.333 54.667 -29 91.334 -29 110.001h-40c-10 8.66699 -15 22.667 -15 42c-54.667 0 -95.667 -5 -123 -15
c-8.66699 8.66699 -13.334 18 -14.001 28c0 9.33301 4.66699 14 14 14c-9.33301 8.66699 -14 22.334 -14 41.001c-46 9.33301 -110.333 14 -193 14c0 18.667 4.33301 32.334 13 41.001c0 9.33301 9.33301 14 28 14c0 -4.66699 4.66699 -13.667 14 -27
c0 26.667 9.33301 49.334 28 68.001c0 -4 4.33301 -13.333 13 -28c0 18.667 9.33301 28 28 28l83 -41h68c0 -4.66699 5 -13.667 15 -27c8.66699 0 31.334 -9.33301 68.001 -28c0 -28 23 -42 69 -42l55 -27c10 -23.333 28.333 -60 55 -110
c0 -18.667 9.33301 -46.334 28 -83.001c18 -18 45.667 -50.333 83 -97c0 -4.66699 -2 -12.5 -6 -23.5s-6 -20.5 -6 -28.5c0 -22 13.333 -46 40 -72v-42h28c-10.667 -14 -16 -29.667 -16 -47c0 -22.667 9.66699 -43.667 29 -63c-22 -22.667 -38.667 -34 -50 -34h-1v0
c2 4 14.667 -3 38 -21c-16 -46 -34.667 -133.333 -56 -262c-9.33301 -55.333 -14 -133.333 -14 -234c-25.333 -26 -43.666 -58.333 -54.999 -97c-18 -32 -27 -64.333 -27 -97c-28 -18.667 -60.333 -46.334 -97 -83.001c-18.667 -18 -28 -40.667 -28 -68
c-36.667 0 -59.667 -4.66699 -69 -14v-55c-32 0 -51.333 -3.66699 -58 -11c-16.667 -16 -29.334 -26.333 -38.001 -31c-9.33301 -8.66699 -14 -31.334 -14 -68.001h-41l-124 -84c-36.667 0 -92 -9.33301 -166 -28c-9.33301 0 -14 -9 -14 -27
c-27.333 0 -45.666 -4.33301 -54.999 -13zM253.995 1306c-18.667 18.667 -32.333 28 -41 28l-29 55c0 184 41.667 276 125 276c0 -36.667 4.66699 -64 14 -82l-42 -166l14 -14c-9.33301 -18 -23 -50.333 -41 -97zM349.996 1706c-8.66699 8.66699 -13.333 18.332 -14 28.999
c18.667 36.667 37 59.334 55 68.001c0 -18.667 4.66699 -37 14 -55c-18 -8.66699 -36.333 -22.667 -55 -42zM432.997 1735c-8.66699 18 -13 40.668 -13 68.001h40c-18 -18.667 -27 -41.334 -27 -68.001zM570.997 1762c-9.33301 8.66699 -14 22.333 -14 41
c-18 0 -36.333 -9.33301 -55 -28l-27 55c8.66699 10 27 15 55 15v27l55 -27v-83h-14z" />
    <glyph glyph-name="colon" unicode=":" horiz-adv-x="661" 
d="M116 1172c-16 -80.667 -48 -129 -96 -145c192 -319.333 368 -319.333 528 0c15.333 144 -49 232 -193 264h-47c-48 -48 -112 -87.667 -192 -119zM44 355c96 -80 184 -87.667 264 -23c96 -80.667 191.667 -121 287 -121l-71 48c47.333 96 71 192.333 71 289
c-63.333 144 -175 208 -335 192c-112 -128 -184 -256.333 -216 -385z" />
    <glyph glyph-name="semicolon" unicode=";" horiz-adv-x="546" 
d="M90 982c12.667 -75.333 38.332 -135.333 76.999 -180c126 -63.333 220.667 -44.333 284 57c12 145.333 -48 237 -180 275c-95.333 -19.333 -155.666 -70 -180.999 -152zM250.998 270c-69.333 -94.667 -101 -186.332 -95 -274.999c44.667 -12 86 -15 124 -9
c145.333 151.333 202.333 315.666 171 492.999c-44 120.667 -126.333 174.667 -247 162c-164 -146 -148.333 -269.667 47 -371z" />
    <glyph glyph-name="semicolon" unicode="&#x37e;" horiz-adv-x="546" 
d="M90 982c12.667 -75.333 38.332 -135.333 76.999 -180c126 -63.333 220.667 -44.333 284 57c12 145.333 -48 237 -180 275c-95.333 -19.333 -155.666 -70 -180.999 -152zM250.998 270c-69.333 -94.667 -101 -186.332 -95 -274.999c44.667 -12 86 -15 124 -9
c145.333 151.333 202.333 315.666 171 492.999c-44 120.667 -126.333 174.667 -247 162c-164 -146 -148.333 -269.667 47 -371z" />
    <glyph glyph-name="less" unicode="&#x3c;" horiz-adv-x="1270" 
d="M322 567c9.33301 -11.333 26.3369 -29.6699 51.0039 -55.0029l79.5 -81l80.5 -80c25.333 -24.667 43.666 -41.334 54.999 -50.001c1.33301 -2 6.66602 -5.33301 15.999 -10l31 -15l31 -15c9.33301 -4.66699 15.666 -7.66699 18.999 -9
c1.33301 -1.33301 4.66602 -9 9.99902 -23s9.66602 -22.667 12.999 -26c1.33301 0 5.83301 -1 13.5 -3s16.5 -4.16699 26.5 -6.5l31.5 -7c11 -2.33301 19.5 -4.5 25.5 -6.5l10.5 -1c7 -0.666992 11.833 -1 14.5 -1c9.33301 0 19.5 3.16699 30.5 9.5s21.5 14.5 31.5 24.5
s18 20.667 24 32s9 22.333 9 33c0 2 -3.83301 6 -11.5 12s-12.167 10 -13.5 12c-22 29.333 -39.5 50.5 -52.5 63.5s-25.333 23.333 -37 31l-39 25.5c-14.333 9.33301 -35.5 25.333 -63.5 48l-72 72c-14 10.667 -36 23.334 -66 38.001s-60 30.5 -90 47.5
s-56.167 34.833 -78.5 53.5s-33.5 37 -33.5 55c0 28 12 55.167 36 81.5s54 52.5 90 78.5s74.833 52.167 116.5 78.5s80.667 53 117 80s66.5 55.167 90.5 84.5s36 59.333 36 90c0 28 -5.5 45 -16.5 51s-29.5 9 -55.5 9c-23.333 0 -50 -5.33301 -80 -16s-60 -24.167 -90 -40.5
s-58.167 -34.5 -84.5 -54.5s-46.5 -39.333 -60.5 -58c-2.66699 -2.66699 -6.66699 -10.667 -12 -24s-9.66602 -21.5 -12.999 -24.5s-10.666 -10.333 -21.999 -22s-24 -24 -38 -37s-26.833 -25.667 -38.5 -38s-18.834 -20.166 -21.501 -23.499
c-2 -2.66699 -4.83301 -8.66699 -8.5 -18s-8.16699 -19.333 -13.5 -30l-15 -31c-4.66699 -10 -8 -16 -10 -18c-13.333 -15.333 -25.833 -26.833 -37.5 -34.5s-22.167 -15 -31.5 -22s-16.666 -16.167 -21.999 -27.5s-8 -28.666 -8 -51.999
c0 -3.33301 0.333008 -9.16602 1 -17.499l1 -12.5c2 -3.33301 6.33301 -7.33301 13 -12s14.334 -9.66699 23.001 -15s16.5 -9.83301 23.5 -13.5s11.167 -6.5 12.5 -8.5c3.33301 -2.66699 7.66602 -10.667 12.999 -24s9.5 -21.5 12.5 -24.5s10.667 -7.5 23 -13.5
s20.166 -9 23.499 -9z" />
    <glyph glyph-name="equal" unicode="=" horiz-adv-x="1070" 
d="M697 892c-95.333 40.667 -177.003 40.666 -245.003 -0.000976562c-67.333 20 -128.333 16.333 -183 -11c-176.667 20.667 -214 -40.333 -112 -183c13.333 13.333 20 27 20 41l11 -21c54 20.667 101.333 14 142 -20c40.667 20.667 81.334 24 122.001 10l11 31
c20 -61.333 47 -75 81 -41l41 -41c40.667 -6.66699 64.334 7 71.001 41h41c26.667 -27.333 57 -41 91 -41l21 41l-10 -41h50l-30 -10c-34 0 -61.333 -3.33301 -82 -10c-81.333 13.333 -147.333 15 -198 5s-69.334 2 -56.001 36c-122 -40.667 -227.333 -51 -316 -31
c-74.667 -74.667 -115.334 -156 -122.001 -244c74.667 0 132.334 17 173.001 51l102 -41c54 6.66699 98 20.334 132 41.001c14 -14 31 -21 51 -21c54.667 -20 102.334 -23.333 143.001 -10l41 -41l40 41c40.667 -34 81.334 -37.333 122.001 -10c34 -40.667 68 -44 102 -10
l31 -21c54 116 20 190.667 -102 224c196.667 170 152.667 282 -132 336zM507.997 -148.001c-5.33301 -8 -2.66699 -12 8 -12z" />
    <glyph glyph-name="greater" unicode="&#x3e;" horiz-adv-x="1249" 
d="M878.5 587c12.333 6 19.998 10.5029 22.998 13.5029s7.33301 11.167 13 24.5s9.83398 21.333 12.501 24c2 2 6.33301 4.83301 13 8.5s14.334 8.16699 23.001 13.5l23.5 15c7 4.66699 11.167 8.66699 12.5 12l1 12.5c0.666992 8.33301 1 14.166 1 17.499
c0 23.333 -2.66699 40.666 -8 51.999s-12.666 20.5 -21.999 27.5s-19.666 14.333 -30.999 22s-24 19.167 -38 34.5c-1.33301 2 -4.33301 8 -9 18s-9.83398 20.333 -15.501 31s-10.334 20.667 -14.001 30s-6.16699 15.333 -7.5 18l-22.5 23.5
c-11.667 12.333 -24.334 25 -38.001 38l-38 37l-22 22c-3 3 -7.16699 11.167 -12.5 24.5s-9.66602 21.333 -12.999 24c-14 18.667 -34.167 38 -60.5 58s-54.5 38.167 -84.5 54.5s-60 29.833 -90 40.5s-56.667 16 -80 16c-26 0 -44.333 -3 -55 -9s-16 -23 -16 -51
c0 -30.667 11.833 -60.667 35.5 -90s53.667 -57.5 90 -84.5s75.333 -53.667 117 -80s80.667 -52.5 117 -78.5s66.333 -52.167 90 -78.5s35.5 -53.5 35.5 -81.5c0 -18 -11.167 -36.333 -33.5 -55s-48.5 -36.5 -78.5 -53.5s-60 -32.833 -90 -47.5s-52 -27.334 -66 -38.001
l-72 -72c-27.333 -22.667 -48.333 -38.667 -63 -48l-39.5 -25.5c-11.667 -7.66699 -24 -18 -37 -31s-30.5 -34.167 -52.5 -63.5c-1.33301 -2 -5.83301 -6 -13.5 -12s-11.5 -10 -11.5 -12c0 -10.667 3.16699 -21.667 9.5 -33s14.5 -22 24.5 -32s20.333 -18.167 31 -24.5
s20.667 -9.5 30 -9.5c2.66699 0 7.5 0.333008 14.5 1l10.5 1c6.66699 2 15.334 4.16699 26.001 6.5l31 7c10 2.33301 18.833 4.5 26.5 6.5s12.167 3 13.5 3c3.33301 3.33301 7.66602 12 12.999 26s9 21.667 11 23l18 9l31.5 15c11.667 5.33301 22 10.333 31 15
s14.5 8 16.5 10c10.667 8.66699 28.667 25.334 54 50.001l81 80l80 81c24.667 25.333 41.667 43.666 51 54.999c2.66699 0 10.167 3 22.5 9z" />
    <glyph glyph-name="question" unicode="?" horiz-adv-x="1190" 
d="M392 1829c-214 9.33301 -325.667 -83.6689 -335 -279.002c-18.667 -84 14 -116.667 98 -98c28 -37.333 46.667 -74.666 56 -111.999c65.333 28 125.666 46.667 180.999 56l28 70c-37.333 130.667 -32.666 256.334 14.001 377.001l98 -98
c9.33301 46.667 9.33301 88.667 0 126l-84 14zM644 1731c65.333 -18.667 126.001 -18.668 182.001 -0.000976562c28 -46 65 -73.667 111 -83c0 -46.667 14 -84 42 -112l-56 -70l56 -98l-70 -70c-242 -84 -400.333 -237.667 -475 -461l28 -84
c9.33301 -74.667 46.666 -126 111.999 -154c46.667 18.667 88.667 28 126 28l-42 56c65.333 65.333 74.666 140 27.999 224c112 0 149.333 46.667 112 140l70 -56c27.333 28 41 56 41 84c74.667 64.667 121.334 139 140.001 223c84 46.667 109.667 121.334 77 224.001
s-91 167.667 -175 195c-46 74.667 -106.333 126 -181 154c-93.333 -9.33301 -135.333 -56 -126 -140zM336.001 179.997l28.001 -28c18.667 -65.333 46.667 -121 84 -167c46.667 -9.33301 88.667 -0.333008 126 27c121.333 -64.667 191.333 -36.667 210 84
c-9.33301 177.333 -98 289.333 -266 336c-102.667 -56 -163.334 -140 -182.001 -252z" />
    <glyph glyph-name="at" unicode="@" horiz-adv-x="2356" 
d="M1564 1339c27.333 6 46.3311 -5.66895 56.998 -35.002v-57l-45 -7c-15.333 0 -28 2.33301 -38 7l-24 21l-35 33l-52 57c-15.333 14.667 -41 22 -77 22c-22 50.667 -54 76 -96 76c-18 0 -33.667 -3.33301 -47 -10l-53 -13l-55 -5c-26 0 -52.333 3.66699 -79 11l-33 31
c-6.66699 5.33301 -21.334 8 -44.001 8c-26.667 -52 -63.667 -80.667 -111 -86c-24 0 -45.333 -4.33301 -64 -13c-12 -5.33301 -21.333 -10.166 -28 -14.499s-16.334 -12.166 -29.001 -23.499c-14.667 15.333 -32 23 -52 23c-19.333 0 -34.333 12 -45 36
c34.667 46.667 82.334 70 143.001 70c58.667 0 108.334 21.667 149.001 65l75 -15l92 -6l81 -1h83c28.667 0 52.334 -3.33301 71.001 -10c16.667 -2.66699 28.667 -6 36 -10l39 -16c46 -18.667 86.667 -57 122 -115c14.667 -19.333 34.334 -27 59.001 -23zM539.998 1205
l-105.996 -121.002c-37.333 -37.333 -68 -79.666 -92 -126.999c-11.333 -22 -17 -48 -17 -78l3 -44l13 -46c-34.667 -35.333 -52 -71.666 -52 -108.999c0 -33.333 5.66699 -70.333 17 -111l33 -120l9 -63c0 -21.333 -1 -34.333 -3 -39l-4 -20l193 -215
c63.333 -66.667 139 -128.667 227 -186c22.667 18 44.667 27 66 27c17.333 0 36 -6.5 56 -19.5s41 -19.5 63 -19.5c12 0 27.333 4 46 12c33.333 -11.333 66 -17 98 -17c52 0 102.333 17.667 151 53c62.667 40.667 139 86.667 229 138c60 43.333 104.667 96.5 134 159.5
s74.666 111.5 135.999 145.5l1 -19v-19c0 -97.333 -41.667 -180.333 -125 -249c-96.667 -75.333 -183.334 -139.333 -260.001 -192c-22.667 18 -41 27 -55 27c-9.33301 0 -20 -7.66699 -32 -23c-10.667 -36 -33 -62 -67 -78l-55 7c-30 0 -61.667 -7.33301 -95 -22l-35 -7
c-30.667 0 -58 26 -82 78c-11.333 -38.667 -42.333 -58 -93 -58h-28h-19c-8.66699 2 -17.834 3.5 -27.501 4.5s-23.834 6.16699 -42.501 15.5c-26.667 33.333 -59.667 60.333 -99 81l-114 48c-38 15.333 -71.333 36.333 -100 63c-26 22 -43.667 60 -53 114
c-37.333 30 -69 63.5 -95 100.5s-39 79.833 -39 128.5c11.333 22 17 43.667 17 65l-4 29c-7.33301 32.667 -17.333 63.667 -30 93l-27 92c-4 32.667 4.66699 67.667 26 105c23.333 23.333 35 50.666 35 81.999c0 16.667 -5.66699 39.334 -17 68.001
c25.333 37.333 44 83 56 137c10 50 49.333 75 118 75c19.333 15.333 37 35.333 53 60l15 36l6 50c0 49.333 21.667 74 65 74c18 0 34.667 -3 50 -9c0 -64.667 -16 -117 -48 -157zM1683 1074c0 -29.333 6.33301 -54.001 19 -74.001c24 -41.333 36 -88.666 36 -141.999l-25 -1
c-21.333 0 -37 7.33301 -47 22c-7.33301 16 -11 37 -11 63l1 74c0 24.667 -11.667 43 -35 55c0 24.667 5.33301 46 16 64c3.33301 11.333 14 18 32 20l28 -6zM1058 1053h-33.999c-6.66699 0 -13.667 4.33301 -21 13l-5 19v7c0 7.33301 3.66699 11 11 11
c11.333 0 21.666 8.33301 30.999 25c14.667 -14.667 27.667 -21 39 -19c0 -30 -7 -48.667 -21 -56zM1392 1077c0 -30 -12.665 -53.333 -37.998 -70c-10 -4.66699 -17 -15.667 -21 -33c0 -14.667 12.333 -34.334 37 -59.001c3.33301 -34 -4.66699 -66.333 -24 -97l-60 -84
c-18.667 -25.333 -33.667 -53.333 -45 -84l-2 -21c0 -25.333 10.667 -52.333 32 -81c0 -46.667 -16.333 -90 -49 -130c-11.333 -14.667 -17 -29 -17 -43c0 -20 22 -40 66 -60l4 -19c-1.33301 -4 -2.33301 -7.5 -3 -10.5s-3.33398 -7.83301 -8.00098 -14.5l-31 -32l-39 -3
c-23.333 0 -43.666 4.33301 -60.999 13c-27.333 14.667 -52.333 36.667 -75 66l-2 30l2 33c3.33301 23.333 -2.66699 41 -18 53c-38.667 0 -73.667 -15.333 -105 -46l-81 -88c-22 -26 -50.333 -46.333 -85 -61l-32 -5c-22 0 -49.667 9 -83 27c-58.667 32 -88 71.667 -88 119
l4 32c8 24.667 12 48.667 12 72c0 30.667 -9 60 -27 88c23.333 49.333 42.333 106.833 57 172.5s60.667 98.5 138 98.5c4 42.667 16.167 83.5 36.5 122.5s53.166 69.167 98.499 90.5c14.667 -19.333 22 -38.666 22 -57.999c0 -9.33301 -3.66699 -23.333 -11 -42
c-14.667 -25.333 -24.667 -57 -30 -95c-56 -68.667 -97.333 -148.667 -124 -240c-10.667 -40 -16 -74 -16 -102c0 -54.667 14 -108 42 -160c47.333 14.667 95.666 44.667 144.999 90c32.667 32.667 68 49 106 49l39 -6c0 134 52.333 251 157 351l-29 70l-21 89
c-7.33301 59.333 22 102.333 88 129h43l28 2c26 3.33301 47.333 -3.66699 64 -21zM1741 788.995v-9c0 -12.667 -9.66699 -27.334 -29 -44.001c-19.333 -11.333 -31 -22.666 -35 -33.999l-18 -18c-26.667 11.333 -40 26 -40 44l5 23c16 32 33.667 54.667 53 68
c28 0 48.333 -6.33301 61 -19zM1644 547.995c0 -42.667 -19.667 -81.667 -59 -117c-50 -40 -89.667 -78.667 -119 -116c-21.333 0 -49.333 -11.333 -84 -34l-25 -10c-14.667 0 -29.667 14.667 -45 44c14 16 35.5 34 64.5 54s62.5 40.667 100.5 62
c69.333 34.667 104 93 104 175l32 -1c4 -2 8 -4.16699 12 -6.5s9 -5.83301 15 -10.5z" />
    <glyph glyph-name="A" unicode="A" horiz-adv-x="1726" 
d="M792 1875l-71.0049 -114.003c-9.33301 -46.667 -4.66602 -84.334 14.001 -113.001c-28 -19.333 -42 -47.666 -42 -84.999l-29 -71c-47.333 -113.333 -61.333 -212.666 -42 -297.999c-66 -76 -90 -161 -72 -255c-46.667 -28.667 -84 -57 -112 -85l27 -71v-43l-27 -28
c-28.667 -38 -52.667 -90 -72 -156l14 -43l-14 -28c-47.333 -104 -80.333 -193.667 -99 -269c-56.667 37.333 -137 4.33301 -241 -99c113.333 -123.333 236.333 -133 369 -29c103.333 -85.333 188.333 -99.666 255 -42.999c56.667 -28 94.334 -13.667 113.001 43
c19.333 28.667 14.666 52.334 -14.001 71.001c-28 38 -46.667 38 -56 0c-38.667 47.333 -58 94.666 -58 141.999c-18 -28.667 -27 -57 -27 -85l-100 113c28 66 37.333 127.333 28 184c9.33301 -47.333 33.333 -71 72 -71c28 76 75 99.667 141 71
c76 -47.333 109 -113.333 99 -198c123.333 38 128.333 80.333 15 127c56.667 47.333 108.334 75.666 155.001 84.999c66.667 -28 81 -75 43 -141c94.667 -47.333 123 -90 85 -128h-99c-113.333 -207.333 -42.333 -287.666 213 -240.999c170 -66 311.667 -52 425 42
c9.33301 48 4.66602 90.667 -14.001 128c-47.333 66.667 -89.666 76.334 -126.999 29.001l-15 28c-104 104 -179.667 208 -227 312l29 29v85l-29 27c-9.33301 76 -33 142.333 -71 199c0 85.333 -18.667 156.333 -56 213c-104.667 -76 -114.334 -142.333 -29.001 -199
c-66 -46.667 -84.667 -103.334 -56 -170.001c-57.333 -9.33301 -114.333 -4.33301 -171 15c-18.667 -10 -28 -19.667 -28 -29l-43 71c-46.667 -47.333 -89 -75.666 -127 -84.999c-28.667 38 -61.667 61.667 -99 71l42 14c-37.333 132 -4.33301 240.667 99 326
c-37.333 38 -65.666 76 -84.999 114l43 28c38 38 57 85.333 57 142c56.667 47.333 99 94.333 127 141l71 -42c0 -38 14 -66.333 42 -85c-18 -66 1.33301 -103.667 58 -113c-38.667 -76 -34 -137.667 14 -185c8.66699 38 27.334 76 56.001 114
c-37.333 75.333 -56 146 -56 212l-72 14c38.667 47.333 48.334 99.333 29.001 156l-29 29c-66 -19.333 -127.333 -24.333 -184 -15c38 28.667 52.333 66.667 43 114c122.667 -85.333 151 -47.333 85 114c-47.333 28 -94.666 37.333 -141.999 28zM54.9951 938.997
c-38.667 -66 -29.667 -80.333 27 -43zM54.9951 584.997c18 46.667 8.33301 89 -29 127c0 -56.667 9.66699 -99 29 -127zM748.995 356.997h-42c9.33301 -56.667 23.333 -56.667 42 0z" />
    <glyph glyph-name="B" unicode="B" horiz-adv-x="1594" 
d="M424 1865c-44.667 -81.333 -85.333 -86.001 -122 -14.001c-44.667 -8.66699 -81 -26.667 -109 -54c18.667 -91.333 59.667 -100.333 123 -27l68 -54l40 -123c-18 -81.333 -8.66699 -163 28 -245c-63.333 -144.667 -72.666 -289.667 -27.999 -435h82l-82 -27l14 -41
c-18 -108.667 -13.333 -212.667 14 -312h-55c-26.667 -55.333 -31 -110 -13 -164c-36 -54 -54 -103.667 -54 -149c-45.333 0 -63.666 -18 -54.999 -54c-100 90 -177 80.667 -231 -28c81.333 -99.333 154 -108.333 218 -27c117.333 -99.333 262 -135.666 434 -108.999
c54.667 9.33301 91 41 109 95c27.333 -8.66699 36.666 -31.334 27.999 -68.001l135 28l28 -41c208 0 298.333 40.667 271 122c54.667 18.667 104.667 14 150 -14l68 164c136 298.667 77 520.667 -177 666c9.33301 90.667 45.666 145 108.999 163l-28 27l41 122l-27 95v218
c-18 45.333 -49.667 72.333 -95 81l-68 83l-40 81l-83 -14c-90 36.667 -166.667 55 -230 55c-27.333 -36.667 -50.333 -64 -69 -82c-44.667 54.667 -98.667 68.334 -162 41.001c-36 36 -67.667 54 -95 54c-18 -54 -63.667 -58.333 -137 -13zM860.001 1701
c63.333 18.667 108.667 41.6641 136 68.9971l81 -69c108.667 36.667 181.334 -62.666 218.001 -297.999l-14 -55c-72 -63.333 -126.667 -122 -164 -176c-36 18 -67.333 27 -94 27c-45.333 -54.667 -90.666 -73 -135.999 -55l-69 -82c-99.333 64 -198.666 82.333 -297.999 55
c9.33301 27.333 4.66602 59 -14.001 95l-14 -95c0 54.667 -18 91 -54 109c72.667 8.66699 100 49.334 82 122.001c9.33301 36.667 0 64 -28 82l-54 -14c100 144.667 95.333 226 -14 244c73.333 18.667 137 5.33398 191 -39.999c18 36 27 72.333 27 109
c27.333 -64 54.666 -55 81.999 27c44.667 -54.667 71.667 -50 81 14c27.333 -9.33301 45.666 -32.333 54.999 -69zM778.002 980.996c72.667 -81.333 163.333 -117.666 272 -108.999c72.667 -54 145 -67.333 217 -40c9.33301 -109.333 50 -173 122 -191l-27 -95
c-54 -126.667 -131 -226.334 -231 -299.001h-41c-72 -8.66699 -135 -26.667 -189 -54c-55.333 36 -141.666 40.667 -258.999 14c-90.667 126 -113.334 248 -68.001 366c-63.333 145.333 -67.666 281.333 -12.999 408c81.333 -63.333 153.666 -63.333 216.999 0z" />
    <glyph glyph-name="C" unicode="C" horiz-adv-x="1454" 
d="M806 1906c-35.333 -8.66699 -66.3291 -26.001 -92.9961 -52.001l-26 39c-70.667 -35.333 -110.334 -88 -119.001 -158c79.333 -17.333 149.666 -17.333 210.999 0c18 -44 27 -83.333 27 -118c105.333 8.66699 188.666 -31 249.999 -119c0 -124 22 -234.333 66 -331
l27 -66c70 35.333 127 75 171 119c-34.667 114.667 -43.334 220.334 -26.001 317.001c62 97.333 70.667 194 26 290c-114 26.667 -219.333 31 -316 13l-172 93zM185.004 1445c-105.333 -35.333 -136 -106 -92 -212c-70.667 -122.667 -48.667 -192.667 66 -210
c-18 96 4 175 66 237c-17.333 52.667 -26 96.667 -26 132c96.667 70.667 167 145.667 211 225c17.333 61.333 -9 92 -79 92c-141.333 -123.333 -190 -211.333 -146 -264zM1506 1299c34.667 70.667 21.334 114.667 -39.999 132c-26.667 -61.333 -13.334 -105.333 39.999 -132
zM53.0039 916.999l27 -105.997c0 -106 8.66699 -194 26 -264h40c-35.333 -140.667 17.334 -246.334 158.001 -317.001c-8.66699 -35.333 -8.66699 -66 0 -92c105.333 8.66699 175.666 -31 210.999 -119c26.667 26 57.334 43.667 92.001 53
c-17.333 -26.667 -21.666 -53.334 -12.999 -80.001c97.333 8.66699 176.666 22 237.999 40l40 -40l13 80c96.667 -62 202 17.333 316 238c70.667 8.66699 93 48 67 118c123.333 114 154 246 92 396l-106 27c-166.667 -114.667 -285.334 -251.334 -356.001 -410.001
c-52.667 -43.333 -92.334 -82.666 -119.001 -117.999c-61.333 -8.66699 -114 -26.334 -158 -53.001c-211.333 70.667 -325.666 198 -342.999 382c-79.333 70.667 -119 159 -119 265c-26.667 26 -57.667 39 -93 39z" />
    <glyph glyph-name="D" unicode="D" horiz-adv-x="1661" 
d="M981 0l0.000976562 15.999h-48c0 29.333 -7.66699 48.333 -23 57c-9.33301 5.33301 -28.666 8 -57.999 8c-10.667 -11.333 -16 -33 -16 -65c-43.333 22 -76 33 -98 33c-106 21.333 -180.667 32 -224 32c0 -21.333 5.33301 -43 16 -65h-32
c-11.333 10.667 -17 26.667 -17 48c0 11.333 5.66699 17 17 17c-43.333 10.667 -97 16 -161 16h-65c-85.333 0 -144.333 -5.33301 -177 -16c-20.667 10.667 -42 26.667 -64 48c0 70.667 8.33301 106 25 106c2 0 6.16699 -0.5 12.5 -1.5s11.833 -1.5 16.5 -1.5
c13.333 0 27.333 3 42 9c5.33301 0 16.333 -5 33 -15c0 41.333 6.66699 62 20 62c2.66699 0 8.66699 -1 18 -3s17.666 -3 24.999 -3c11.333 0 22.333 2.33301 33 7c10.667 0 26.667 -10.333 48 -31c11.333 10.667 27.333 16 48 16c11.333 32 27.666 69 48.999 111
c0 151.333 5.33301 259 16 323l-16 16c6.66699 24 14 48 22 72c6 16 25.333 24 58 24c-9.33301 10.667 -19.666 16.334 -30.999 17.001c0 10.667 5 16 15 16c-21.333 64 -32 106.667 -32 128c0 64 5.66699 107 17 129c-27.333 26.667 -41 53.667 -41 81
c0 12.667 2.66699 23.667 8 33l16 -18c11.333 22 27.333 44 48 66v63c-34 35.333 -51 73.333 -51 114c0 29.333 6.66699 50.333 20 63c0 11.333 10.333 17 31 17h-31c-22 86 -33 139.333 -33 160c-10.667 0 -16 -10.333 -16 -31c-21.333 20.667 -32 36.667 -32 48v48
c-11.333 0 -17 -5.33301 -17 -16l-15 16c-10.667 -10.667 -16 -26.667 -16 -48c-10.667 9.33301 -21.334 14.333 -32.001 15c-32 0 -59 -10.667 -81 -32c-10 11.333 -15 27.666 -15 48.999c0 32.667 5 54 15 64h129c10 22 36.667 43.333 80 64l64 -31v31
c11.333 11.333 27.666 17 48.999 17c53.333 0 96 -5.66699 128 -17c0 11.333 10.667 17 32 17c26 12 49.667 18 71 18c38.667 0 58 -22 58 -66c0 26.667 13.333 40 40 40c7.33301 0 21.333 -1.5 42 -4.5s36.334 -4.5 47.001 -4.5c0 -5.33301 5.33301 -15.666 16 -30.999v31
h48v-31h49l48 -146c-10.667 11.333 -26.667 17 -48 17h-128v32c-22 0 -38 -5.66699 -48 -17c-20 0 -33.667 -4.33301 -41 -13s-10.666 -13 -9.99902 -13c-3.33301 0.666992 -8.33301 4.33398 -15 11.001c-48 -16 -85.333 -37.667 -112 -65c-11.333 11.333 -17 27.333 -17 48
c-21.333 21.333 -37.333 32 -48 32v49c-7.33301 0 -17.666 9.66699 -30.999 29c-0.666992 -2 -1 -11.667 -1 -29c-32 0 -58.667 -10.667 -80 -32c-8 -43.333 8.33301 -65 49 -65c10 -21.333 26 -64 48 -128c-11.333 0 -17 -11 -17 -33l48 -48l-48 -48
c-10.667 10.667 -26.667 16 -48 16c-10.667 -21.333 -16 -64.333 -16 -129c0 11.333 11 27.666 33 48.999c0 -21.333 10.333 -64 31 -128h-112c-11.333 0 -17 -11 -17 -33l17 -16c1.33301 0 7.5 2.83301 18.5 8.5s21.5 8.5 31.5 8.5c19.333 0 40 -11.333 62 -34
c0 22 10.667 33 32 33v-48h-32c-10.667 -54 -16 -134.667 -16 -242c-10 -10.667 -26 -37.667 -48 -81c35.333 -34.667 53 -58.667 53 -72c0 -12.667 -6.66699 -26 -20 -40v-48v0v-113h31c-10.667 -22 -16 -54 -16 -96c0 -76 21.333 -135 64 -177l98 -48c20 10 52 15 96 15
c22 0 38 -5 48 -15v32c32 20.667 91 42 177 64c34 51.333 77 94.333 129 129c0 86 42.667 129 128 129v144c22 43.333 38 70.333 48 81c0 96 5.66699 165.667 17 209c-21.333 22 -32 38 -32 48v241h-33c-10.667 43.333 -26.667 97 -48 161
c-10.667 10 -21.334 15.667 -32.001 17c-22 64 -33 106.667 -33 128c-21.333 10.667 -48 16 -80 16c21.333 42.667 37.333 69.667 48 81h49c0 -14 8 -24.333 24 -31c25.333 -10 44 -21.333 56 -34c0 -32 5.33301 -59 16 -81h65c10.667 -16 32 -42.333 64 -79v-81h32v-48
c24.667 -25.333 37 -44 37 -56c0 -13.333 -7 -27.333 -21 -42l33 -30c-11.333 0 -17 -11 -17 -33h49c0 -32 5.33301 -59 16 -81c-10.667 0 -16 -5 -16 -15c0 -22 10.333 -65 31 -129c-20.667 -107.333 -31 -188 -31 -242c-21.333 -22 -32 -38 -32 -48
c-11.333 -22 -17 -54 -17 -96c-21.333 0 -32 -11 -32 -33c0 -4.66699 5.33301 -15.667 16 -33c-42.667 -86 -74.667 -155.333 -96 -208c-28.667 -14 -50.334 -35.667 -65.001 -65c-10.667 -10 -16 -36.667 -16 -80c-40.667 0 -72 -8.66699 -94 -26
c-12 -12 -23.333 -24.667 -34 -38c-32 0 -53.667 -5.33301 -65 -16v-49c-32 0 -69.333 -10.667 -112 -32l-17 16c-20.667 0 -31 -5.33301 -31 -16zM450.001 513.999c-11.333 32.667 -17 81.333 -17 146c0 10.667 5.66699 16 17 16v-64h31c-10.667 0 -16 -10.667 -16 -32
c-10 0 -15 -5.66699 -15 -17h15c-10 -10.667 -15 -27 -15 -49z" />
    <glyph glyph-name="E" unicode="E" horiz-adv-x="1650" 
d="M976 -44c-10.667 21.333 -26.9922 42.9971 -48.9922 64.9971c-10.667 0 -16 -5 -16 -15c-22.667 10 -44.667 15 -66 15c-10 0 -15 -5 -15 -15v32c-22 -11.333 -49.333 -28 -82 -50c-10 10.667 -21 16.667 -33 18c-10.667 0 -16 -6 -16 -18
c-21.333 12 -53.666 18 -96.999 18l-16 15c-43.333 0 -76 -5 -98 -15c-65.333 21.333 -103.333 32 -114 32s-27 -10.667 -49 -32c-10 9.33301 -15.333 20 -16 32c-10.667 0 -27 -10.667 -49 -32c-21.333 10 -48.666 15 -81.999 15c-10 0 -15 -5 -15 -15
c-33.333 10 -82.333 15 -147 15c-10.667 0 -16 -5 -16 -15v194h32c0 32.667 5.66699 54.334 17 65.001c21.333 0 53.666 -10.667 96.999 -32c0 52 9.16699 89.5 27.5 112.5l54.5 66.5c-11.333 32 -17 69.667 -17 113c21.333 43.333 37.666 70.333 48.999 81v-81
c0 11.333 11 17 33 17c-10.667 0 -16 -11 -16 -33c0 -32.667 5.33301 -60 16 -82c-10.667 0 -16 -5 -16 -15c10.667 -11.333 32 -28 64 -50v50c0 10 11 15 33 15h-33c-21.333 44 -32 76.667 -32 98h49v98c0 11.333 10.667 17 32 17h-32v130c0 10.667 10.667 16 32 16
c-10.667 32 -16 69.667 -16 113c0 10.667 5.33301 16 16 16h-32v99c-11.333 -22.667 -17 -55.667 -17 -99l-16 17v-49c-32 0 -59.333 -10.667 -82 -32c-15.333 32 -37 75 -65 129c0 20 4.83301 33.667 14.5 41s14.5 10.333 14.5 9c-1.33301 4 -5 9.33301 -11 16
c0 10 5 15 15 15c-9.33301 10.667 -20.333 16.667 -33 18c43.333 21.333 81.666 32 114.999 32c21.333 0 37.333 -5.66699 48 -17v-65h17c0 41.333 1.33301 63 4 65c9.33301 6 18.666 11.667 27.999 17l-32 65c0 16 -1.16699 34.667 -3.5 56s-3.5 34 -3.5 38
c0 24.667 18.333 37 55 37c-10.667 0 -16 -6 -16 -18l16 -15c0 32 6 53.667 18 65h47c-21.333 10 -48.333 15 -81 15c0 16.667 1.33301 32.167 4 46.5s4 22.833 4 25.5c0 12 -13.333 31.667 -40 59c-22 -43.333 -33 -75.666 -33 -96.999c-32 0 -53.667 -5.66699 -65 -17
c-21.333 22 -32 38.333 -32 49c0 43.333 10.667 86.666 32 129.999c6 0 17 -5.33301 33 -16c14 28.667 35.667 50 65 64v65c-22 -10 -43.667 -26 -65 -48c-10 10 -21 15.333 -33 16c-11.333 0 -17 -5.33301 -17 -16c-10 22 -15 49 -15 81c-21.333 0 -38 -5.33301 -50 -16
c-10 22 -15 43.667 -15 65c-33.333 0 -55.333 -5.66699 -66 -17l-65 33c11.333 22 27.666 43.667 48.999 65h97c12 -10.667 28.667 -37.667 50 -81c0 22 10.667 43.667 32 65c0 -21.333 5.66699 -37.666 17 -48.999c-11.333 22 -17 43.667 -17 65
c11.333 11.333 27.666 17 48.999 17v-115c5.33301 0 16 -5 32 -15c0 -5.33301 5.66699 -16.333 17 -33c-11.333 22 -17 49 -17 81v82h49v-17c22.667 22 39 33 49 33c11.333 0 49.333 -11 114 -33c22 22 43.667 33 65 33c43.333 10.667 114 16 212 16
c43.333 8.66699 65 -7.66602 65 -48.999c10.667 11.333 32.334 27.666 65.001 48.999c10.667 -10.667 37.667 -27 81 -49c21.333 22 37.666 33 48.999 33c10 0 48 -11 114 -33c64.667 22 118.667 33 162 33c0 -5.33301 5.33301 -16.333 16 -33
c10.667 11.333 27.334 17 50.001 17c21.333 0 37 -5.66699 47 -17c0 -32 5.66699 -59 17 -81c-11.333 0 -17 -10.667 -17 -32c22 0 38.667 -5.66699 50 -17v-227c-22 0 -38.667 -5.66699 -50 -17c22 0 38.667 -5.33301 50 -16c0 -76 5 -135.667 15 -179
c0 34 5.5 56.167 16.5 66.5s32.833 15.5 65.5 15.5c0 -21.333 5.33301 -43 16 -65c-21.333 0 -32 -5.66699 -32 -17c-10.667 -10.667 -16 -27 -16 -49c-43.333 22 -76 33 -98 33c-11.333 -10.667 -17 -32.334 -17 -65.001l-32 32c-22 0 -38.333 -5.33301 -49 -16
c-21.333 64.667 -32 108 -32 130h-33c0 44 11 109 33 195c-10 10 -21 15.667 -33 17c-37.333 0 -56 -3.66699 -56 -11c0 -0.666992 0.333008 -3.66699 1 -9s1 -10.333 1 -15c0 -14 -3.33301 -29.667 -10 -47c-11.333 22 -17 54.667 -17 98
c11.333 21.333 27.666 43 48.999 65c-21.333 10.667 -48.333 26.667 -81 48c-22 0 -43.667 -10.667 -65 -32l-17 17c-10 -11.333 -15 -28 -15 -50h-33v50c-21.333 0 -32 -11 -32 -33c-11.333 22 -28 43.667 -50 65c-64.667 -11.333 -151.334 -27.666 -260.001 -48.999v32
c-22 11.333 -43.667 17 -65 17v48c-10.667 0 -16 -5 -16 -15c-11.333 10 -27.666 15 -48.999 15c-10.667 0 -16 -5 -16 -15l32 -33c-32 0 -53.667 -5.66699 -65 -17c-4 -13.333 -13.333 -22.5 -28 -27.5s-22 -9.16699 -22 -12.5c0 -4 6 -12.333 18 -25
c-10.667 -10.667 -16 -37.667 -16 -81l16 -16c-22 -43.333 -33 -75.666 -33 -96.999v-115c11.333 -32 33 -80.667 65 -146c43.333 0 76 -5.66699 98 -17v-15c10.667 10 37.667 15 81 15c0 31.333 3.66699 47 11 47c6 0 13 -4.33301 21 -13c0 10.667 11 16 33 16
c0 -10.667 10.667 -27.334 32 -50.001c0 11.333 10.667 28 32 50c0 -5.33301 6 -16.333 18 -33c21.333 22 37.333 33 48 33c0 50 5 75 15 75c4.66699 0 10.667 -3.33301 18 -10v98c-22 -21.333 -33 -38 -33 -50h-32c0 12.667 -1.33301 27.167 -4 43.5s-4 26.166 -4 29.499
c0 17.333 13.333 26 40 26v32c11.333 10.667 27.666 16 48.999 16v-65h16v49h65l32 -32c0 -22.667 6 -44.667 18 -66c0 -22 10.667 -65.333 32 -130c-21.333 -87.333 -32 -163.333 -32 -228l15 -16c-22 -22 -33 -36 -33 -42c0 -15.333 11 -33.666 33 -54.999
c-16.667 -14.667 -25 -24.667 -25 -30c0 -18.667 14 -41.334 42 -68.001c-21.333 -22 -32 -43.667 -32 -65c0 -32 5 -59.333 15 -82c-10 -21.333 -26 -59 -48 -113h-66l-32 32c-10.667 22 -16 49 -16 81l-65 34c0 64.667 5.33301 113.334 16 146.001c0 10.667 11 16 33 16
h-33l-32 65h-147c-10.667 10.667 -16 26.667 -16 48c-11.333 -10.667 -17 -26.667 -17 -48h-146c-10.667 0 -16 -5.33301 -16 -16v48l-49 -48h49v-81c-10.667 0 -27 -11 -49 -33c-10.667 -43.333 -16 -108.333 -16 -195c-21.333 0 -37.666 -5.66699 -48.999 -17v65h-49v-65
c0 -5.33301 5.33301 -16 16 -32c22 21.333 43.667 32 65 32v-48l33 -33c43.333 0 81.333 -5.66699 114 -17c-21.333 -43.333 -32 -75.666 -32 -96.999l48 -49v-32c57.333 7.33301 106 -9 146 -49c33.333 10.667 87.666 27 162.999 49c11.333 0 27.666 -11 48.999 -33h113
l22.5 66c7 21.333 26.833 32 59.5 32v48h49c10.667 0 27 -10.667 49 -32c21.333 64.667 37.333 108 48 130h-16c-10.667 43.333 -16 103.333 -16 180l65 -34c0 32.667 10.667 70.667 32 114c22.667 11.333 66.334 28 131.001 50c0 -16 2.33301 -24 7 -24
c1.33301 0 3.83301 0.5 7.5 1.5s6.83398 1.5 9.50098 1.5c7.33301 0 15.666 -4 24.999 -12c-11.333 -21.333 -17 -59.333 -17 -114l65 -33c-26.667 -26.667 -48.334 -64.334 -65.001 -113.001c0 -33.333 11 -82.333 33 -147c0 21.333 5.33301 32 16 32l32 -32
c11.333 10.667 38.666 27.334 81.999 50.001v-228c-21.333 10.667 -43 16 -65 16c-11.333 32 -27.666 69.667 -48.999 113c-21.333 -21.333 -32 -37.333 -32 -48v32c-11.333 0 -17 -5.33301 -17 -16c0 -5.33301 5.66699 -16.333 17 -33c-22.667 -64.667 -34 -119 -34 -163
c-28.667 -14 -50.334 -35.667 -65.001 -65c-9.33301 10.667 -20 16.667 -32 18c-43.333 -22 -70.333 -38.667 -81 -50c-22 21.333 -33 38 -33 50c-10.667 0 -16 -6 -16 -18c-10 10.667 -20.667 16.667 -32 18c-22 0 -43.667 -11 -65 -33c-10.667 10 -27.334 15 -50.001 15
c-10 0 -15 -10.667 -15 -32c-10.667 10 -16.334 20.667 -17.001 32c-10 12 -26 18 -48 18c-11.333 0 -27.666 -11 -48.999 -33h-49c-10.667 0 -16 -5.66699 -16 -17zM1285.01 476.997c-10 9.33301 -15.333 19.999 -16 31.999c-22 0 -33 -5.33301 -33 -16
c0 32.667 11 59.667 33 81c0 -43.333 5.33301 -75.666 16 -96.999zM228.008 687.996l-32 32c0 33.333 5 55.333 15 66c44 0 76.667 -5.33301 98 -16c-10.667 -11.333 -16 -28 -16 -50c-22 0 -33 -10.667 -33 -32h-32zM293.008 1143c-10 10.667 -21 16.333 -33 17v81
c22 -22 38.333 -43.667 49 -65c-10.667 0 -16 -11 -16 -33zM813.008 1176c-10.667 21.333 -16 48.333 -16 81h-49v97h82v-178h-17zM1220.01 1257c-10.667 21.333 -16 48.667 -16 82c0 10 10.667 26.333 32 49c0 21.333 5.33301 37.333 16 48v-147
c-21.333 0 -32 -10.667 -32 -32zM1724.01 1307l-32 64c0 22 10.667 54.667 32 98v-162z" />
    <glyph glyph-name="F" unicode="F" horiz-adv-x="1620" 
d="M163 -50c-21.333 10.667 -43.332 27.333 -65.999 50c-21.333 -0 -37.666 -5.66699 -48.999 -17c-10.667 44 -16 99.333 -16 166c50.667 24.667 122 46.334 214 65.001c0 31.333 8.66699 47 26 47c7.33301 0 15.333 -4.33301 24 -13c0 11.333 11 27.666 33 48.999v431
c0 21.333 11 54 33 98c-10 10.667 -21 16.334 -33 17.001v298h33v83c14.667 14.667 22 29.334 22 44.001c0 7.33301 -2.33301 16.166 -7 26.499s-7 16.5 -7 18.5c0 7.33301 14 11 42 11c0 -11.333 11 -28 33 -50v99l51 50v49h48c-10 10.667 -21 16.667 -33 18
c0 22 5.66699 38 17 48c-44 0 -71.667 -5 -83 -15v49c-10.667 -10.667 -27.334 -38 -50.001 -82h-49c-11.333 44 -28 99 -50 165c33.333 0 61 -5.66699 83 -17c-10 10.667 -15.667 21.667 -17 33c0 22 11 33 33 33l-16 17h-165c-11.333 0 -28.333 -11 -51 -33l-66 33
c-32.667 0 -49 33 -49 99c0 22 10.667 33 32 33c23.333 -22 40.333 -44 51 -66l50 50c32.667 10.667 93 16 181 16c0 12 5.66699 18 17 18c44 0 83 -6 117 -18l98 50c0 -28 18.333 -42 55 -42c29.333 0 66.333 8.33301 111 25v-33c48.667 32.667 96.667 49 144 49
c26 0 49.667 -5.33301 71 -16v-33h116v33h82v-33c30.667 30.667 60.334 46 89.001 46c42.667 0 101.667 -26.333 177 -79c0 -10.667 11 -27.334 33 -50.001v-132c0 -22 5 -44 15 -66l17 -16c-11.333 -12 -17 -28.667 -17 -50l17 -16c-11.333 0 -17 -6 -17 -18
c0 -22 11.333 -55 34 -99l49 -248c-21.333 10.667 -43.333 27.334 -66 50.001c-11.333 0 -17 -11.333 -17 -34c-21.333 0 -43.333 -11 -66 -33c-21.333 22 -40.333 35 -57 39c-5.33301 1.33301 -8 10.666 -8 27.999c-10.667 10 -22 15.333 -34 16
c-44 0 -71.667 -5.33301 -83 -16c0 34.667 3.66699 52 11 52c2 0 5.16699 -0.666992 9.5 -2s8.16602 -2 11.499 -2c12 0 23.333 6.33301 34 19c0 -6.66699 5.66699 -18 17 -34v66c-11.333 0 -17 -5.33301 -17 -16c-10 21.333 -15 43.333 -15 66c-12 0 -18 -5.66699 -18 -17
v66c-22 0 -33 -7.33301 -33 -22c0 -6.66699 5.66699 -27 17 -61c-30.667 0 -52.667 33 -66 99c0 12 11 18 33 18c0 32 5.33301 53.667 16 65c0 12 11 18 33 18l18 -18c0 17.333 3.5 32.333 10.5 45s10.5 19.667 10.5 21c0 8 -7 19.333 -21 34h-67v66c-22 22 -55 44 -99 66
c-11.333 0 -17 -11 -17 -33c-44 0 -77 -5.33301 -99 -16v49c-110 0 -187.333 -5.33301 -232 -16v33c-21.333 0 -43.666 -11 -66.999 -33v16c-21.333 0 -32 -5.33301 -32 -16c-22.667 22 -39.334 33 -50.001 33c-44 0 -71.667 -5.66699 -83 -17c6 0 17.333 -5.33301 34 -16
c-11.333 -22 -17 -55 -17 -99c0 -110.667 5.66699 -193.334 17 -248.001h-34v-51c0 11.333 5.66699 17 17 17l49 -49l83 -166v33c10.667 10.667 27.667 16 51 16c10.667 0 38 -11 82 -33v33h49c-10.667 10.667 -21.334 16.334 -32.001 17.001
c0 49.333 4.66699 79.666 14 90.999c16.667 14 34 27.667 52 41c0 11.333 11 28.333 33 51v48l42 52c10.667 9.33301 40.667 14 90 14c-10.667 0 -16 -10.667 -16 -32c32.667 0 60 -5.33301 82 -16c0 -55.333 11 -138.333 33 -249c-10.667 0 -16 -5.66699 -16 -17
c0 -32.667 5.33301 -60 16 -82c-10.667 0 -16 -5.66699 -16 -17c0 -22 5.33301 -38.333 16 -49h34c-11.333 -11.333 -17 -33.666 -17 -66.999c-7.33301 0 -14.333 1.83301 -21 5.5s-9.66699 5.5 -9 5.5c-2 -1.33301 -3 -10.333 -3 -27h33c-11.333 -22 -17 -66 -17 -132
l17 -18c-30 -21.333 -62 -39 -96 -53c-21.333 -8.66699 -30.666 -13.334 -27.999 -14.001c-10 1.33301 20.333 2 91 2v-183c-11.333 0 -28 -11 -50 -33c-10.667 0 -16 -11 -16 -33v50h-116c-12 10.667 -18 27.667 -18 51c-10 0 -15 -6 -15 -18v33
c-22 11.333 -44.333 17 -67 17v82c-21.333 22.667 -32 39.667 -32 51c0 54.667 5.33301 92.667 16 114c-44.667 0 -72.334 -5 -83.001 -15c0 10 5.33301 15 16 15h-149l-45 -104c-13.333 -43.333 -20 -107.666 -20 -192.999v-99c21.333 -66 37.666 -121 48.999 -165
c44 0 110.333 -11 199 -33v0c22 10.667 65.667 16 131 16c12 -16.667 34.333 -44.334 67 -83.001c-22 -66.667 -33 -121.667 -33 -165h-199c-10.667 0 -16 -5.66699 -16 -17c-33.333 11.333 -71.666 17 -114.999 17c-12 0 -18 -5.66699 -18 -17
c-32.667 11.333 -76.667 17 -132 17c-10 0 -15 -11.333 -15 -34c-56 0 -95 -5.33301 -117 -16c-11.333 10.667 -17 27.334 -17 50.001h-181c-12 -11.333 -18 -28 -18 -50zM1322 412.999l-60 61.001c-15.333 19.333 -23 43.666 -23 72.999h-16c0 10 5.33301 15 16 15
c-10 10.667 -15.333 21.667 -16 33c0 66.667 5.33301 111 16 133c11.333 -33.333 39 -83 83 -149v-166zM214.001 645c-11.333 22 -17 44.333 -17 67c0 10.667 5.66699 16 17 16v-83zM1124 1423c0 15.333 -1.83301 29.333 -5.5 42l-5.5 19c0 4 9 6 27 6v-67h-16z
M429.001 1589l-34 66l50 99v-165h-16z" />
    <glyph glyph-name="G" unicode="G" horiz-adv-x="1640" 
d="M545 1748c115.333 -8.66699 213 -31 293 -67l13 94l27 -107c44 -18 79.333 -13.667 106 13c36 -79.333 58.333 -150 67 -212c26.667 -230.667 88.667 -275.334 186 -134.001c26.667 133.333 22.334 253.333 -12.999 360c26.667 44 26.667 88.333 0 133l-80 26l-40 -66
c-88.667 44 -168.334 52.667 -239.001 26c-36 62.667 -85 89.334 -147 80.001c-124 -17.333 -181.667 -66 -173 -146zM412 1668c18 53.333 53.668 84.333 107.001 93l-93 14c-26.667 -36 -31.334 -71.667 -14.001 -107zM346.001 1588c44 0 48.333 13.333 13 40zM66.001 1176
l40.0029 -53.0029l-13 -27c8.66699 -88.667 -0.333008 -168.334 -27 -239.001c18 -53.333 27 -102.333 27 -147l13 -40c26.667 -70.667 44.334 -128.334 53.001 -173.001l67 40c-26.667 -53.333 -17.667 -102 27 -146c-9.33301 -62 17 -102 79 -120
c-17.333 -35.333 -26 -70.666 -26 -105.999c-53.333 35.333 -89 13 -107 -67c53.333 -17.333 84.333 0.333984 93 53.001c36 -26.667 76 -44.334 120 -53.001l40 -80c53.333 -17.333 97.666 -4 132.999 40c106.667 -88.667 213 -88.667 319 0c98 -35.333 169 -13 213 67
c80 -98 160 -107 240 -27c8.66699 142 -18 266.333 -80 373c35.333 88.667 66.333 155 93 199c44.667 -35.333 89 -57.333 133 -66l14 26c26 88.667 43.667 164.334 53 227.001c-44.667 44 -84.667 75 -120 93l-53 -40l-107 40l-53 -14c-124 26.667 -230.333 18 -319 -26
c-44.667 17.333 -84.667 26 -120 26c-8.66699 -97.333 22.333 -168.333 93 -213l27 -133c35.333 26.667 44 62.334 26 107.001c71.333 26.667 133.666 26.667 186.999 0l-27 -40c-8.66699 -71.333 -35.334 -129 -80.001 -173l-26 -80l-80 -13
c-18 26.667 -18 53.334 0 80.001c-9.33301 17.333 -18.333 26 -27 26c-26.667 -35.333 -35.334 -75 -26.001 -119c-133.333 -115.333 -248.666 -133.333 -345.999 -54l-54 -13c-52.667 88.667 -114.667 159.667 -186 213c18 62 18 119.667 0 173
c-8.66699 35.333 -17.334 31 -26.001 -13c-9.33301 52.667 -5 101.334 13 146.001c-44.667 97.333 -67 190.333 -67 279h-80c89.333 36 107.333 89.333 54 160c62 53.333 57.333 88.666 -14 105.999c-8.66699 -79.333 -39.667 -145.666 -93 -198.999zM-106.996 510.997
c18 -142 71.334 -191 160.001 -147l-80 173c-26.667 -17.333 -53.334 -26 -80.001 -26zM1556 243.997v-53c124.667 -70.667 147 -35 67 107z" />
    <glyph glyph-name="H" unicode="H" horiz-adv-x="1710" 
d="M1157 1838l-14.001 -81.998l14 -95l13 -82c-26.667 -63.333 -22 -122.333 14 -177l-14 -108l-40 -14l68 -122c-27.333 -18.667 -41 -41.334 -41 -68.001c-226.667 36 -340 8.66699 -340 -82c-27.333 36 -63.666 49.667 -108.999 41c-54.667 63.333 -109 72.333 -163 27
l-82 68c-8.66699 72.667 -22.334 127 -41.001 163c45.333 181.333 22.666 353.666 -68.001 516.999l-81 -14v-40c-63.333 54 -113.333 35.667 -150 -55c36.667 -45.333 86.667 -72.333 150 -81c-18 -100 0 -168 54 -204c-27.333 -18.667 -45.333 -46 -54 -82
c0 -108.667 -4.66699 -199.334 -14 -272.001c45.333 -27.333 77 -54.666 95 -81.999c-63.333 -72 -76.666 -144.333 -39.999 -217c18 -100 -0.333008 -190.667 -55 -272c36.667 -100 41.334 -190.667 14.001 -272l-82 -41c-63.333 9.33301 -117.666 9.33301 -162.999 0
c-9.33301 -90.667 22.334 -158.667 95.001 -204h41l14 54c54 -18 94.667 -8.66699 122 28c72.667 -18.667 127 -46 163 -82l14 54c54 -8.66699 99.333 0.666016 136 27.999l13 -55l82 14c27.333 54 54.666 99.333 81.999 136l-28 13c-36 9.33301 -67.667 5 -95 -13
c-54 36 -103.667 54 -149 54v41c-18.667 0 -28 -13.667 -28 -41c-8.66699 18 -13 49.667 -13 95c8.66699 72.667 -0.333008 131.667 -27 177c26.667 54.667 26.667 131.667 0 231c90.667 36.667 108.667 68.667 54 96l272 81v41c18 -81.333 68 -117.666 150 -108.999l68 55
c45.333 -45.333 81.333 -45.333 108 0l28 -28c18 -45.333 40.667 -77 68 -95c-9.33301 -54 -0.333008 -103.667 27 -149c-45.333 -54.667 -63.666 -118.334 -54.999 -191.001l55 -27c-54.667 -54.667 -73 -113.667 -55 -177c-72 108.667 -149 54.334 -231 -162.999
c18 9.33301 27 18.333 27 27c145.333 -118 295 -122.333 449 -13l55 -28l13 41c54.667 -45.333 113.667 -45.333 177 0l14 95c-127.333 45.333 -227.333 100 -300 164c-8.66699 90.667 9.66602 172 54.999 244c-45.333 154.667 -54.333 304.334 -27 449.001
c-45.333 127.333 -59 236.333 -41 327c-63.333 0 -104.333 -32 -123 -96c18.667 54.667 28 100 28 136c36 -18 67.667 -27 95 -27c8.66699 136 49.334 254 122.001 354c45.333 -45.333 90.666 -59 135.999 -41c18 45.333 22.667 90.666 14 135.999
c-72.667 18 -136.334 13.333 -191.001 -14l-40 55l-204 13zM925.999 1756c18 -27.333 40.668 -32 68.001 -14c26.667 -63.333 53.667 -113 81 -149c90.667 108.667 81.667 194.667 -27 258c-54.667 -18 -95.334 -49.667 -122.001 -95zM1429 1797
c18 -36.667 9.00098 -55 -26.999 -55c-18.667 27.333 -28 59.333 -28 96c9.33301 -64 27.666 -77.667 54.999 -41zM667.001 1688c18 45.333 27 86 27 122l-81 14c-45.333 -54.667 -27.333 -100 54 -136zM28.001 1688c45.333 18 40.667 40.667 -14 68zM-53.998 70.002
c90.667 63.333 90.667 126.667 0 190v-190z" />
    <glyph glyph-name="I" unicode="I" horiz-adv-x="1370" 
d="M565 1861c-54 -8.66699 -98.668 -31 -134.001 -67c-71.333 44.667 -142.666 62.667 -213.999 54c-53.333 -36 -106.666 -58.333 -159.999 -67l13 -80l54 40c53.333 -36 97.666 -36 132.999 0l67 -54l13 40c71.333 -26.667 134 -26.667 188 0l-14 -26
c53.333 -54 93.666 -107.667 120.999 -161c26.667 36 57.667 45 93 27c-35.333 -80 -31 -98 13 -54l27 -53c44.667 53.333 71.334 111.333 80.001 174c54 -9.33301 81 13 81 67c88.667 -27.333 160 -18.666 214 26.001c70.667 -71.333 115 -53.333 133 54
c-98 71.333 -209.333 93.666 -334 66.999c-26.667 17.333 -49 26 -67 26c-106.667 -44 -209 -48.333 -307 -13zM818.999 1620c-54 -35.333 -72 -26.333 -54 27zM303.999 736c16 -5.33301 18.667 -1.33301 8 12zM631.999 1300c-54 -196.667 -40.666 -321.668 40.001 -375.001
c-107.333 -71.333 -116.333 -142.666 -27 -213.999c-71.333 -142.667 -89.333 -285 -54 -427l-40 -14c-142.667 26.667 -267.334 22.334 -374.001 -12.999c-151.333 -71.333 -169 -156 -53 -254l40 40l40 -13c71.333 0 124.666 -4.66699 159.999 -14
c80 9.33301 147 0.333008 201 -27l40 94c71.333 -8.66699 80.333 -35.334 27 -80.001c88.667 8.66699 159.667 31 213 67c27.333 -9.33301 36.333 -31.666 27 -66.999c44.667 18 80.334 40.333 107.001 67c80 -44.667 155.667 -67 227 -67c54 26.667 94.333 57.667 121 93
l-27 94l-107 27c-116 0 -223 22.333 -321 67l-40 147c8.66699 98 -0.333008 187 -27 267c26.667 35.333 40 71 40 107c-53.333 26.667 -97.666 62.334 -132.999 107.001c53.333 53.333 57.666 106.666 12.999 159.999c71.333 89.333 58 169.666 -40 240.999z" />
    <glyph glyph-name="J" unicode="J" horiz-adv-x="1539" 
d="M430 1716c72 -99.333 157.999 -117.333 257.999 -54c45.333 -27.333 81.333 -27.333 108 0l95 -150c-18 -44.667 -36 -80.667 -54 -108c45.333 -72.667 50 -145 14 -217c72 -154 76.333 -299 13 -435c36.667 -190 18.667 -357.333 -54 -502l-163 -55
c-72.667 0 -136 -4.33301 -190 -13c-54.667 81.333 -109 140 -163 176c36 36.667 49.667 73 41 109c26.667 27.333 42.334 52.166 47.001 74.499s38.667 29.166 102 20.499c-36 45.333 -40.667 90.666 -14 135.999c-63.333 8.66699 -117.666 40.334 -162.999 95.001l-108 27
c-36 -36 -76.667 -58.667 -122 -68c-54.667 -262.667 -0.333984 -493.667 162.999 -693c216.667 -81.333 424.667 -94.666 624 -39.999l27 81c100 -27.333 141 18 123 136c44.667 -36 85.334 -31.333 122.001 14l-41 81c36 172 27 326 -27 462c18 36 18 72 0 108l68 68
c-54.667 18 -86.334 49.667 -95.001 95h-41c63.333 36.667 113 73 149 109l-13 27l13 41l-13 41c27.333 63.333 41 122 41 176l-14 41l14 95c63.333 -18 113 -4.33301 149 41c90.667 -18.667 149.334 8.33301 176.001 81l28 -68c63.333 72.667 58.666 100 -14.001 82
c-45.333 72 -108.666 112.667 -189.999 122c-63.333 0 -117.666 -9 -162.999 -27c-108.667 36 -208.334 36 -299.001 0c-81.333 36 -167.333 54 -258 54c-108.667 -9.33301 -167.334 -63.666 -176.001 -162.999z" />
    <glyph glyph-name="K" unicode="K" horiz-adv-x="1763" 
d="M672 1851c-63.333 27.333 -117.666 13.6631 -162.999 -41.0039c-27.333 45.333 -68 54.666 -122 27.999l13 -68c-63.333 54 -140.333 81 -231 81l-41 -68c18 -45.333 45.333 -81.666 82 -108.999c8.66699 45.333 26.667 41 54 -13l14 81c18 -26.667 40.667 -31 68 -13
c-27.333 -54.667 -36.333 -109 -27 -163c54 0 94.667 18 122 54l-41 -136c-8.66699 45.333 -35.667 68 -81 68c8.66699 -81.333 22 -149.333 40 -204c-54 -100 -58.333 -190.667 -13 -272c-45.333 -54.667 -41 -91 13 -109c-54 -36 -67.333 -126.667 -40 -272
c-27.333 -81.333 -23 -153.666 13 -216.999c-63.333 -136 -158.333 -226.667 -285 -272v-123c54 -27.333 103.667 -31.666 149 -12.999c45.333 -109.333 118 -118.666 218 -27.999c27.333 -18 54.333 -27 81 -27v41c64 -72.667 136.667 -81.667 218 -27
c72.667 -36.667 136 -27.667 190 27c82 -72.667 163.667 -86.334 245 -41.001c90.667 -18 163.334 -9 218.001 27c99.333 -54 176.333 -35.667 231 55c54.667 0 100 13.667 136 41l-27 81c-226.667 18 -358.334 127 -395.001 327c-54 63.333 -90 131.333 -108 204l-96 40
c9.33301 64 -13.334 114 -68.001 150c0 72.667 -18 131.667 -54 177c36 90.667 54 176.667 54 258l28 -13l13 40c36.667 36.667 77.667 59.334 123 68.001c63.333 90.667 135.666 158.667 216.999 204v55c18 -63.333 59 -90.666 123 -81.999l68 109
c63.333 -45.333 99.333 -18 108 82l-40 13h-164l-40 27h-123c-63.333 -18 -117.666 -13.333 -162.999 14l-150 -14l-95 -149c-63.333 90.667 -140.333 149.667 -231 177zM849 1715c118 -8.66699 194.999 -63.001 230.999 -163.001l-54 -41l-27 -54l-68 -82
c-54.667 -27.333 -95.667 -54.333 -123 -81v-41l-27 13l-68 -95l-41 -27c-27.333 -45.333 -54.333 -77 -81 -95c-9.33301 72.667 -32 131.667 -68 177c36 81.333 31.333 208 -14 380c54.667 36.667 77.334 86.667 68.001 150c18 -100 45.333 -118 82 -54
c45.333 -64 68 -59.667 68 13c63.333 18 104 54.333 122 109c18 -45.333 18 -81.666 0 -108.999zM848.999 667.996l81.998 -54.002c8.66699 -82 35.667 -145.667 81 -191c-18 -63.333 -13.333 -117.666 14 -162.999c-45.333 -45.333 -72.666 -99.666 -81.999 -162.999
c-27.333 45.333 -22.666 95 14.001 149c-27.333 0 -41 -13.333 -41 -40l-82 122l-163 -82c-27.333 54.667 -68 91 -122 109l27 27l27 68l-27 82c18 90.667 27 167.667 27 231c54.667 0 95.667 18.333 123 55c45.333 -18.667 77 -9.66699 95 27
c36 -63.333 45 -122.333 27 -177z" />
    <glyph glyph-name="L" unicode="L" horiz-adv-x="1640" 
d="M471 1810c18.667 -28 37.0039 -46.3359 55.0039 -55.0029v-111c-46 -46 -64.333 -96.667 -55 -152c27.333 -46 27.333 -92 0 -138c64.667 -82.667 69.334 -170 14.001 -262c46 -73.333 32 -165.333 -42 -276c64.667 -165.333 64.667 -321.666 0 -468.999l14 -83
c-119.333 -54.667 -234.333 -68.334 -345 -41.001c-55.333 -55.333 -78.333 -119.666 -69 -192.999c46 27.333 73.667 55 83 83c27.333 -18.667 45.666 -41.667 54.999 -69l28 55c119.333 -92 220.333 -92 303 0l56 -97l55 42l69 -28l55 28c55.333 -28 106 -28 152 0l27 -42
c46 9.33301 83 23.333 111 42c27.333 -37.333 64 -56 110 -56c119.333 18.667 234.333 18.667 345 0c147.333 101.333 179.666 175 96.999 221c36.667 36.667 36.667 64.334 0 83.001c0 36.667 9 46 27 28l-14 41c-18 55.333 -27 106 -27 152c36.667 110 36.667 211 0 303
c-147.333 -46 -184.333 -138 -111 -276c-46 -92 -64.333 -184 -55 -276c-128.667 -92 -252.667 -101 -372 -27c-128.667 -36.667 -248.334 -32 -359.001 14l55 13l-41 56c-18.667 64 -14 119 14 165l-69 42c27.333 100.667 22.666 192.667 -14.001 276
c36.667 8.66699 59.667 31.334 69 68.001l-28 28l14 41c0 37.333 -13.667 65 -41 83l27 42c-27.333 54.667 -36.333 119 -27 193c36.667 36.667 50.334 82.667 41.001 138c-36.667 73.333 -41.334 142.333 -14.001 207l-55 27c73.333 74 114.666 152.333 123.999 235
c-64 -9.33301 -128.333 0 -193 28c-18.667 -37.333 -41.667 -65 -69 -83zM181.004 1755c55.333 -64.667 92.333 -51 111 41c46 9.33301 78 32.333 96 69l-27 14c-101.333 -9.33301 -184.333 -9.33301 -249 0c-73.333 -128.667 -50.333 -170 69 -124zM788.004 1755
c64.667 -18.667 124.667 -14.333 180 13c-36.667 46 -78 83 -124 111c-83.333 0 -102 -41.333 -56 -124zM1092 1810l-55 14.001c0 -64.667 18.333 -69.334 55 -14.001zM706.004 1658c46 -36.667 64.333 -23 55 41zM830.004 981.999l-69 14.001
c-9.33301 -64.667 13.667 -69.334 69 -14.001zM1589 568c-37.333 18.667 -56 51 -56 97c37.333 -28 56 -60.333 56 -97zM1630 375c36.667 -28 50.333 -19 41 27z" />
    <glyph glyph-name="M" unicode="M" horiz-adv-x="1767" 
d="M240 1773l-41 40c0 -54 18 -98.667 54 -134c36 71.333 45 134 27 188c-26.667 -36 -40 -67.333 -40 -94zM307 1773c-27.333 -98.667 -0.666992 -157 80 -175c18 36 18 67.333 0 94c80.667 0 116.667 49.333 108 148l-81 13c-18 -152 -53.667 -178.667 -107 -80z
M1395 1786c-8.66699 -54 4.99805 -89.668 40.998 -107.001c-72 -90 -76.667 -166.333 -14 -229l94 40c-17.333 72 -39.666 130.333 -66.999 175c72 62.667 143.667 98.667 215 108c-44.667 44.667 -94 71.334 -148 80.001c-35.333 -36 -75.666 -58.333 -120.999 -67z
M1301 1732c27.333 36 23 67.333 -13 94zM1100 1611l12.999 -147.996l-94 -161c18 -26.667 36 -44.667 54 -54c-44.667 -62.667 -71.667 -129.667 -81 -201v-175c-26.667 44.667 -49 44.667 -67 0c-44.667 -26.667 -58 -62.334 -40 -107.001l40 67
c36 -98.667 18 -125.667 -54 -81c-35.333 -36 -71 -4.66699 -107 94c-9.33301 116.667 -36.333 210.667 -81 282c72 116.667 67.667 188.667 -13 216c0 107.333 -40.333 179 -121 215c-18 -90 -27 -166.333 -27 -229l40 -40c0 -62.667 13.333 -121 40 -175
c-35.333 -116.667 -17.333 -215.334 54 -296.001c-8.66699 -80.667 13.666 -152.334 66.999 -215.001l-13 -148c0 -26.667 4.33301 -44.334 13 -53.001l-13 -54c18 -116.667 22.333 -215.334 13 -296.001l41 -27l54 81c62.667 -18 98.334 4.33301 107.001 67
c8.66699 -36 22 -62.667 40 -80c9.33301 107.333 49.666 183.333 120.999 228l-13 40c8.66699 27.333 17.667 72.333 27 135l-27 94l40 27v107c-8.66699 98.667 0.333008 184 27 256v80c36 -26.667 58.333 -17.667 67 27c-53.333 36 -66.666 89.667 -39.999 161
c36 -53.333 54 -44.333 54 27l53 14c-17.333 71.333 -44 125 -80 161c18 36 27 67.333 27 94l40 -40c44.667 44.667 40.334 80.334 -12.999 107.001c44.667 27.333 67 63.333 67 108l-94 13c18 27.333 9 54.333 -27 81c-44.667 -80.667 -76 -148 -94 -202zM575.996 1732
l-54 54c18 -242 36 -260 54 -54zM292.996 1410c-26.667 -36 -26.667 -72 0 -108l14 81c8.66699 -36 22 -63 40 -81c-26.667 -36 -31 -71.667 -13 -107c35.333 35.333 53 71 53 107c36 -18 63 -22.333 81 -13c-18 107.333 -53.667 197 -107 269
c-72 -36 -94.667 -85.333 -68 -148zM440.996 912.003c36 54 45 108 27 162zM1395 818.003c-35.333 -44.667 -62.001 -98.3359 -80.001 -161.003l54 -54c-72 -62.667 -76.667 -116.334 -14 -161.001l-67 -13c-26.667 -72 -67 -126 -121 -162
c-44.667 -53.333 -76 -102.666 -94 -147.999l-40 27c-36 -35.333 -45 -75.666 -27 -120.999c44.667 -8.66699 62.334 18.333 53.001 81c9.33301 -54 36.333 -72 81 -54c72 -98.667 134.667 -94 188 14c36 -27.333 63 -23 81 13c71.333 -44.667 107 -26.667 107 54
c62.667 0 112 -22.333 148 -67l67 94c-62.667 80.667 -129.667 134.334 -201 161.001c0 54 9 94.333 27 121l-67 40l26 27c0 72 13.667 139.333 41 202l-41 13c-35.333 98.667 -71 179.334 -107 242.001zM346.995 442.001c-80.667 -36 -98.665 -103.336 -53.998 -202.003
c-44.667 18 -80.334 9.33301 -107.001 -26c-98.667 8.66699 -148 -31.666 -148 -120.999c143.333 -45.333 242 -0.666016 296 134.001c35.333 -125.333 107 -161.333 215 -108c26.667 -44.667 58 -76 94 -94c18 72 18 135 0 189c-27.333 35.333 -63.333 53 -108 53v81
c-8.66699 -62.667 -40 -89.667 -94 -81c18 108 -17.667 211 -107 309c107.333 98.667 107.333 170.334 0 215.001c-116.667 -224 -112.334 -340.333 12.999 -349zM95.9971 -560.002c13.333 -5.33301 16 -1.33301 8 12zM521.997 522.998c36 26.667 36 58 0 94v-94z
M171.997 334.998h-39.999c9.33301 -45.333 22.666 -45.333 39.999 0z" />
    <glyph glyph-name="N" unicode="N" horiz-adv-x="1800" 
d="M1337 1852c-101.333 9.33301 -193.33 -9.00391 -275.997 -55.0039c0 -110 50.667 -151.333 152 -124c54.667 -54.667 114.334 -82 179.001 -82c-18.667 -18.667 -41.667 -23.334 -69 -14.001v-69c-9.33301 -27.333 -9.33301 -50.333 0 -69l41 -13
c-36.667 -46 -32 -82.667 14 -110l-28 -55c-8.66699 -18.667 -13 -51 -13 -97l27 -27c-9.33301 -55.333 -4.66602 -106 14.001 -152l-14 -27l14 -28c-18.667 -91.333 -23.334 -173.666 -14.001 -246.999c-9.33301 -82.667 -50.666 -115 -123.999 -97l14 28
c-92 46 -128.667 114.667 -110 206c-92 128.667 -138 257.334 -138 386.001c-45.333 36.667 -77.333 68.667 -96 96v41l-28 28l-55 220c-54.667 73.333 -95.667 142 -123 206c-138 -27.333 -248.333 -13.333 -331 42l-96 -14c-36.667 -36.667 -64.334 -69 -83.001 -97
l28 -13c36.667 -64.667 91.667 -106 165 -124l41 -55c-8.66699 -101.333 -8.66699 -188.666 0 -261.999l-27 -82c54.667 -211.333 50 -408.666 -14 -591.999c18.667 -46 37 -82.667 55 -110c-46 -92 -59.667 -183.667 -41 -275c-119.333 -55.333 -220.333 -32.333 -303 69
h-55c-36.667 -165.333 4.66602 -234.333 123.999 -207c82.667 -110 179 -119 289 -27c73.333 -55.333 142 -60 206 -14c73.333 -46 142.333 -32.333 207 41c8.66699 101.333 -42 124.333 -152 69c-18 64 -54.667 105.333 -110 124l-13 69
c-18.667 91.333 -14.334 178.333 12.999 261l-41 41c18.667 101.333 14 193.333 -14 276l28 68l-55 55c54.667 165.333 59 321.333 13 468l42 138c27.333 -18.667 54.666 -28 81.999 -28c18.667 -201.333 87.667 -361.666 207 -480.999
c-18.667 -92 8.66602 -156.333 81.999 -193c-8.66699 -156 51 -257 179 -303c-9.33301 -164.667 32 -306.667 124 -426c-9.33301 -128.667 45.667 -202 165 -220l41 41c-8.66699 100.667 0.666016 187.667 27.999 261c-9.33301 28 -18.666 46.333 -27.999 55
c46 202 37 390.333 -27 565c46 146.667 41.333 279.667 -14 399l41 41h-82c54.667 18 96 27 124 27l-14 111c18 82 27 155.333 27 220c138 -64.667 220.667 -28 248 110l-27 27l-42 -13l-151 41l-124 14c-36.667 -9.33301 -64 -23.333 -82 -42z" />
    <glyph glyph-name="O" unicode="O" horiz-adv-x="1520" 
d="M673 1691c251.333 80.667 246.667 148 -14 202c-18 -72 -13.333 -139.333 14 -202zM511.001 1758c-107.333 44.667 -197.001 13.3359 -269.001 -93.9971c-54 -80.667 -76.333 -161.334 -67 -242.001c-54 -72 -94.667 -139.333 -122 -202
c36 -126 31.667 -224.667 -13 -296l40 -41v-161l27 -108c36 -80.667 58.667 -152.334 68 -215.001c62.667 -18 98.334 -54 107.001 -108h54c-26.667 -27.333 -35.667 -58.666 -27 -93.999c90 -72 175.333 -121.333 256 -148c98.667 -72 166 -72 202 0
c98.667 -72 170.334 -54.333 215.001 53l41 -27c26.667 18 40 36 40 54c197.333 -8.66699 287 112.666 269 363.999c80.667 80.667 98.667 170.334 54 269.001c27.333 54 32 108 14 162l53 13c-17.333 125.333 -44 228.666 -80 309.999
c26.667 116.667 -5 215.334 -95 296.001c-44.667 -80.667 -62.334 -161.667 -53.001 -243c44.667 -26.667 89.334 -40 134.001 -40l-13 -27c0 -62.667 -9 -107.334 -27 -134.001c18 -72 27 -130.333 27 -175c-27.333 -27.333 -36.333 -54.333 -27 -81l27 -68
c-80.667 -98.667 -121 -206.334 -121 -323.001l-95 -40c-44.667 -80.667 -98.334 -143.334 -161.001 -188.001l-67 26l-229 -40c-45.333 90 -90.333 112.333 -135 67c-36 27.333 -72 45.333 -108 54l-121 310l-67 13c26.667 90 31 175.333 13 256
c-8.66699 54 -26.334 94.333 -53.001 121c62.667 134.667 71.334 242.334 26.001 323.001c54 54 85.667 108 95 162c53.333 18 84.666 54 93.999 108c54 17.333 94.333 35 121 53c36 -62.667 76.333 -62.667 121 0c-8.66699 63.333 -35.667 99.333 -81 108c54 36 54 63 0 81
c-35.333 -27.333 -57.666 -63.333 -66.999 -108zM996 1718c71.333 -36 107 -85.333 107 -148c27.333 0 41 13.333 41 40l27 -81c44.667 80.667 40 166 -14 256l-94 40l-81 41c0 -62.667 4.66699 -112 14 -148zM1278 1785c54 -8.66699 63 0.333008 27 27zM1790 1368h-40
c8.66699 -62.667 22 -62.667 40 0zM1642 1139c72 -26.667 76.333 0.333008 13 81z" />
    <glyph glyph-name="P" unicode="P" horiz-adv-x="1707" 
d="M526 1876c-90.667 -8.66699 -163 -40.332 -217 -94.999c-54.667 63.333 -113.667 86 -177 68v-95c45.333 0 72.666 18.333 81.999 55c18 -45.333 49.667 -63.666 95 -54.999c27.333 -45.333 54.333 -72.333 81 -81c54.667 -118 64 -231.333 28 -340l54 -41
c-36 -63.333 -54 -122 -54 -176l27 -41c-18 -72.667 -27 -136 -27 -190v-191c-18.667 -81.333 -18.667 -153.666 0 -216.999l-55 -68l27 -41c-36 -36 -58.333 -72 -67 -108l-68 -41c-145.333 54 -236 8.66699 -272 -136c136 -81.333 267.333 -99.333 394 -54
c54 -45.333 90.333 -41 109 13c36 -18 63 -13.333 81 14c63.333 -45.333 117.666 -45.333 162.999 0c27.333 -27.333 54.666 -27.333 81.999 0c54 -63.333 90 -63.333 108 0c36.667 -36 64 -31.333 82 14l41 -41c8.66699 63.333 8.66699 117.666 0 162.999
c-45.333 45.333 -81.666 45.333 -108.999 0c-54.667 36 -109 49.667 -163 41l-82 67l-27 123l-13 95l27 27l-14 245c-27.333 0 -41 9 -41 27c90.667 -9.33301 163.334 8.66699 218.001 54l27 -54c36 8.66699 54 26.667 54 54c82 -45.333 145.667 -45.333 191 0
c90 -36 171.333 -22.333 244 41c118 -9.33301 181.333 54 190 190l41 -95c54.667 108.667 32 163 -68 163c27.333 18 59 22.667 95 14c27.333 81.333 36.333 153.666 27 216.999l14 109c-54.667 72 -86.334 144.333 -95.001 217l-54 68l-28 -27l-27 27l-95 27
c-81.333 9.33301 -153.666 27.333 -216.999 54l-68 -40c-18 26.667 -40.667 44.667 -68 54l-14 -81c-63.333 81.333 -135.666 94.666 -216.999 39.999c-54.667 27.333 -100 23 -136 -13c-27.333 36 -59 58.667 -95 68zM1477 1292
c-45.333 -54 -63.332 -108.332 -53.999 -162.999l-41 14c-27.333 -36.667 -54.333 -64 -81 -82c-63.333 -26.667 -113.333 -58.334 -150 -95.001c-18 45.333 -49.667 68 -95 68c-126.667 -45.333 -244.334 -54.333 -353.001 -27c-54.667 27.333 -86.334 68 -95.001 122
c-18 36.667 -27 27.667 -27 -27c-9.33301 72.667 -23 131.667 -41 177c54 90.667 81 185.667 81 285l55 -14c-27.333 90.667 -0.333008 158.667 81 204c108.667 -45.333 208.334 -40.666 299.001 14.001c280.667 -108.667 421 -267.334 421 -476.001zM553.001 1455
c-18 54.667 -22.333 99.999 -13 135.999c36 -45.333 40.333 -90.666 13 -135.999z" />
    <glyph glyph-name="Q" unicode="Q" horiz-adv-x="1681" 
d="M657 1873l-96 -69l27 -28l207 -83c9.33301 83.333 -32 152.333 -124 207zM865 1873l-56 14.001c0 -64.667 18.667 -69.334 56 -14.001zM1044 1818c-55.333 0 -96.666 18.332 -123.999 54.999c9.33301 -83.333 50.666 -101.666 123.999 -54.999zM1141 1776
c-46 -18.667 -78.334 -50.999 -97.001 -96.999l69 -96c55.333 82.667 92.333 13.334 111 -207.999l83 28c18 -36.667 41 -64.334 69 -83.001l-69 -69c73.333 -120 78 -235.333 14 -346c36.667 -101.333 13.667 -184 -69 -248
c8.66699 -101.333 -23.666 -179.666 -96.999 -234.999c-64.667 101.333 -134 142.666 -208 123.999c0 -55.333 -4.33301 -101.333 -13 -138c119.333 -193.333 18 -281 -304 -263c-18.667 -27.333 -28 -55 -28 -83c101.333 -55.333 207.333 -78.333 318 -69
c9.33301 -64 41.666 -100.667 96.999 -110c0 -64.667 9 -120 27 -166c74 -230.667 207.667 -299.667 401 -207c55.333 0 73.666 32 54.999 96l14 -55c28 18.667 42 41.667 42 69c36.667 -64.667 59.667 -50.667 69 42c36.667 73.333 27.334 124 -27.999 152
c55.333 92 37 174.667 -55 248c-74 -322 -212.333 -423.333 -415 -304c18.667 92.667 23.334 171 14.001 235c64.667 74 101.667 161.667 111 263h69c27.333 64.667 41 120 41 166l83 69v138c92 202.667 96.667 396 14 580c-9.33301 129.333 -51 240 -125 332v69
c-73.333 55.333 -133 110.666 -179 165.999h-14zM283.999 1652c46 -46 92 -50.667 138 -14l-55 41c-27.333 -18 -55 -27 -83 -27zM145.999 1500c-36.667 -74 -36.668 -134 -0.000976562 -180c-82.667 -175.333 -101 -345.666 -55 -510.999
c0 -184.667 55 -332.334 165 -443.001v-110l28 27c129.333 -147.333 205.5 -177.166 228.5 -89.499s11.5 145.167 -34.5 172.5c46 37.333 55 83.666 27 138.999c37.333 0 65 9 83 27c-101.333 64.667 -188.666 37 -261.999 -83l-14 28l-56 69c-18 74 -45.333 134 -82 180
c8.66699 101.333 -0.666016 184.333 -27.999 249l28 27l55 152l-83 42c73.333 64 128.666 133 165.999 207l-28 166c-36.667 -37.333 -82.667 -60.333 -138 -69zM753.998 505.001c46 -9.33301 64.333 32 55 124c-46 27.333 -92 41 -138 41
c-46 -82.667 -18.333 -137.667 83 -165zM905.998 601.001l-83 56c0 -83.333 27.667 -102 83 -56zM1348 201.001c46 0 50.667 13.667 14 41z" />
    <glyph glyph-name="R" unicode="R" horiz-adv-x="1760" 
d="M435 1732l26.9961 -54.9932c-90.667 -109.333 -63.334 -164 81.999 -164c18.667 64 23.334 118.667 14.001 164c127.333 -27.333 241 -22.666 341 14.001l68 -55c36.667 27.333 59.334 54.666 68.001 81.999l28 -14l54 -68l55 68v28
c45.333 -91.333 113.666 -159.666 204.999 -204.999l27 -232c-45.333 -64 -72.666 -123 -81.999 -177c-82 18 -127.333 -9.33301 -136 -82c-73.333 27.333 -128 9 -164 -55c-64 54.667 -91.333 41 -82 -41l-14 82l-41 -41c-63.333 45.333 -117.666 45.333 -162.999 0l-14 41
c-72.667 18 -127.334 50 -164.001 96c46 254.667 23.333 382 -68 382c-82 -146 -77.333 -214.333 14 -205c-45.333 -72.667 -50 -145.334 -14 -218.001c-100 -100 -109 -209.333 -27 -328c-54.667 -127.333 -54.667 -245.333 0 -354
c-45.333 -18.667 -72.666 -50.667 -81.999 -96c-82 9.33301 -145.667 -27 -191 -109c-145.333 9.33301 -159 -45.334 -41 -164.001c100 45.333 182 31.666 246 -41.001h68c54.667 64 122.667 91.333 204 82v14l55 -82c45.333 63.333 95.333 68 150 14
c36.667 36 68.667 58.667 96 68c-9.33301 82 -59.333 118.333 -150 109c-46 27.333 -91.667 27.333 -137 0l-123 218c36.667 100 36.667 191 0 273c54.667 36.667 64 73 28 109l27 41c63.333 -27.333 118 -18.333 164 27c36 -45.333 63 -45.333 81 0
c18.667 -8.66699 37 -8.66699 55 0c45.333 -45.333 100 -63.333 164 -54c-9.33301 -54.667 -14 -100.334 -14 -137.001c191.333 -308.667 205 -381.334 41 -218.001c-54.667 -90.667 -32 -131.667 68 -123c-27.333 -236 50 -340.333 232 -313c100 -64 191 -64 273 0l41 -14
c27.333 54.667 41 104.667 41 150l-27 14c-100 45.333 -186.667 72.333 -260 81c-18 27.333 -40.667 45.666 -68 54.999c45.333 154.667 9 304.667 -109 450c18 54.667 13.333 104.667 -14 150c73.333 27.333 137 36.666 191 27.999
c18.667 45.333 23.334 90.666 14.001 135.999c109.333 191.333 127.666 382.333 54.999 573c-109.333 82 -218.666 132 -327.999 150c0 36.667 -13.667 64 -41 82c-72.667 -27.333 -140.667 -27.333 -204 0l-96 -55c-63.333 36.667 -118 36.667 -164 0
c-36 27.333 -67.667 45.666 -95 54.999c-127.333 -45.333 -245.666 -45.333 -354.999 0c-200 -127.333 -136.333 -172.666 191 -135.999zM173.996 548.007l-12 8c-5.33301 -16 -1.33301 -18.667 12 -8z" />
    <glyph glyph-name="S" unicode="S" horiz-adv-x="1490" 
d="M628 1834c-137.333 25.333 -244.663 -17.668 -321.996 -129.001c-154.667 -68.667 -214.667 -223.334 -180 -464.001l26 -13c25.333 -102.667 76.666 -188.334 153.999 -257.001l65 38l38 -12l78 -39l64 -65c154.667 26 292 13.333 412 -38l13 51
c17.333 -51.333 26 -98.333 26 -141l39 13c-26 -86 -13.333 -133.333 38 -142l-51 -13c-34.667 -360.667 -215 -463.667 -541 -309l-91 -13l-51 77c8.66699 -163.333 77.334 -279.333 206.001 -348l39 52l90 -39l38 26c77.333 -103.333 137.666 -116.333 180.999 -39
c77.333 -25.333 128.666 -3.66602 153.999 65.001c68.667 8.66699 111.667 43 129 103c43.333 -8.66699 77.666 0 102.999 26v38c146 77.333 184.667 180.333 116 309c0 52 -17 86.333 -51 103c16.667 77.333 -13.666 129 -90.999 155c8.66699 42.667 -4 77 -38 103l-77 13
c-60.667 34.667 -112.334 43.334 -155.001 26.001c-60 51.333 -120 64 -180 38l-52 78l-77 -13l-26 13l-77 25c-86 17.333 -154.667 39 -206 65c-34.667 94.667 -77.667 167.667 -129 219l-13 77c103.333 17.333 146.333 86 129 206c120 -34 231.667 -16.667 335 52
c86 -86 146 -167.667 180 -245c180.667 26 275 -42.667 283 -206h65c34 60 34 115.667 0 167c77.333 60.667 81.666 112.334 12.999 155.001c42.667 68.667 47 133 13 193c-68.667 17.333 -103 -12.667 -103 -90l-52 90c-86 -51.333 -154.667 -34 -206 52
c-60 -8.66699 -107.333 4 -142 38c-34 -25.333 -72.667 -42.333 -116 -51zM1066 1576c-16.667 -34 -42.333 -51 -77 -51l-13 103zM87.0039 1074c8.66699 42.667 -8.33301 68.333 -51 77c8.66699 -34 25.667 -59.667 51 -77zM203.004 789.998l-51 26
c0 -180 17 -188.667 51 -26zM126.004 429.998h51.001c17.333 60 47.666 111.333 90.999 154l-91 39c-42.667 -60 -59.667 -124.333 -51 -193zM268.005 467.998h-52c34.667 -94 52 -94 52 0zM49.0049 94.998c60 8.66699 98.667 43 116 103c60 0 85.667 25.667 77 77
c-34.667 -42.667 -77.667 -47 -129 -13c26 26 39 56 39 90c16.667 52 -5 73.667 -65 65c8.66699 -128.667 -4 -236 -38 -322zM74.0049 236.998l-51 24.999c0 -111.333 17 -119.666 51 -24.999z" />
    <glyph glyph-name="T" unicode="T" horiz-adv-x="1570" 
d="M93 1422h41c-92 -83.333 -119.667 -180 -83 -290l-41 -56c55.333 9.33301 106 0.333008 152 -27l28 55c8.66699 128.667 22.334 230 41.001 304l-14 152c37.333 73.333 60.333 147 69 221c74 -27.333 138.667 -18 194 28c-36.667 64 -87.334 91.667 -152.001 83
c-202.667 -9.33301 -281 -166 -235 -470zM687 1822c-64.667 46.667 -124.669 37.6689 -180.002 -26.998c28 -18.667 46.667 -41.667 56 -69c73.333 46 147 55 221 27c-46 -82.667 -46 -156.334 0 -221.001c-74 -64 -92.333 -137.667 -55 -221
c-28 -55.333 -37.333 -110.666 -28 -165.999h97c18 37.333 18 69.666 0 96.999c82.667 147.333 73.334 258 -27.999 332c92 55.333 101.333 110.666 28 165.999c55.333 54.667 92 40.667 110 -42l42 111c-37.333 8.66699 -69.666 8.66699 -96.999 0
c-36.667 46 -78 73.667 -124 83zM1005 1740l28 13c82.667 -73.333 165.334 -101 248.001 -83v-55l-41 -27c9.33301 -64.667 37 -120 83 -166c-28 -129.333 -19 -240 27 -332l-41 -69l69 -83l97 28c64 212 59.333 414.667 -14 608c27.333 101.333 18 193.333 -28 276
c-110.667 18.667 -156.667 -27.333 -138 -138l-14 97l-69 27l-27 -14c-46.667 28 -97.334 46.667 -152.001 56c-28 -46 -37.333 -92 -28 -138zM741.998 1035l-13 -82.999c92 -36.667 128.667 0 110 110c-9.33301 55.333 -46 78.666 -110 69.999zM672.998 745.003
c-9.33301 -64.667 4.66602 -115.329 41.999 -151.996l-42 -69c0 -101.333 -9 -189 -27 -263c-110.667 -27.333 -212 -32 -304 -14c-55.333 -46 -87.666 -96.667 -96.999 -152l28 -27c46 27.333 96.667 36.333 152 27c64 -92 123.667 -92 179 0
c64.667 -36.667 124.667 -50.334 180 -41.001c55.333 -46 110.666 -60 165.999 -42c73.333 -36.667 137.666 -27.334 192.999 27.999c55.333 -28 133.666 -14.333 234.999 41c-55.333 74 -110.666 134 -165.999 180l-27 -41c-83.333 36.667 -161.666 45.667 -234.999 27
l27 28c-64 73.333 -100.667 151.666 -110 234.999c27.333 128.667 18 243.667 -28 345c-73.333 -36.667 -128.666 -73.334 -165.999 -110.001z" />
    <glyph glyph-name="U" unicode="U" horiz-adv-x="1680" 
d="M425 1840l-52.999 -13.001c-130 8.66699 -238.333 4.33398 -325 -12.999c-61.333 -182.667 8 -226.334 208 -131.001l65 -104l-26 -26v-65l26 -13l-26 -39c8.66699 -104.667 0 -196 -26 -274l26 -78l-39 -79l13 -39v-260l39 -13c-43.333 -96 -39 -183 13 -261
c-17.333 -60.667 -26 -108.667 -26 -144l52 -26c0 -26 8.66699 -52 26 -78l39 13c35.333 -69.333 79 -121.333 131 -156c26 17.333 52 26 78 26c112.667 -86.667 212.667 -86.667 300 0l13 -52c304 52 447.333 225.667 430 521c17.333 122 0 222 -52 300l39 78
c26 122 17.333 200.333 -26 235c52 95.333 60.667 186.333 26 273l26 40l39 117l-39 39c26 0 60.667 8.66699 104 26h39c165.333 130.667 152.333 191.667 -39 183c-104 34.667 -203.667 39 -299 13c-122 0 -209 -48 -261 -144c8.66699 -17.333 21.667 -26 39 -26
c52 -78 117 -108.333 195 -91l-26 -26v-52l39 -79c-8.66699 -112.667 4.66602 -216.667 39.999 -312c-61.333 -87.333 -57 -157 13 -209l-13 -52c-17.333 -34.667 -21.666 -69.334 -12.999 -104.001c-26.667 -34.667 -40 -74 -40 -118c-34.667 -26 -52 -56.333 -52 -91
l26 -52c-69.333 -182.667 -164.666 -248 -285.999 -196c-52.667 -26 -96.334 -23.667 -131.001 7s-69.334 37.334 -104.001 20.001c-26 60.667 -65 99.667 -117 117l-13 78l-13 143c0 70 4.33301 122.333 13 157l-26 26l13 65l13 52c0 96 -13 178.667 -39 248
c17.333 60.667 26 108.334 26 143.001c17.333 87.333 26 161.333 26 222l52 65c78 34.667 130 86.667 156 156c-52 44 -108.333 57.333 -169 40c-26 26 -52 39 -78 39z" />
    <glyph glyph-name="V" unicode="V" horiz-adv-x="1690" 
d="M54 1701c53.333 9.33301 98 9.33887 134 0.00585938c17.333 -62 39.333 -111 66 -147c44.667 -124.667 71.667 -93.334 81 93.999c8.66699 -80.667 39.667 -134.334 93 -161.001c-35.333 -62.667 -53 -102.667 -53 -120c71.333 -54 98 -125.333 80 -214l54 -201
c-80.667 44.667 -134.334 40.334 -161.001 -12.999c53.333 -18 102.333 -18 147 0c26.667 -80.667 31.334 -156.667 14.001 -228c26.667 9.33301 57.667 0.666016 93 -26.001c-44.667 -134 -22.334 -227.667 66.999 -281c-35.333 -44.667 -55.333 -91.5 -60 -140.5
s15.333 -69.167 60 -60.5c-71.333 -18 -98 -58 -80 -120c53.333 0 93.333 13.333 120 40c53.333 -71.333 120.333 -116 201 -134l40 40c26.667 89.333 58 165.333 94 228c8.66699 106.667 39.667 200 93 280c0 89.333 18 165.333 54 228c8.66699 62 22 111 40 147
c-9.33301 44.667 -31.666 71.334 -66.999 80.001c89.333 80.667 125 170 107 268c124.667 160 142.334 249 53.001 267c98.667 -8.66699 152.334 31.666 161.001 120.999c134 -107.333 187.333 -58.333 160 147l-26 13l-107 27l-40 -13
c-89.333 26.667 -169.666 26.667 -240.999 0c-53.333 17.333 -102.333 21.666 -147 12.999l-40 -40l-41 27l-66 -67c17.333 -71.333 57.333 -107 120 -107c-62.667 -187.333 -58.334 -365.666 12.999 -534.999c-44.667 -98.667 -71.334 -197 -80.001 -295
c-71.333 -44.667 -98 -138.334 -80 -281.001c-36 89.333 -31.667 160.666 13 213.999l-13 94c-53.333 -26.667 -66.666 -62.334 -39.999 -107.001l-54 -80c-44.667 18 -80.334 35.667 -107.001 53v40c-8.66699 89.333 -26.334 165.333 -53.001 228
c0 53.333 -9 102.333 -27 147c0 53.333 9 102.333 27 147c-62.667 89.333 -85 178.666 -67 267.999l-40 40l26 13l67 54c89.333 -9.33301 120.666 44 93.999 160l-40 40h-94l-40 -13c-89.333 26.667 -169.666 31 -240.999 13c-44.667 18 -93.667 27 -147 27
c-71.333 -44.667 -111.333 -102.667 -120 -174zM-80 1380.01c44.667 -62.667 71.333 -58.333 80 13h-40zM347.999 1126.01c26.667 35.333 35.668 80 27.001 134h-40c-62.667 -36 -58.334 -80.667 12.999 -134zM923 1153.01c80.667 -9.33301 89.667 13 27 67zM482 578.007
c35.333 -36 57.667 -27.333 67 26l-54 40zM509.001 350.007c62 -8.66699 66.333 4.66699 13 40z" />
    <glyph glyph-name="W" unicode="W" horiz-adv-x="1582" 
d="M667 1780c28 -66.667 23.3311 -123.334 -14.002 -170.001l-29 -128c94.667 -122.667 118.334 -89.667 71.001 99c28.667 -18.667 43 -47 43 -85c46.667 -28 70 -75 70 -141c94.667 38 90 85 -14 141c75.333 56.667 103.666 132.334 84.999 227.001h-71
c28.667 38 33.334 75.667 14.001 113c-46.667 0 -74.667 -18.667 -84 -56c-56.667 46.667 -118 74.667 -184 84c-19.333 -207.333 18.334 -235.333 113.001 -84zM1360 1850l-99 14c-66 -132 -33 -136.667 99 -14zM75.998 272c24 -5.33301 28 -1.33301 12 12zM935.998 1780
c56.667 0 61.333 14 14 42zM170.997 1794h-113c38 -47.333 75.667 -47.333 113 0zM878.997 1751c9.33301 28.667 0 43 -28 43zM1403 1553c18.667 -18.667 37.333 -28 56 -28v85l-70 85c-28.667 9.33301 -57 28 -85 56c-9.33301 -292 23.667 -358 99 -198zM1502 1638
c28 75.333 -0.333008 113.001 -85 113.001c0 -84.667 28.333 -122.334 85 -113.001zM185.996 1680c-38 28.667 -76 42.999 -114 42.999c-46.667 -179.333 -8.66699 -193.666 114 -42.999zM185.996 1454c-76 -66 -81 -141.333 -15 -226c-28 -38 -32.667 -76 -14 -114
c142 47.333 156.333 118.333 43 213c47.333 94 28.333 169.333 -57 226zM1247 1327l-0.00292969 -155.998c-28 -75.333 -47 -141.333 -57 -198c-37.333 -75.333 -46.666 -141.333 -27.999 -198c-56.667 -75.333 -85 -155.666 -85 -240.999l-71 156
c19.333 132 -13.667 250 -99 354c28.667 103.333 14.667 193 -42 269c-66 -142 -70.667 -264.667 -14 -368c-56.667 -188.667 -38 -358.667 56 -510c-28 -226.667 47.667 -401.334 227 -524.001c56.667 38 94.334 76 113.001 114l-14 56l28 43l14 99
c-9.33301 103.333 0.333984 193 29.001 269c18.667 9.33301 28 18.666 28 27.999v42l14 114v141c9.33301 113.333 9.33301 207.666 0 282.999c38 38 66.333 75.667 85 113c9.33301 122.667 -37.667 207.667 -141 255c-10 -56.667 -24.333 -103.667 -43 -141zM623.993 1341
c-28 -18.667 -46.666 -46.999 -55.999 -84.999l14 -368c-38 -104 -52.333 -198.333 -43 -283c122.667 38 156 141.667 100 311c94 -9.33301 112.667 52 56 184c9.33301 75.333 37.666 127.333 84.999 156c-28 75.333 -80 117.666 -156 126.999v-42zM227.994 718.003
c-9.33301 -122.667 23.666 -217 98.999 -283c-113.333 -56.667 -89.666 -198 71.001 -424c150.667 84.667 193 146 127 184c113.333 160 104 310.667 -28 452c-47.333 -198 -99.333 -193 -156 15l14 42c-37.333 113.333 -51.333 212.333 -42 297l-85 43
c-66 -113.333 -66 -222 0 -326z" />
    <glyph glyph-name="X" unicode="X" horiz-adv-x="1800" 
d="M559 1803c-81.333 63.333 -144.665 58.9951 -189.998 -13.0049c-36 36 -76.667 45 -122 27c45.333 -36 77 -67.667 95 -95c-36 18 -58.667 4.33301 -68 -41l41 -27c45.333 63.333 99.666 81.333 162.999 54c27.333 9.33301 50 9.33301 68 0
c-45.333 -18 -68 -49.667 -68 -95c-9.33301 54.667 -36.333 73 -81 55c0 -27.333 4.33301 -45.666 13 -54.999c190 -8.66699 294 -153.334 312 -434.001c27.333 -54.667 63.666 -95.334 108.999 -122.001l-27 -14c8.66699 -45.333 -9.66602 -104 -54.999 -176l-40 68
c-27.333 -45.333 -54.666 -77 -81.999 -95c18 -27.333 40.667 -45.666 68 -54.999l-41 -13c-63.333 -226.667 -176.333 -407.667 -339 -543l-27 13c-99.333 -18 -185.333 -4.33301 -258 41v-177c36 0 63 9.33301 81 28l28 -41c54 -27.333 99 -27.333 135 0
c45.333 -54.667 86.333 -91 123 -109c36 18 58.333 40.667 67 68c63.333 -54 126.666 -54 189.999 0c36.667 -27.333 77.667 -36.333 123 -27c26.667 54 40 103.667 40 149l41 -13c-27.333 45.333 -59 81.333 -95 108c18 90.667 22.667 167.667 14 231
c45.333 18 86 22.667 122 14c18 54 45 94.667 81 122v68c18 -18 40.667 -27 68 -27c-81.333 -118 -45 -190.667 109 -218c-54.667 -54 -50.334 -90 12.999 -108c-117.333 -45.333 -135.333 -81.666 -54 -108.999c-54 -8.66699 -99.333 -26.667 -136 -54
c18 -81.333 63.333 -126.666 136 -135.999l81 -95c27.333 18 45.666 45.333 54.999 82c135.333 18 221.333 -0.333008 258 -55l13 55l41 -68c9.33301 36 0.333008 67.667 -27 95l68 13c72 0 126.333 18.333 163 55c-36.667 54 -77.667 85.667 -123 95
c-63.333 54 -126.666 63 -189.999 27c-36 90.667 -85.667 158.334 -149 203.001v55c-72.667 99.333 -118 189.666 -136 270.999c-8.66699 54.667 -26.667 95.334 -54 122.001c0 82 -22.667 145.333 -68 190c63.333 54.667 117.666 91 162.999 109
c-18 118 36.333 172.333 163 163c0 72.667 -9 136 -27 190l95 136c18 -63.333 58.667 -90.666 122 -81.999c-9.33301 72.667 -50 109 -122 109c-72.667 180.667 -140.667 185 -204 13l-68 14c27.333 54.667 9.33301 91 -54 109c-18 -45.333 -36 -81.666 -54 -108.999
c90 -81.333 112.667 -167.333 68 -258c18 -81.333 -9.33301 -131 -82 -149v-54l-27 40c-18 -72 -45 -130.667 -81 -176c-18.667 26.667 -41.334 44.667 -68.001 54l27 41l-14 54c-99.333 81.333 -171.666 176.333 -216.999 285c45.333 27.333 72.333 63.666 81 108.999
c-54 -18 -103.667 -18 -149 0c27.333 36 45.333 67.667 54 95c54.667 -81.333 118.334 -104 191.001 -68c-9.33301 108.667 -68.333 149.334 -177 122.001l-41 41zM1442 1464c45.333 18 45.333 36 0 54v-54zM139.001 1260c54 90.667 31.333 113.332 -68 67.999l-41 41
c-27.333 -45.333 9 -81.666 109 -108.999zM1150 940.993c13.333 -22.667 20 -43 20 -61c9.33301 45.333 -4 86 -40 122c0 -18 6.66699 -38.333 20 -61z" />
    <glyph glyph-name="Y" unicode="Y" horiz-adv-x="1760" 
d="M300 1776l-15 43.001c-56 -10 -88.667 8.66699 -98 56h-70l-99 -113c66 -37.333 131.667 -42 197 -14c37.333 -37.333 60.666 -32.666 69.999 14.001c19.333 -18.667 38.333 -28 57 -28l14 -154c65.333 -84.667 107.333 -164.334 126 -239.001
c56.667 -9.33301 108.334 -33 155.001 -71c-56.667 -65.333 -47.334 -121.333 27.999 -168c-37.333 -84.667 -18.666 -155 56.001 -211c37.333 -178 23.333 -337.333 -42 -478l42 -112c-9.33301 -56.667 -14 -47.334 -14 27.999c-65.333 -103.333 -140.333 -122 -225 -56
c-168.667 -150 -168.667 -229.667 0 -239l56 -43l29 15h182c56.667 28 108.334 42 155.001 42v14l42 -56c56 0 103 4.66699 141 14c84 -28.667 163.333 -24 238 14l43 -28l14 42l-14 84l28 70c-37.333 0 -56 -14 -56 -42c-66 46.667 -131.667 60.667 -197 42l-85 127
c-28 -18.667 -51.333 -28 -70 -28v42c9.33301 56 0 98 -28 126c37.333 84.667 37.333 159.667 0 225c9.33301 46.667 9.33301 84.334 0 113.001c18.667 18.667 28 44.334 28 77.001s23.333 44.334 70 35.001l14 98l29 85c93.333 131.333 140 257.666 140 378.999l70 14
c19.333 94 57 169 113 225c65.333 -18.667 116.666 -9.33398 153.999 27.999c84.667 -18.667 136.334 9.66602 155.001 84.999c-74.667 0 -135.667 23.333 -183 70c-56 -28 -102.667 -28 -140 0c-66 -56 -159.667 -56 -281 0l-99 -127
c140.667 -149.333 122 -275.666 -56 -378.999c-28 -103.333 -79.333 -169 -154 -197v42c-38 47.333 -66.333 89.666 -85 126.999l-14 28c-28 103.333 -65.333 187.666 -112 252.999l14 42c93.333 -9.33301 130.666 42.334 111.999 155.001h-42l-28 28
c-84.667 0 -155 9.33301 -211 28c-74.667 -18.667 -126 -61 -154 -127zM581 1678l-43 42c56.667 9.33301 71 -4.66699 43 -42zM1466 1369c-28 -18.667 -55.999 -28 -83.999 -28v-42c-28 -84.667 -42 -159.667 -42 -225c-19.333 18.667 -43 28 -71 28l14 -56l-42 28
c-46.667 -178 -37.334 -197 27.999 -57h99c18.667 75.333 56 136.333 112 183v169h-14zM1719 329.001c28 -46.667 56 -84.333 84 -113c66 66 66 122.333 0 169z" />
    <glyph glyph-name="Z" unicode="Z" horiz-adv-x="1454" 
d="M672 1744c18 -36.667 50 -23.0029 96 40.9971c27.333 -54.667 45.666 -100.334 54.999 -137.001h41c36.667 54.667 82.334 86.667 137.001 96l-28 -14l-41 -96c9.33301 -54.667 5 -105 -13 -151l-42 55c0 -36.667 14 -59.334 42 -68.001
c-64 -55.333 -123.667 -137.666 -179 -246.999l-68 -41c-27.333 -55.333 -45.666 -105.666 -54.999 -150.999l-69 -14l-27 -55c-46 -82 -101 -150.667 -165 -206c-27.333 -54.667 -41 -104.667 -41 -150l-55 -55l-27 -41c-46 -46 -78 -82.667 -96 -110l-55 -82
c-27.333 -73.333 -41 -137.333 -41 -192l96 -96c128 -28 246.667 -19 356 27l69 -69c46 0 69 18.333 69 55l54 -68l83 27l27 14c182.667 -54.667 352 -54.667 508 0c118.667 292.667 136.667 576 54 850l-41 14c-36.667 -46 -64 -87.333 -82 -124
c-9.33301 -91.333 -23 -169 -41 -233v-96c-46 -64 -73.333 -123.333 -82 -178c-64 0 -119 -18.333 -165 -55l-55 82l-55 -27l-343 -14l-13 -41c-46 46 -105.667 64.333 -179 55c18.667 36.667 28 68.667 28 96c45.333 54.667 72.666 114 81.999 178
c164.667 91.333 256 224 274 398c64 -18 100.667 32.333 110 151c27.333 -36.667 59.333 -55 96 -55c-9.33301 110 27.334 192.333 110.001 247c27.333 100.667 77.666 178.334 150.999 233.001v41l41 -14c27.333 100.667 41 192.334 41 275.001
c-219.333 109.333 -370.333 109.333 -453 0c-18 36.667 -50 68.667 -96 96c-64 -55.333 -68.333 -105.666 -13 -150.999zM109 1799l14 -83l-14 -96l14 -54l-14 -28c0 -91.333 -13.667 -169 -41 -233l14 -82c137.333 45.333 169.333 159.666 96 342.999
c110 128 123.667 233 41 315c-45.333 -27.333 -82 -54.666 -110 -81.999zM315 1730c64 0 100.668 41.333 110.001 124l-69 27c-36.667 -46 -50.334 -96.333 -41.001 -151zM452.001 1771c91.333 -82 141.667 -63.665 151 55.002c-18 27.333 -45.333 45.666 -82 54.999
c-36.667 -36.667 -59.667 -73.334 -69 -110.001zM1577 1250c18 73.333 4.33203 123.667 -41.001 151c-27.333 -64 -13.666 -114.333 41.001 -151z" />
    <glyph glyph-name="bracketleft" unicode="[" horiz-adv-x="1351" 
d="M287 1784l-88 -67.998l20 -87c-22.667 -174 -27.334 -322 -14.001 -444l-16 -156l20 -86l-16 -204l21 -135l-19 -155c27.333 -116.667 42 -223.334 44 -320.001l117 -84l19 58c4 180 24.667 328.667 62 446l-40 76c36 213.333 23.667 409.666 -37 588.999
c48.667 220.667 30.334 414 -54.999 580zM501 1793c-167.333 11.333 -255.332 -44.668 -263.999 -168.001c33.333 0 54.333 -22.333 63 -67c58 22.667 137.333 28.334 238 17.001l76 34l25 16c134 -89.333 150.667 -39 50 151c-24.667 -10.667 -41.334 -33 -50.001 -67z
M521.001 322.001c-167.333 11.333 -255.333 -44.6689 -264 -168.002c34 0 55 -22.333 63 -67c58 22.667 137.333 28.334 238 17.001l76 33l25 17c134 -89.333 151 -39 51 151c-25.333 -11.333 -42.333 -33.666 -51 -66.999z" />
    <glyph glyph-name="backslash" unicode="\" horiz-adv-x="993" 
d="M96 1884l-67.002 -114l61 -87c50.667 -203.333 110.334 -369.666 179.001 -498.999l50 -180l60 -86l71 -233l82 -141l48 -180c81.333 -116.667 144 -228.334 188 -335.001l167 -42l-5 73c-74 201.333 -116 375 -126 521l-78 67
c-53.333 252 -152.666 464.333 -297.999 637c-42.667 265.333 -148 471.333 -316 618z" />
    <glyph glyph-name="bracketright" unicode="]" horiz-adv-x="1430" 
d="M653 1794c-86 -166 -104.668 -359.335 -56.001 -580.002c-60 -179.333 -72 -375.666 -36 -588.999l-40 -76c36.667 -117.333 57.334 -266 62.001 -446l19 -58l117 84c2 96.667 16.667 203.334 44 320.001l-19 155l21 135l-17 204l21 86l-16 156
c13.333 122 8.33301 270 -15 444l21 87l-88 68zM318.999 1709c-8.66699 34 -25.667 56.334 -51 67.001c-100 -190 -83 -240.333 51 -151l25 -16l75 -34c101.333 11.333 181 5.66602 239 -17.001c8 44.667 29 67 63 67c-8.66699 123.333 -96.667 179.333 -264 168z
M298.999 237.999c-8.66699 33.333 -25.668 55.668 -51.001 67.001c-100 -190 -83 -240.333 51 -151l25 -17l75 -33c100.667 11.333 180.334 5.66602 239.001 -17.001c8 44.667 29 67 63 67c-8.66699 123.333 -96.667 179.333 -264 168z" />
    <glyph glyph-name="asciicircum" unicode="^" 
d="M717 1922l-36.999 -33l25 -28c15.333 -63.333 37 -115.333 65 -156l15 -56l25 -28l24 -72l33 -45l15 -56c34 -36.667 59 -72 75 -106l78 -17l1 22c-26.667 62.667 -39.334 116.334 -38.001 161.001l-34 23c-14 77.333 -52 144 -114 200
c-9.33301 81.333 -51 146.666 -125 195.999zM716.001 1901l-60 -13l-4 -32c-46 -56.667 -76.667 -106.667 -92 -150l-38 -51l-4 -32l-48 -68l-14 -48l-39 -52c-6.66699 -42.667 -18.667 -80.667 -36 -114l47 -42l21 18c36.667 60.667 75.667 108.667 117 144l-7 31
c60 68.667 90.333 137 91 205c67.333 70 93.333 138.333 78 205z" />
    <glyph glyph-name="underscore" unicode="_" horiz-adv-x="1257" 
d="M209 -20c-122 -146.667 -24 -207.667 294 -183l568 36l18 129l-73 36c-98 -12 -177.333 -12 -238 0c-146.667 -24 -269 -24 -367 0z" />
    <glyph glyph-name="underscore" unicode="&#x2014;" horiz-adv-x="1257" 
d="M209 -20c-122 -146.667 -24 -207.667 294 -183l568 36l18 129l-73 36c-98 -12 -177.333 -12 -238 0c-146.667 -24 -269 -24 -367 0z" />
    <glyph glyph-name="grave" unicode="`" horiz-adv-x="760" 
d="M76 1348c105.333 -40.667 157 -147.001 155 -319.001c203.333 218.667 195 433.334 -25 644.001l-73 -27c-51.333 -98 -70.333 -197.333 -57 -298z" />
    <glyph glyph-name="a" unicode="a" horiz-adv-x="1366" 
d="M439 1151c-298 0 -377.668 -129.331 -239.001 -387.998l209 60c40 338 209 357.667 507 59l-60 -119l-208 -90c-199.333 20 -368.333 0.333008 -507 -59c-139.333 -238.667 -109.666 -417.667 89.001 -537c238.667 -119.333 467.334 -109.333 686.001 30
c139.333 -99.333 268.666 -109.333 387.999 -30c-60 119.333 -129.667 218.666 -209 297.999c79.333 517.333 -79.667 815.666 -477 894.999c-79.333 -20 -139 -59.667 -179 -119zM915.999 435.002l-118.999 -59.999c-60 -238.667 -209.333 -308.334 -448 -209.001
c-138.667 80 -168.334 189.667 -89.001 329c178.667 39.333 337.667 49 477 29l30 60z" />
    <glyph glyph-name="b" unicode="b" 
d="M387 1637c27.333 27.333 31.666 63.999 12.999 109.999c-45.333 18 -81.666 40.667 -108.999 68c-18 -91.333 14 -150.666 96 -177.999zM-64 1474c27.333 72.667 36.333 140.668 27 204.001l-150 41c-54.667 -154.667 -13.667 -236.334 123 -245.001zM332 1310
c-82 -118.667 -63.665 -191.67 55.002 -219.003l-69 -13c-63.333 -127.333 -36 -195.666 82 -204.999l-82 -14l-68 -218l41 -41l-41 -68l14 -478c100 -46 172.667 -37 218 27l14 -27l259 -55c27.333 -18 45.666 -40.667 54.999 -68c191.333 45.333 337 141 437 287
c63.333 -9.33301 99.666 22.334 108.999 95.001c36.667 54.667 41.334 109.334 14.001 164.001c63.333 109.333 81.333 209.333 54 300c-27.333 9.33301 -45.333 23 -54 41c-64 318.667 -250.667 487 -560 505l-14 -54c-118 36 -218 17.667 -300 -55l-41 28l-41 54l14 41
v273l-55 14c-54.667 -109.333 -68.334 -214 -41.001 -314zM823.002 1201l68.998 27.001c54.667 -36.667 109.334 -59.334 164.001 -68.001l41 -96c36 -9.33301 58.667 -0.333008 68 27l95 -286c9.33301 -218.667 -49.667 -400.667 -177 -546
c-282 -164 -477.667 -100.333 -587 191l-14 27c-27.333 72.667 -54.666 127.334 -81.999 164.001c64 63.333 68.667 136 14 218c36 64 58.667 123.333 68 178l41 -68c-9.33301 108.667 27 158.667 109 150c18.667 45.333 46 81.666 82 108.999z" />
    <glyph glyph-name="c" unicode="c" horiz-adv-x="1213" 
d="M116 918l-49.001 -12c-50 -140.667 -50 -268.667 0 -384c-33.333 -74.667 7.66699 -173.667 123 -297c132 -165.333 276.667 -231.333 434 -198c57.333 -41.333 111 -37.333 161 12c66 -8 111.333 16.667 136 74c24.667 -16 45.334 -24 62.001 -24
c98.667 107.333 160.334 227 185.001 359c-66 32.667 -123.667 49 -173 49l-12 -37c-24.667 -24.667 -41.334 -53.667 -50.001 -87l-37 13c-115.333 -140.667 -243.333 -173.667 -384 -99l-74 -25c0 24.667 -4 41 -12 49c-99.333 58 -173.666 128.333 -222.999 211l74 49
c-82.667 41.333 -99 99.333 -49 174c32.667 148.667 106.667 256 222 322v49c33.333 -41.333 74.666 -66 123.999 -74c49.333 16.667 74 41.334 74 74.001l25 -12c41.333 0 78.666 -8.33301 111.999 -25l37 -62c-33.333 -74 -50 -144 -50 -210l37 -13
c74.667 -8 141 -24.333 199 -49l12 49c16.667 -16 37.334 -20 62.001 -12c24.667 165.333 -8.33301 309.666 -99 432.999c-50 8.66699 -87.333 4.66699 -112 -12l-99 25l-24 12l-62 12l-87 25c-33.333 -8 -58 -8 -74 0c-214.667 -49.333 -351 -169 -409 -359z" />
    <glyph glyph-name="d" unicode="d" horiz-adv-x="1550" 
d="M842 1778c-125.333 71.333 -188 40.002 -188 -93.998l41 -40c53.333 -9.33301 89 8.33398 107 53.001l27 -40c98.667 -44.667 179.334 -107.334 242.001 -188.001c-18 -107.333 -22.667 -201.333 -14 -282c-206 125.333 -349.333 138.666 -430 39.999
c-26.667 98.667 -53.334 116.667 -80.001 54l-14 40c-223.333 -71.333 -362 -210 -416 -416l-67 -67c0 -80.667 13.333 -152.334 40 -215.001c-26.667 -214.667 49.666 -358 228.999 -430c35.333 -89.333 89 -125 161 -107c44.667 -62.667 125 -107.334 241 -134.001
c18 35.333 36 62 54 80c80.667 -8.66699 152.334 4.66602 215.001 39.999c26.667 -89.333 125 -102.666 295 -39.999c45.333 -44.667 90.333 -53.667 135 -27c71.333 -26.667 98 -8.66699 80 54v67c-134 26.667 -237 76 -309 148l14 80c0 197.333 -9 331.666 -27 402.999
l27 94v67l-14 41l-13 53c0 134.667 -13.333 246.667 -40 336c8.66699 80.667 31 152.334 67 215.001c-36 80.667 -54 152.334 -54 215.001c-36 26.667 -67.333 26.667 -94 0c-62.667 36 -120.667 54 -174 54zM762 1147c44.667 -72 102.665 -108.004 173.998 -108.004
c0 -35.333 13.667 -57.666 41 -66.999c-18 -80.667 -4.66699 -147.667 40 -201c-18 -125.333 -13.667 -233 13 -323c-71.333 -142.667 -169.666 -236.667 -294.999 -282c-44.667 -89.333 -174.667 -53.333 -390 108c0 44.667 -13.333 80.334 -40 107.001
c-18 80.667 -44.667 152.334 -80 215.001c17.333 80.667 8.33301 152.334 -27 215.001c53.333 44.667 71 98.334 53 161.001l41 40c80.667 -80 116.334 -53 107.001 81c89.333 -26.667 143 4.66602 161 93.999c72 -36 139.333 -49.333 202 -40zM1567 98.998
c18 -71.333 54 -116.001 108 -134.001c36 62.667 36 116.334 0 161.001z" />
    <glyph glyph-name="e" unicode="e" horiz-adv-x="1373" 
d="M472 1238c-216.667 -190 -320.33 -415.67 -310.997 -677.003c-26.667 -36 -58.334 -40.333 -95.001 -13c-8.66699 -63.333 -4 -117.666 14 -162.999c27.333 -18 54.333 -27 81 -27c9.33301 -36 27.666 -67.667 54.999 -95c-9.33301 -108 49 -153 175 -135
c126 -171.333 270.333 -216.666 433 -135.999c108 -26.667 202.667 -3.66699 284 69c72.667 0 117.667 35.667 135 107c99.333 36.667 135.666 104.667 108.999 204c-72.667 35.333 -136 21.666 -190 -41.001c-26.667 81.333 -44.667 158 -54 230l-27 13
c27.333 9.33301 49.666 5 66.999 -13c117.333 26.667 189.666 94.334 216.999 203.001c9.33301 -26.667 27.333 -35.667 54 -27l-67 108c-45.333 316 -207.666 460.333 -486.999 433c-27.333 -54 -36.666 -108 -27.999 -162c63.333 -18.667 95 -59.667 95 -123
c26.667 36.667 36 73 28 109l67 -28c-36.667 -54 -28 -89.667 26 -107c-8 -63.333 -8 -117.333 0 -162l-40 -14c-44.667 0 -80.667 -4.66699 -108 -14c-80.667 9.33301 -152.667 9.33301 -216 0c-63.333 9.33301 -113 0.333008 -149 -27c-36.667 54 -59.334 104 -68.001 150
c-36 -136 -67.333 -136 -94 0l40 67c44.667 -90.667 98.667 -27.667 162 189c18.667 -45.333 18.667 -81.333 0 -108c36.667 36 59.334 81 68.001 135c72 -18 112.667 -58.333 122 -121c54 90 58.667 175.667 14 257l-55 -41l-26 27l-258 27
c-27.333 -45.333 -18.333 -76.666 27 -93.999zM242.004 1062l-40 39.999c-81.333 -117.333 -68 -130.666 40 -39.999zM1243 804.996c-36 -27.333 -58.333 -18.667 -67 26c18 -17.333 40.333 -26 67 -26zM567.004 533.995c45.333 0 68.0029 18 68.0029 54l26 -54
c18.667 18 28 36 28 54c108 -63.333 171.333 -36.333 190 81c54 -45.333 116.667 -72.333 188 -81c-26.667 -54 -17.334 -90 27.999 -108c-54.667 -54 -86.334 -117 -95.001 -189l-40 27c-63.333 -100 -140.333 -136.333 -231 -109
c-162.667 -81.333 -248.334 0 -257.001 244c-45.333 -9.33301 -68 -23 -68 -41l-13 149c72 -18 108 18 108 108c54 -26.667 76.667 -71.667 68 -135zM404.007 587.995c-35.333 -45.333 -48.667 -41 -40 13zM635.006 411.995c-27.333 -80.667 -14 -89.667 40 -27z
M1635.01 -115.005c0 54 -8.66699 99 -26 135c-18.667 -54 -10 -99 26 -135z" />
    <glyph glyph-name="f" unicode="f" horiz-adv-x="1552" 
d="M485 1305l-62 -61.998c-187.333 41.333 -312 -0.333984 -374 -125.001c311.333 42 467 -103.333 467 -436c-62 -166 -82.667 -321.667 -62 -467l-218 31c-353.333 -228 -21.333 -311 996 -249c-41.333 145.333 -238.333 259.666 -591 342.999
c186.667 166 176 311.333 -32 436c104 103.333 104 196.666 0 279.999c208 20.667 374.333 62.334 499 125.001c-166 62 -311.333 82.667 -436 62c-62.667 249.333 51.333 363.333 342 342c83.333 -228 239 -321.333 467 -280c-20.667 394.667 -238.667 571 -654 529
c-290 -82.667 -404 -259 -342 -529z" />
    <glyph glyph-name="g" unicode="g" horiz-adv-x="1429" 
d="M334 1230c-76.667 -114.667 -124.33 -220 -142.997 -316c-57.333 38.667 -105.333 38.667 -144 0c-18.667 -152.667 38.666 -219.334 171.999 -200.001c-18.667 -96 -18.667 -172.667 0 -230c-382 -726 -66.667 -1022 946 -888l172 172
c76.667 324.667 -28.333 506 -315 544c-152.667 96 -296 96 -430 0c-95.333 57.333 -181.333 67 -258 29l-57 143l86 58l57 -86c458.667 -19.333 649.667 143 573 487c76.667 38 124.667 95.333 144 172c57.333 -95.333 124 -171.666 200 -228.999
c57.333 172 9.66602 296 -143.001 372c-248.667 -57.333 -468.334 -57.333 -659.001 0c-76.667 -38 -143.667 -47.333 -201 -28zM821.004 857c96 -57.333 76.999 -66.999 -57.001 -28.999c0 -267.333 -143.333 -305.333 -430 -114c-57.333 114.667 -9.66602 258 143.001 430
c191.333 -38.667 306 -134.334 344 -287.001zM1022 198.001c191.333 -306 201 -411.333 29 -316c-38.667 -172 -268 -200.667 -688 -86l-86 201c95.333 134 200.333 220 315 258c134 -76.667 277.333 -95.667 430 -57z" />
    <glyph glyph-name="h" unicode="h" horiz-adv-x="1550" 
d="M201 1772c-88 8.66699 -158.34 -4.33203 -211.007 -38.999c26 -35.333 43.667 -70.666 53 -105.999c34.667 26.667 61 53 79 79c52.667 -70 118.334 -109.333 197.001 -118c-35.333 -96.667 -44 -184.334 -26 -263.001c-70.667 -88 -79.667 -176 -27 -264l-52 -52
c8.66699 -18 17.334 -27 26.001 -27c-8.66699 -44 -8.66699 -79 0 -105c8.66699 -78.667 8.66699 -149 0 -211l40 -26c-44 -78.667 -39.667 -149 13 -211c-52.667 44 -66 -8.66699 -40 -158l-39 -65c-114 17.333 -184.333 -22.334 -211 -119.001
c96.667 -87.333 189 -96 277 -26c43.333 -35.333 87 -44 131 -26c70.667 -35.333 123.334 -22.333 158.001 39l119 -26c8.66699 96 -92.333 153 -303 171c8.66699 87.333 -9 153 -53 197c26.667 44 44.334 92.333 53.001 145c-8.66699 52.667 -22 96.667 -40 132
c35.333 52.667 57.333 100.667 66 144c114 62 184.333 145.667 211 251c26 -44 56.667 -44 92 0c17.333 52.667 48 83.334 92 92.001l66 -27l13 79c210.667 -158 281 -364 211 -618c87.333 -307.333 -18 -465.333 -316 -474l-13 -53l65 -66
c26.667 18 44.334 35.667 53.001 53c88 -78.667 184.667 -96.334 290 -53.001c52.667 -43.333 96.334 -43.333 131.001 0c79.333 -34.667 149.666 -30 210.999 14c0 131.333 -65.667 183.666 -197 156.999l-53 66l13 40l-26 118l39 145
c-17.333 132 -21.666 241.667 -12.999 329c0 202 -92 329.333 -276 382c-228.667 52.667 -422 4.33398 -580 -144.999l-39 26l26 27c-8.66699 78.667 -21.667 140 -39 184c34.667 131.333 25.667 263 -27 395c-43.333 0 -82.666 13 -117.999 39zM1542.99 1561
c18 44 9.33301 70.333 -26 79z" />
    <glyph glyph-name="i" unicode="i" horiz-adv-x="1320" 
d="M485 1573c25.333 -110.667 80.334 -157.334 165.001 -140.001c119.333 -68 191.666 -13 216.999 165c-25.333 34 -38 72.333 -38 115l-26 -13c-68 50.667 -127.333 80.334 -178 89.001c-85.333 -50.667 -132 -122.667 -140 -216zM265.001 1259
c-93.333 50.667 -148.667 33.667 -166 -51c93.333 -102 186.666 -114.667 279.999 -38c17.333 -34 43 -42.667 77 -26c16.667 -42 33.667 -46 51 -12c25.333 -42.667 25.333 -85.334 0 -128.001l38 -63c-8.66699 -68 -0.333984 -127.667 24.999 -179
c-8.66699 -16.667 -17 -46.334 -25 -89.001v-140l12 -25c-25.333 -76.667 -38 -144.667 -38 -204l-51 -64c-271.333 34 -415.666 -17 -432.999 -153c60 -34 119.667 -51 179 -51l12 -38l64 51c68 -34 131.667 -29.667 191 13l51 -64c25.333 17.333 42.333 34.333 51 51
c42.667 -16.667 76.667 -16.667 102 0c42.667 -25.333 85 -29.666 127 -12.999c59.333 -42 114.666 -37.667 165.999 13l12 -64l13 26l89 51l64 -51l13 51c59.333 0 89 29.667 89 89c-51.333 25.333 -89.666 55 -114.999 89l-51 -13c-110 0 -203.333 13 -280 39l-13 -39
c-25.333 34 -55 55.333 -89 64l39 51c-17.333 76.667 -23.833 148.834 -19.5 216.501s-2.16699 131.5 -19.5 191.5c42.667 67.333 51.334 135 26.001 203c42 127.333 20.667 242 -64 344l-318 13z" />
    <glyph glyph-name="j" unicode="j" horiz-adv-x="1010" 
d="M551 1635l35.999 -146c64.667 24 125.334 11.667 182.001 -37c89.333 122 77.333 223.333 -36 304c-89.333 -16 -150 -56.333 -182 -121zM711.999 1260c-186.667 -8 -308.333 -3.66992 -365 12.9971l-24 -25l-85 -24c40.667 -40.667 85.334 -52.667 134.001 -36
c48 -65.333 80.333 -65.333 97 0c56.667 -56.667 113.334 -56.667 170.001 0c56.667 -40.667 109 -69 157 -85c8.66699 -65.333 4.66699 -122 -12 -170c32.667 -113.333 28.667 -210.666 -12 -291.999c40.667 -145.333 40.667 -286.666 0 -423.999
c40.667 -267.333 -48.333 -409 -267 -425c-32 -8 -56.333 -20.333 -73 -37l-60 49c-32.667 64.667 -73.334 113 -122.001 145c81.333 81.333 122 170.666 122 267.999c-48.667 88.667 -117.667 121 -207 97c-137.333 -146 -157.333 -312 -60 -498
c72.667 -97.333 165.667 -154 279 -170l48 -36l85 60l25 -48c282.667 40 420 205.667 412 497c-24 24.667 -24 45 0 61v61c8 80.667 -8 145.334 -48 194.001l36 61l-12 36c24 194 16 364 -24 510c24 40.667 32 89.334 24 146.001c-48.667 48 -97.334 80.333 -146.001 97
c-24 -16.667 -48 -25 -72 -25z" />
    <glyph glyph-name="k" unicode="k" horiz-adv-x="1590" 
d="M283 1666c0 -54.667 13.666 -123.007 40.999 -205.007l-14 -41l-13 -179l13 -96l-27 -41c9.33301 -109.333 9.33301 -200.666 0 -273.999c36.667 -173.333 27.667 -328.666 -27 -465.999c18 -54.667 22.333 -109.334 13 -164.001c-72.667 -36.667 -145.667 -55 -219 -55
v-69l14 -27c72.667 -9.33301 132 -41.333 178 -96c100.667 27.333 192 41 274 41c100.667 9.33301 192 32.333 274 69v55c-137.333 18 -219.666 86.333 -246.999 205c-27.333 0 -41 -13.667 -41 -41c-27.333 36.667 -36.333 73.334 -27 110.001c64 64 105 137 123 219
l96 -41c-45.333 -54.667 -68 -118.667 -68 -192c-9.33301 -110 36.334 -155.667 137.001 -137c-64 73.333 -64 146.333 0 219c8.66699 -136.667 54.334 -205 137.001 -205c-64 -73.333 -73.333 -165 -28 -275l83 28l13 -28h206c36.667 -27.333 77.667 -41 123 -41l69 69
l41 -41c27.333 54.667 63.666 91 108.999 109v69c-173.333 -27.333 -305.666 41.334 -396.999 206.001h-55c9.33301 36 0.333008 72.333 -27 109h-55l27 14c-18 36.667 -22.333 73.334 -13 110.001c-182.667 127.333 -109.667 310 219 548
c73.333 -27.333 132.666 -18.333 177.999 27l41 -68c27.333 54.667 45.666 104.667 54.999 150c-274 73.333 -525.333 73.333 -754 0c9.33301 -91.333 46 -114 110 -68l68 -96c-27.333 -27.333 -59.333 -22.666 -96 14.001l14 -69c-64 -27.333 -109.667 -64 -137 -110
c-91.333 0 -128 -36.333 -110 -109c-54.667 0 -95.667 18.333 -123 55l-27 -110c0 82 -4.66699 136.667 -14 164c18 73.333 13.333 142 -14 206c18.667 36.667 28 73.334 28 110.001l-28 13l14 55c-9.33301 82.667 -23 151.334 -41 206.001c36.667 82 55 164 55 246
c-73.333 46 -142 60 -206 42c-64 36 -123.333 54 -178 54c-36.667 -100 41 -159.333 233 -178zM967.999 171.993c-8.66699 36.667 -22.333 64.334 -41 83.001c27.333 -18.667 41 -46.334 41 -83.001zM804 171.993c45.333 0 49.667 23 13 69z" />
    <glyph glyph-name="l" unicode="l" horiz-adv-x="1396" 
d="M264 1827c-97.333 18 -155.001 -17.667 -173.001 -107c124.667 -62 245 -88.667 361 -80c71.333 0 107 -35.667 107 -107c-36 -34.667 -80.667 -56.667 -134 -66c62 -44 102 -53 120 -27c26.667 -53.333 57.667 -93.333 93 -120c-35.333 -44.667 -53 -89 -53 -133
c0 -26.667 -8.66699 -49 -26 -67l-41 67c0 -62 22.333 -106.667 67 -134c-35.333 -62 -53 -115 -53 -159c8.66699 -27.333 26.334 -45.333 53.001 -54l-26 -41l12 -26l14 -106v-187c-26.667 -62 -35.334 -120 -26.001 -174l-54 -40l27 -13
c-98.667 8.66699 -161 -13.666 -187 -66.999c-160.667 80 -263 40 -307 -120l26 -67l81 13l26 27h134l54 -27l119 27l27 -27c44 9.33301 88.333 5 133 -13l27 13l26 -13c71.333 0 133.666 -4.33301 186.999 -13l27 -67l27 80c160 -35.333 298 -35.333 414 0
c18 98 -8.66699 173.667 -80 227c-62.667 8.66699 -120.667 8.66699 -174 0c-98 89.333 -200.333 107.333 -307 54l13 119c-8.66699 89.333 -21.667 165 -39 227l26 14c-9.33301 88.667 -0.333008 168.667 27 240l-27 53c0 53.333 9 102.333 27 147
c-35.333 124.667 -40 235.667 -14 333l-13 174c18 -18 40.333 -22.333 67 -13c-54 53.333 -67.333 115.666 -40 186.999c-71.333 34.667 -124.666 70 -159.999 106c-133.333 -36 -253.666 -31.333 -360.999 14z" />
    <glyph glyph-name="m" unicode="m" horiz-adv-x="1634" 
d="M834 1158c-54 107.333 -134.665 152.334 -241.998 135.001c0 -72 27 -130.333 81 -175c-18 -45.333 -13.667 -81.333 13 -108c-8.66699 -80.667 4.66602 -152.334 39.999 -215.001c-62.667 -89.333 -58 -161 14 -215c-44.667 -62.667 -49.334 -170.334 -14.001 -323.001
l-27 -13c-26.667 -54 -53.334 -99 -80.001 -135l27 -67c62.667 -36 120.667 -40.333 174 -13c108 -63.333 202.333 -54.666 283 26.001c71.333 0 125 13.667 161 41c90 -125.333 166.333 -134.333 229 -27c36 -54 80.667 -67.333 134 -40
c-53.333 80.667 -107 138.667 -161 174l-14 41l-13 107c-36 134.667 -54 224.334 -54 269.001c80.667 125.333 85.334 251 14.001 377c18 80.667 9 156.667 -27 228h-41c-98 80.667 -201 121 -309 121c-89.333 -62.667 -152 -125.334 -188 -188.001zM162.002 1279
l-121.001 -27v-54c107.333 18 170 -76 188 -282c44.667 36 71.334 67.333 80.001 94l68 -67c36 125.333 103 210.333 201 255v81c-116 26.667 -210 -0.333008 -282 -81c-18 54 -54 85.667 -108 95zM1210 1172l-0.00195312 -122l54 -26
c-8.66699 -72 0.333008 -130.333 27 -175l-40 -148c-18 -54 -36 -94.333 -54 -121c18 -62.667 40.333 -116.667 67 -162c-36 -53.333 -45 -116 -27 -188l-40 67c8.66699 -98 -40.666 -156 -147.999 -174l-121 67l13 27c-26.667 26.667 -31 62.334 -13 107.001l-40 41l13 27
l-27 215l14 40c18 107.333 35.667 188 53 242l-40 54c44.667 54 71.667 107.667 81 161c44.667 45.333 89.334 76.666 134.001 93.999c36 -17.333 67.333 -26 94 -26zM174.999 782.001l13 -54.001c-35.333 -152.667 -35.333 -291.667 0 -417
c-8.66699 -72 -8.66699 -134.667 0 -188c36 -27.333 63 -54.333 81 -81c54 134.667 49.667 264.667 -13 390c80.667 125.333 76 242 -14 350c9.33301 44.667 9.33301 80.334 0 107.001h-40zM53.999 109c80.667 -125.333 103 -107.333 67 54zM443.999 109l-54 14.001
c0 -134.667 18 -139.334 54 -14.001z" />
    <glyph glyph-name="n" unicode="n" horiz-adv-x="1650" 
d="M1551 1619c43.333 -61.333 65 -61.333 65 0l-26 52zM148 1248c54 -44.667 108.333 -76.002 163 -94.002c-18 -117.333 -9 -221 27 -311l-27 -28c-18 -36 -36.333 -63 -55 -81c27.333 -44.667 54.666 -80.667 81.999 -108v-54c-54.667 -54 -72.667 -117 -54 -189
c0 -36.667 9 -64 27 -82c-45.333 -8.66699 -72.666 -31 -81.999 -67c-90 90 -153 35.667 -189 -163l81 -40c45.333 8.66699 86 -0.333008 122 -27c90 8.66699 162 35.667 216 81c18 -27.333 36.333 -45.333 55 -54c18 8.66699 45 8.66699 81 0c135.333 18 252.333 9 351 -27
c126.667 26.667 239.667 17.667 339 -27l94 54h41c54 -36 103.667 -45 149 -27c18 -45.333 49.333 -63.333 94 -54v148c-62.667 18.667 -116.667 55 -162 109c-63.333 0 -122 13.333 -176 40c-8.66699 126.667 -35.667 230.334 -81 311.001
c-63.333 -108 -86 -211.667 -68 -311c-62.667 0 -94 31.667 -94 95h-54c-36 -54 -58.667 -103.667 -68 -149c-54 -18 -90 -45 -108 -81c-18 9.33301 -36 9.33301 -54 0c-36 63.333 -85.667 99.333 -149 108c-45.333 -8.66699 -77 -26.667 -95 -54l-95 81l-27 41v149
c0 26.667 -9 49 -27 67c18 126.667 18 235 0 325l41 68c81.333 90 131 153 149 189c36 -18 67.333 -27 94 -27c36.667 90 86.334 162 149.001 216c-90 45.333 -171 32 -243 -40c-72.667 18 -131.334 18 -176.001 0c-45.333 63.333 -104 95 -176 95
c-45.333 -27.333 -77 -54.666 -95 -81.999zM865 1248c108.667 90.667 171.999 63.666 189.999 -81.001c62.667 9.33301 89.667 -17.667 81 -81c26.667 9.33301 49.334 5 68.001 -13c-27.333 -81.333 -32 -158 -14 -230c144 18 175.667 94.667 95 230
c-63.333 189.333 -194.333 275 -393 257c-18 -27.333 -27 -54.666 -27 -81.999zM499.999 1113l-54 -12.999c-9.33301 -36.667 -14 -23.334 -14 39.999c18 -18 40.667 -27 68 -27zM-370.001 -148.002l8 8.00098c8 -10.667 5.33301 -13.334 -8 -8.00098zM1068 1005l-40 40
c-9.33301 -80.667 4 -94 40 -40zM1217 571.999c135.333 153.333 126.333 239 -27 257c-9.33301 -99.333 -0.333008 -185 27 -257zM1109 733.999l-54 68c-27.333 -126 -9.33301 -148.667 54 -68zM242.999 571.999l-54 13c0 -44.667 18 -49 54 -13zM242.999 354.999l-54 55
c-18 -90.667 0 -109 54 -55z" />
    <glyph glyph-name="o" unicode="o" horiz-adv-x="1270" 
d="M742 1335l-12.999 -39c-61.333 26 -122.666 21.667 -183.999 -13l-39 39c-236.667 -70 -372.334 -214.333 -407.001 -433c-44 -61.333 -70.333 -131.666 -79 -210.999c17.333 -315.333 144.333 -547.333 381 -696l52 26c122.667 -87.333 236.667 -87.333 342 0
c166.667 -8.66699 293.667 92.333 381 303l39 39l-13 66c35.333 131.333 39.666 253.666 12.999 366.999l13 92h-26c-87.333 228 -236 381.333 -446 460h-14zM519.001 1099c70 17.333 131.336 4 184.003 -40l66 66c26 -35.333 39 -70.333 39 -105l40 -40
c78.667 -43.333 139.667 -91.333 183 -144c-26 -114 -21.333 -219 14 -315c-52.667 -70 -70.334 -140 -53.001 -210c-44 -18 -83.333 -22.667 -118 -14c-61.333 -131.333 -197 -166.333 -407 -105l-27 53h-92c61.333 34.667 52.666 69.667 -26.001 105l13 66
c-104.667 96 -135.334 201 -92.001 315l-39 118l26 26l79 66c61.333 78.667 127 135.667 197 171v39zM164.004 875l27 27c17.333 -26.667 8.33301 -35.667 -27 -27z" />
    <glyph glyph-name="p" unicode="p" horiz-adv-x="1400" 
d="M702 1235c83.333 -28 148.328 -69.6689 194.995 -125.002l28 14l27 -14c46.667 -46.667 93 -84 139 -112l28 -55v-84l14 -27c46.667 -84 74.667 -163 84 -237c-37.333 -27.333 -56 -64.333 -56 -111l-42 -70c-46 -46 -73.667 -96.667 -83 -152
c-28 -18.667 -46.667 -42 -56 -70l-69 42c-56 -56 -121 -65.333 -195 -28c-28 -139.333 -93 -167 -195 -83c-36.667 -9.33301 -69 -5 -97 13c9.33301 -36.667 -4.66699 -55 -42 -55c18.667 28 46.667 51 84 69c-28 111.333 -23.333 218 14 320l-56 84
c-157.333 -232 -194.333 -223 -111 27l-28 112c83.333 157.333 83.333 231.333 0 222c74 28 97 79 69 153c74.667 -18.667 130.334 4.33301 167.001 69c74.667 -55.333 130.334 -8.66602 167.001 140.001c-102 18 -171.333 -10 -208 -84
c-56 9.33301 -93.333 -13.667 -112 -69c-27.333 36.667 -45.666 32 -54.999 -14l-42 27c28 84 0.333008 135 -83 153c-28 -18 -42 -41 -42 -69c0 -102 18.667 -185.333 56 -250l-14 -42c0 -55.333 4.66699 -101.666 14 -138.999c0 -102 4.33301 -180.667 13 -236l-13 -209
l41 -28c-36.667 -18.667 -64.334 -41.667 -83.001 -69l55 -209c-36.667 -92.667 -45.667 -180.667 -27 -264l27 -14c-55.333 -37.333 -87.666 -83.666 -96.999 -138.999c-37.333 18.667 -65 9.33398 -83 -27.999c0 -64.667 4.66699 -120.334 14 -167.001
c102 -36.667 171.333 -18 208 56l70 28c212.667 -148.667 384 -116.334 514 96.999c46.667 74 -13.666 111 -180.999 111l-69 -139l14 125c-37.333 9.33301 -70 4.66602 -98 -14.001l-55 84c-46.667 18.667 -83.667 46.334 -111 83.001l125 181l97 -56
c37.333 37.333 74.333 28.333 111 -27l14 41c56 -27.333 107 -32 153 -14l84 -27l13 97l56 -70l42 98c166.667 74 273.334 199 320.001 375l-70 237c37.333 83.333 32.666 157.333 -14.001 222c18.667 37.333 23.334 74.333 14.001 111l-56 -14
c-120 148.667 -263.667 246 -431 292h-55zM-49.0049 1165c46.667 56 42 97.667 -14 125c-36.667 -46 -32 -87.667 14 -125zM-118.005 1263h-42c18.667 -65.333 32.667 -65.333 42 0zM1244 1040c56 37.333 56 69.667 0 97v-97zM284.995 -30.001
c-18.667 55.333 -4.66699 143.333 42 264c27.333 -102 13.333 -190 -42 -264zM1425 -44.001c92.667 -111.333 111.333 -79 56 97z" />
    <glyph glyph-name="q" unicode="q" horiz-adv-x="1333" 
d="M428 1214c-17.333 17.333 -39 26 -65 26c-138 -129.333 -215.333 -276 -232 -440l-78 -51l13 -26c0 -103.333 -4.33301 -189.666 -13 -258.999l65 -64c42.667 -129.333 111.667 -228.666 207 -297.999h38l13 -38l39 -26c60 -43.333 111.667 -69.333 155 -78l78 -77
c17.333 8 26 20.667 26 38c34 -42.667 77 -59.667 129 -51l26 -52c17.333 8.66699 26 17.334 26 26.001c34 -86.667 -52.333 -138.334 -259 -155.001c-26 -43.333 -39 -82.333 -39 -117c86.667 -42.667 160 -55.667 220 -39l26 -12l90 -39
c34.667 51.333 73.667 81.333 117 90c25.333 -26 51 -30.333 77 -13c60.667 -112 172.667 -116.333 336 -13l-64 91c-52 26 -86.667 26 -104 0l-90 116c17.333 17.333 13 34.666 -13 51.999c-8.66699 86 -8.66699 159.333 0 220l-13 26c8.66699 60 0 116 -26 168
c52 129.333 60.667 258.666 26 387.999l13 25c-8.66699 34.667 -30.334 52 -65.001 52c26 34.667 43.333 69.334 52 104.001v103c-8.66699 103.333 0 193.666 26 270.999c-78 78 -125.333 69.667 -142 -25c-129.333 86 -254.333 137.667 -375 155
c-95.333 0 -168.666 -26 -219.999 -78zM441 1150c68.667 -60.667 150.672 -56.6709 246.005 11.9961c-17.333 -16.667 -26 -38 -26 -64l38 -39c95.333 68.667 138.666 30 129.999 -116c42.667 0 77 -17.333 103 -52c-34.667 -103.333 -17.334 -176.666 51.999 -219.999
l13 -52l-91 -12l39 -65c-34.667 -43.333 -52 -95 -52 -155c-77.333 -52 -129 -116.667 -155 -194c-42.667 0 -85.667 -8.66699 -129 -26l-13 39l-78 13c-68.667 51.333 -137.334 90 -206.001 116v78l-52 13c0 42.667 -8.66699 77 -26 103
c26 68.667 30.333 133.334 13 194.001c-60.667 -43.333 -95.334 -21.666 -104.001 65.001c43.333 16.667 78 3.66699 104 -39c17.333 77.333 21.666 146.333 12.999 207c34.667 -69.333 52 -56.666 52 38.001c94.667 0 129 64.667 103 194z" />
    <glyph glyph-name="r" unicode="r" horiz-adv-x="1653" 
d="M129 1166l26.999 -26.999l146 -13c17.333 -53.333 52.666 -71 105.999 -53v-40c26.667 18 53 27 79 27c9.33301 -97.333 0.666016 -186 -26.001 -266c8.66699 -61.333 26.334 -110 53.001 -146c-44 -123.333 -57.333 -229.333 -40 -318l-40 -119
c-212 26 -344.667 -9.33301 -398 -106c26.667 -26.667 44.334 -57.667 53.001 -93c53.333 0 93.333 17.667 120 53c114.667 -62 260.667 -71 438 -27l53 -79c44 17.333 79.333 39.333 106 66c141.333 -44 274 -22 398 66l-14 106c-123.333 -8.66699 -229.333 9 -318 53
c-106 -52.667 -154.667 13.666 -146 198.999c-35.333 248 26.667 465 186 651c62 -36 124 -27.333 186 26c26 -17.333 52.333 -17.333 79 0c26.667 -53.333 57.667 -88.666 93 -105.999c-62 -44 -88.667 -101.667 -80 -173c124 -114.667 230.333 -141 319 -79
c70.667 17.333 84 61.666 40 132.999c26 44 43.667 88 53 132c-203.333 300.667 -451 367 -743 199l-120 -13c-141.333 106 -313.666 141.333 -516.999 106c-53.333 -44 -84.333 -97 -93 -159zM-17.001 1086c62 18 66.667 35.667 14 53zM1681 -40.999
c44.667 -18 53.667 -0.332031 27 53.001c-8.66699 -26.667 -17.667 -44.334 -27 -53.001z" />
    <glyph glyph-name="s" unicode="s" horiz-adv-x="1320" 
d="M612 1274c-60.667 26 -104.003 8.66699 -130.003 -52c-78 8.66699 -125.667 -22 -143 -92c-78 52.667 -173.667 -51.333 -287 -312c78.667 -104.667 187.334 -139.667 326.001 -105c-69.333 -78 -43.333 -134.333 78 -169c34.667 17.333 52 43.333 52 78
c26 -112.667 60.667 -134.334 104 -65.001c61.333 -43.333 122.333 -43.333 183 0l39 -39c-8.66699 -95.333 -13 -169 -13 -221c191.333 26 217.333 56.333 78 91l78 26c34.667 -69.333 60.667 -73.666 78 -12.999c-8.66699 26 -26 39 -52 39c70 8.66699 91.667 -61 65 -209
c-26 0 -47.667 13 -65 39c-52 -130 -134.333 -177.667 -247 -143c-52 60.667 -47.667 113 13 157c-60.667 52 -91 12.667 -91 -118l-13 52c-139.333 78.667 -191.666 52.667 -156.999 -78h118c-52.667 -8.66699 -96.334 -21.667 -131.001 -39
c-34.667 43.333 -78 69.333 -130 78v-78l13 -26c34.667 8.66699 52 26 52 52c8.66699 -95.333 52 -134.333 130 -117c61.333 -8.66699 118 -26 170 -52l13 39c17.333 -34.667 43.333 -56.334 78 -65.001l52 65c52 -17.333 91 -26 117 -26l39 52c182.667 52 261 165 235 339
c-8.66699 17.333 -17.334 26 -26.001 26c8.66699 69.333 -4.33301 130 -39 182c-69.333 43.333 -139 60.666 -209 51.999c-69.333 130.667 -121.333 174.334 -156 131.001c-34.667 69.333 -78 95.333 -130 78c-96 17.333 -113.333 -26.334 -52 -131.001l-40 13
c-8.66699 70 -39 126.667 -91 170c-26 -26 -43.333 -56.333 -52 -91c-26 60.667 -69.333 73.667 -130 39c-43.333 34.667 -86.666 60.667 -129.999 78c78 78 125.667 160.333 143 247l52 -78c60.667 34.667 95.334 17.334 104.001 -51.999c200 95.333 313 78 339 -52l26 26
l78 39c34.667 -34.667 69.334 -52 104.001 -52c0 -95.333 30.667 -164.666 92 -207.999l13 39v338l-13 92c-78.667 -8.66699 -139.667 -35 -183 -79c-60.667 35.333 -104 74.666 -130 117.999l-26 -39c-34.667 34.667 -73.667 56.334 -117 65.001
c-34.667 -8.66699 -61 -21.667 -79 -39zM572.997 713c-34.667 -69.333 -47.667 -51.667 -39 53zM755.997 660.999c-8.66699 -34.667 0 -65 26 -91l-13 26c-34.667 -26 -69.334 -26 -104.001 0c8.66699 17.333 17.334 43.333 26.001 78zM129.997 165.999
c0 -78 8.66797 -147.334 26.001 -208.001l14 26c43.333 52 86.666 95.333 129.999 130v143c-26 87.333 -69.333 161.333 -130 222c-70 -95.333 -83.333 -199.666 -40 -312.999zM-156.002 335.998c69.333 -52.667 95.333 -35.333 78 52c0 43.333 -21.667 69.333 -65 78
c0 -52 -4.33301 -95.333 -13 -130zM1355 387.999l-39 39c-34.667 -60.667 -21.667 -73.667 39 -39zM820.998 217.999c52 8.66699 52 26 0 52v-52z" />
    <glyph glyph-name="t" unicode="t" horiz-adv-x="1480" 
d="M509 1830l15 -85.001c-28.667 -86 -38.334 -167 -29.001 -243c-57.333 -9.33301 -95.333 -38 -114 -86c-152 48 -275.667 15 -371 -99c85.333 -86 185.333 -105 300 -57c38 -28.667 76 -48 114 -58l14 -85c-19.333 -95.333 -19.333 -181 0 -257
c-47.333 -228 -38 -437 28 -627c180.667 -257.333 404.334 -324 671.001 -200l43 -43c18.667 57.333 42.334 100 71.001 128l114 172c19.333 -19.333 43 -24.333 71 -15c0 48 -14 86 -42 114c47.333 162 23.333 285.667 -72 371l-42 -42l-15 -29c-76 -38 -133 -76 -171 -114
c38 -114 0 -190 -114 -228l-14 -29c-104.667 -47.333 -185.667 -28.333 -243 57l-71 14c66.667 124 66.667 238.333 0 343c56.667 104.667 66 204.334 28 299.001l43 100h-43c48 9.33301 76.667 33 86 71c47.333 -66 76 -66 86 0c66 -94.667 142 -70.667 228 72
c47.333 -114 118.666 -138 213.999 -72c76 10 128.333 48.333 157 115c-57.333 47.333 -105 80.333 -143 99h-43c-66.667 0 -123.667 -4.66699 -171 -14c-95.333 9.33301 -176 9.33301 -242 0c-48 19.333 -91 24 -129 14c0 19.333 -9.33301 29 -28 29l-43 100
c56.667 161.333 37.667 275.333 -57 342c-9.33301 -47.333 -38 -66.333 -86 -57z" />
    <glyph glyph-name="u" unicode="u" horiz-adv-x="1620" 
d="M229 1077c0 -80 17.667 -146.334 53 -199.001l-13 -40v-80l13 -26v-213l-26 -26c35.333 -70.667 35.333 -141.667 0 -213c62 -150 154.667 -256 278 -318c115.333 -26.667 195 -9 239 53c88.667 -8.66699 159.667 17.666 213 78.999
c35.333 -17.333 61.666 -8.33301 78.999 27l27 -13c35.333 -88.667 97.333 -128.667 186 -120c115.333 -88.667 203.666 -71 264.999 53h40c-52.667 80 -136.667 111 -252 93v40c-26.667 88.667 -44.334 164 -53.001 226c0 44 8.66699 79.333 26 106v345l40 13l-40 27
c18 124 13.667 234.667 -13 332c-159.333 79.333 -296.333 75 -411 -13l-27 -80c88.667 -44 159.334 -39.667 212.001 13l67 -53l-13 -66l13 -252l-13 -40l13 -213l-27 14c-17.333 -53.333 -43.666 -93.333 -78.999 -120v-66c-53.333 -35.333 -84.333 -75.333 -93 -120
l-173 -146c-124 26.667 -225.667 75.334 -305 146.001c-26.667 159.333 -35.667 292.333 -27 399l-40 26c26.667 53.333 31.334 106.333 14.001 159c52.667 88.667 68 177.334 46 266.001s-64 159.334 -126 212.001c-380.667 -70.667 -411.667 -141.334 -93 -212.001z" />
    <glyph glyph-name="v" unicode="v" horiz-adv-x="1480" 
d="M985 1265l-38.998 -64.001c26 -77.333 69 -133.333 129 -168v-102c-52 -60 -69.333 -128.667 -52 -206c-85.333 -94 -145.333 -192.667 -180 -296c-25.333 34.667 -51 43.334 -77 26.001l-26 64c-51.333 94.667 -81.333 184.667 -90 270l-64 26
c8.66699 111.333 -21.333 197 -90 257l13 51c146 0 201.667 47.333 167 142c-51.333 8.66699 -94 13 -128 13h-489l-25 -39l12 -77c111.333 34 158.666 21 141.999 -39c60 17.333 111.333 9 154 -25l13 -26c0 -68.667 8.66699 -133 26 -193c16.667 -76.667 55 -128 115 -154
l-13 -51l39 -52l13 -64v-90l25 -26c0 -25.333 4.33301 -42.333 13 -51l39 -103l51 -218l90 -65c68.667 -8 128.667 13.667 180 65v38l26 39v38c17.333 51.333 47.333 94.333 90 129c8.66699 60 25.667 107 51 141l13 206l26 25c34 112 85.333 202 154 270v129
c102.667 -26 154 21 154 141c-76.667 42.667 -149.334 55.667 -218.001 39l-77 38c-51.333 -34 -107 -46.667 -167 -38zM1486 1226l38 -51c43.333 34 43.333 59.667 0 77z" />
    <glyph glyph-name="w" unicode="w" horiz-adv-x="1420" 
d="M1506 1634l-51.999 13c-8.66699 -60.667 8.66602 -65 51.999 -13zM465.001 1218c34.667 -34.667 51.9971 -69.3291 51.9971 -103.996c26 17.333 47.667 17.333 65 0c-26 -60.667 -34.667 -130 -26 -208c52 8.66699 86.667 -8.66602 104 -51.999
c34.667 8.66699 52 -4.33301 52 -39l52 -13l-52 -13v-91l26 -52c0 -95.333 8.66699 -173.333 26 -234c-17.333 -26.667 -17.333 -57.334 0 -92.001l66 -91c-8.66699 -260 60.666 -316.333 207.999 -169c43.333 8.66699 78 26 104 52l-26 52c34.667 52 43.334 104 26.001 156
c17.333 26 26 52 26 78c69.333 87.333 86.666 170 51.999 248c34.667 86.667 43.334 169 26.001 247c52 69.333 82.333 138.666 91 207.999c-8.66699 34.667 -30.334 52 -65.001 52c121.333 17.333 143 60.666 65 129.999c-78 -34.667 -134.333 -30.334 -169 12.999
c-52 -34.667 -99.667 -60.667 -143 -78c34.667 -26 69.334 -43.333 104.001 -52c-26 -95.333 -21.667 -182 13 -260c-43.333 -26 -60.666 -60.667 -51.999 -104c-34.667 -26 -39 -60.667 -13 -104c-52 -26 -95.333 -39 -130 -39c34.667 -52 43.334 -117 26.001 -195l-65 117
c-43.333 95.333 -52 186.333 -26 273l-79 39l92 65c-43.333 -8.66699 -82.666 4.33301 -117.999 39c17.333 17.333 26 39 26 65c96 -26 105 -13 27 39c52 17.333 82.333 43.333 91 78c-69.333 69.333 -143.333 112.666 -222 129.999c-86.667 -52 -164.667 -82.333 -234 -91z
M126.998 1062c-34.667 -34.667 -60.668 -69.332 -78.001 -103.999c86.667 -26 121.334 43.333 104.001 208c60.667 -60.667 104 -43.334 130 51.999l-13 26c-34.667 8.66699 -67.167 13 -97.5 13s-62.833 8.66699 -97.5 26c-104 -104 -86.667 -177.667 52 -221z
M529.997 750.007l-104.002 -299c-17.333 52 -34.666 60.667 -51.999 26c43.333 -43.333 43.333 -87 0 -131c-17.333 44 -39 79 -65 105c-17.333 52 -26 99.667 -26 143c-43.333 69.333 -65 138.666 -65 207.999c-34.667 17.333 -56.334 39 -65.001 65
c8.66699 -52 21.667 -95.333 39 -130c-60.667 -112.667 -52 -212.334 26 -299.001c-26 -96 -21.667 -183 13 -261c0 -86.667 34.667 -138.667 104 -156c190.667 17.333 260 152 208 404c60.667 69.333 82.334 156 65.001 260h-78
c86.667 8.66699 108.334 43.334 65.001 104.001c17.333 34.667 26 69.334 26 104.001h-91c-26 -52 -26 -99.667 0 -143z" />
    <glyph glyph-name="x" unicode="x" horiz-adv-x="1648" 
d="M313 1280c-103.333 26 -154.999 -16.9971 -154.999 -128.997c78 -26 142.667 -65 194 -117l117 26c-26 -60.667 -13 -73.667 39 -39c0 -112.667 39 -186.334 117 -221.001l-65 -26c-17.333 -52 -43.333 -95 -78 -129l26 -26c0 -69.333 13 -130 39 -182
c-69.333 -17.333 -95.333 -52 -78 -104c-26 -8.66699 -60.667 -30.334 -104 -65.001c-77.333 95.333 -146.333 86.666 -207 -26.001c-69.333 0 -117 -26 -143 -78c112.667 -94.667 233.667 -137.667 363 -129c147.333 -17.333 277.333 -4.33301 390 39
c8.66699 86 -34.666 116 -129.999 90c26 43.333 17.333 78 -26 104c104 52 169 125.667 195 221c60 17.333 94.333 -17.334 103 -104.001l13 78c17.333 -104 43.333 -130 78 -78l13 -39c-8.66699 -60.667 -4.33398 -117 12.999 -169l-39 -13
c-17.333 60.667 -34.666 43.667 -51.999 -51l65 -104l143 65h39c17.333 -26 34.666 -43.333 51.999 -52c69.333 0 125.333 -8.66699 168 -26c60.667 78 134.334 78 221.001 0c34.667 26 65 30.333 91 13c0 69.333 -4.33301 125.333 -13 168l-143 -25
c-69.333 51.333 -147 81.333 -233 90c-95.333 78 -160.333 156 -195 234h-39c26 34.667 39 69.334 39 104.001c-34.667 -17.333 -47.667 -43.333 -39 -78c-8.66699 52 -39 78 -91 78l-13 52c17.333 26 43.333 43.333 78 52c0 60 13 111.667 39 155l39 13l26 52
c26 78 56.333 143 91 195c60.667 -17.333 103.667 0 129 52l65 -65c-34.667 120.667 -8.66699 138 78 52l65 65c-43.333 16.667 -82.333 21 -117 13c-26 51.333 -43.333 90 -52 116c-77.333 -69.333 -159.333 -91 -246 -65l-65 -39l-39 52l-39 -64l39 -52
c43.333 17.333 65 4.33301 65 -39c-26 -43.333 -60.667 -69.333 -104 -78c17.333 -34.667 8.66602 -60.667 -26.001 -78c-17.333 -34.667 -39 -39 -65 -13c-8.66699 -69.333 -30.334 -130 -65.001 -182c-216 190.667 -254.667 338 -116 442l-65 64l-26 -26
c-78 34.667 -156 52 -234 52l-39 39zM430.001 567.003c-34.667 -43.333 -47.667 -91 -39 -143c-60.667 -69.333 -47.667 -78 39 -26v91l39 -26l-26 104h-13z" />
    <glyph glyph-name="y" unicode="y" horiz-adv-x="1480" 
d="M96 1121c111.333 -51.333 188.669 -47 232.002 13l38 -128l154 -78c-16.667 -34 -25 -72.333 -25 -115c42.667 -42.667 55.334 -89.667 38.001 -141l116 -39c0 -128.667 38.333 -235.667 115 -321c-68 -102.667 -80.667 -205.667 -38 -309
c-60 -42.667 -103 -94 -129 -154c-34 -120 -89.667 -150 -167 -90l-12 -51c25.333 0 16.666 -8.66699 -26.001 -26c8.66699 43.333 -12.666 60.666 -63.999 51.999c145.333 60 166.666 162.667 63.999 308c-34.667 0 -60.334 17 -77.001 51l-52 -12
c-42.667 25.333 -94 38 -154 38c-76.667 -128.667 -106.667 -257 -90 -385c34.667 8.66699 64.667 -8.66602 90 -51.999c17.333 -60 38.666 -107 63.999 -141c43.333 -8.66699 80 -19.334 110 -32.001s53.333 -10.667 70 6c94.667 -34 180.334 -51 257.001 -51l26 26l64 51
c60 17.333 107.333 47.333 142 90l38 128l13 52l38 77l52 141c34 128.667 81 231.667 141 309l26 179l26 65v38c76.667 102.667 123.667 201.334 141 296.001c25.333 68 38 132 38 192c60 0 98.667 25.667 116 77c-42.667 26 -68.334 13.333 -77.001 -38
c-26 77.333 -77.333 98.666 -154 63.999c-51.333 68.667 -77 60 -77 -26c-34.667 34.667 -73.334 45.5 -116.001 32.5s-59.667 -49.5 -51 -109.5c76.667 0 145 -25.667 205 -77c0 26 8.66699 43.333 26 52c-42.667 -51.333 -55.667 -103 -39 -155
c-51.333 -25.333 -59.666 -59.333 -24.999 -102c-51.333 -8.66699 -94.333 -26 -129 -52v-154c-16.667 51.333 -25 -8.66699 -25 -180l-26 39l-39 103c-68 -26 -136.333 33.667 -205 179c-111.333 120 -124.333 210 -39 270c-8.66699 51.333 38.666 77 141.999 77l25 77
l-25 13c-111.333 0 -210 25.667 -296 77c-111.333 -51.333 -205.666 -51.333 -282.999 0c-51.333 -60 -98.333 -60 -141 0c-60 -25.333 -68.667 -76.666 -26 -153.999zM1009 877c51.333 -68.667 81.001 -64.333 89.001 13c43.333 60 43.333 98.667 0 116
c-42.667 -52 -72.334 -95 -89.001 -129z" />
    <glyph glyph-name="z" unicode="z" horiz-adv-x="1280" 
d="M454 1254c-54 36 -94.666 22.6641 -121.999 -40.0029c-162 54 -234 -9.33301 -216 -190c-54 -8.66699 -76.667 -44.667 -68 -108c72.667 -36 109 -85.667 109 -149c36 9.33301 67.333 5 94 -13c54 80.667 40.667 139.334 -40 176.001
c98.667 62.667 125.667 152.667 81 270c63.333 -18 99.333 -54 108 -108l81 40c90 -62.667 144 -44.334 162 54.999c45.333 -9.33301 81.666 -5 108.999 13c18 -54 54 -85.667 108 -95l-27 -27c0 -72 -18 -135 -54 -189c-81.333 -27.333 -131 -77 -149 -149l-41 27l41 -40
c-180.667 -45.333 -298 -158 -352 -338l-40 13l-14 -81c-99.333 -63.333 -153.333 -153.666 -162 -270.999l40 -81c108.667 -8.66699 199 5 271 41c72 -54 144 -67.667 216 -41l41 -27l13 54l149 -94l54 40l27 -13l14 54c54 -9.33301 99 4 135 40
c36 -26.667 67.667 -44.667 95 -54c45.333 18 81.333 36 108 54l14 41l-14 54l27 68l-13 108c8.66699 81.333 8.66699 153.333 0 216l-41 41c-81.333 -18 -117.333 -67.667 -108 -149c-108 -54 -162 -139.667 -162 -257c-63.333 -26.667 -113 -13 -149 41l-41 -54
c-72 36 -135 31.333 -189 -14l-81 54c18 45.333 9 81.333 -27 108c36 27.333 63 54.333 81 81v28c90 62.667 148.667 148.334 176 257.001c36 26.667 72 44.667 108 54v67l67 14c63.333 62.667 104 130.334 122 203.001l27 -14c27.333 36 59 58.667 95 68
c8.66699 54 22 99 40 135c-54 81.333 -112.333 95 -175 41c-90.667 72 -172 72 -244 0l-27 81c-72 -9.33301 -139.667 -9.33301 -203 0zM414.001 104.997c-18 54 -22.667 108 -14 162c54 -36 58.667 -90 14 -162zM-45.999 63.9971c8.66699 -45.333 31 -59 67 -41l-27 95z
" />
    <glyph glyph-name="braceleft" unicode="{" horiz-adv-x="1180" 
d="M402 1568c48 12 78.3359 44.999 91.0029 98.999c8.66699 53.333 34.334 80 77.001 80c21.333 0 41.666 -3.66699 60.999 -11c26.667 16 49.667 38 69 66c15.333 18 32.666 27 51.999 27c14.667 0 28.667 -2.66699 42 -8l22 -21c-22 -46 -65 -78 -129 -96
c-67.333 -11.333 -101 -49.666 -101 -114.999c0 -22 -2.66699 -46 -8 -72l-21 -88l-4 -31c0 -45.333 26 -80.333 78 -105l6 -63l-6 -55c-4.66699 -28 -10.334 -46.667 -17.001 -56c-22 -48 -61.667 -88.333 -119 -121l-25 2l-29 -4c-17.333 -4 -30.333 4 -39 24
c13.333 14 25.166 32.333 35.499 55s15.5 44.667 15.5 66c0 41.333 -12.667 87.333 -38 138l-47 140l-4 34c0 34.667 12.667 73 38 115zM426.003 533.999c-12 22 -18.001 45.332 -18.001 69.999l5 35l11 47l8 44c0 40.667 -25 73.667 -75 99l-31 2l-33 -3
c-21.333 -4.66699 -38 2.66602 -50 21.999l-4 27c0 12 4.33301 22 13 30l36 50c54.667 -36.667 130 -95 226 -175c78 -65.333 117 -148 117 -248l9 -49c0 -22 -5.33301 -42.667 -16 -62l-58 -98l-19 -43l-12 -49c0 -25.333 24.333 -57.666 73 -96.999l163 -107
c-28 -34 -56 -51 -84 -51l-25 4c-29.333 8.66699 -65.666 31.334 -108.999 68.001l-97 113c-24.667 32.667 -50 58.667 -76 78l1 37l3 29v50l-8 36l-3 30c0 41.333 17.667 78.333 53 111z" />
    <glyph glyph-name="bar" unicode="|" horiz-adv-x="470" 
d="M235 1856l-100 -73.001l20 -96c-32.667 -192.667 -43.667 -356.667 -33 -492l-25 -172l19 -96l-26 -225l18 -151l-26 -171c26 -129.333 38 -247.666 36 -354.999l127 -98l22 64c12 199.333 41 363 87 491l-42 86c48 234.667 42.333 452.667 -17 654
c62 242 48.667 456.667 -40 644z" />
    <glyph glyph-name="braceright" unicode="}" horiz-adv-x="1110" 
d="M691 1453l-3.99707 -33.999l-47 -140c-25.333 -50.667 -38 -96.667 -38 -138c0 -21.333 5.16699 -43.333 15.5 -66s22.166 -41 35.499 -55c-8.66699 -20 -21.667 -28 -39 -24l-29 4l-25 -2c-57.333 32.667 -97 73 -119 121c-6.66699 9.33301 -12.334 28 -17.001 56l-6 55
l6 63c52 24.667 78 59.667 78 105l-4 31l-21 88c-5.33301 26 -8 50 -8 72c0 65.333 -33.667 103.666 -101 114.999c-64 18 -107 50 -129 96l22 21c13.333 5.33301 27.333 8 42 8c19.333 0 36.666 -9 51.999 -27c19.333 -28 42.333 -50 69 -66
c19.333 7.33301 39.666 11 60.999 11c42.667 0 68.334 -26.667 77.001 -80c12.667 -54 43 -87 91 -99c25.333 -42 38 -80.333 38 -115zM682.003 423.001l-3.00098 -29.999l-8 -36v-50l3 -29l1 -37c-26 -19.333 -51.333 -45.333 -76 -78l-97 -113
c-43.333 -36.667 -79.666 -59.334 -108.999 -68.001l-25 -4c-28 0 -56 17 -84 51l163 107c48.667 39.333 73 71.666 73 96.999l-12 49l-19 43l-58 98c-10.667 19.333 -16 40 -16 62l9 49c0 100 39 182.667 117 248c96 80 171.333 138.333 226 175l36 -50
c8.66699 -8 13 -18 13 -30l-4 -27c-12 -19.333 -28.667 -26.666 -50 -21.999l-33 3l-31 -2c-50 -25.333 -75 -58.333 -75 -99l8 -44l11 -47l5 -35c0 -24.667 -6 -48 -18 -70c35.333 -32.667 53 -69.667 53 -111z" />
    <glyph glyph-name="asciitilde" unicode="~" horiz-adv-x="1530" 
d="M1069 681c-48.667 -14.667 -92 -44.668 -130 -90.001l-47 -7c-29.333 0 -60.333 11 -93 33l-134 89c-16.667 11.333 -36 19.333 -58 24l-64 7c-31.333 0 -62.333 -48.667 -93 -146l-28 -5c-14 0 -21.667 8.33301 -23 25c0 26 -8 45 -24 57c0 44 12.5 85.833 37.5 125.5
s63.167 66.5 114.5 80.5l51 8c28 0 61.333 -11 100 -33l143 -88c37.333 -20.667 72 -31 104 -31l22 2c38.667 7.33301 73.334 61 104.001 161c25.333 3.33301 48 -6 68 -28c9.33301 -10.667 17.666 -21.667 24.999 -33c2.66699 -3.33301 10 -14.666 22 -33.999
c-10.667 -62 -43 -101 -97 -117z" />
    <glyph glyph-name="uni008F" horiz-adv-x="1429" 
d="M625 1819c46 6.66699 82.333 16.667 109 30c19.333 -46.667 49 -73 89 -79l10 69c-33.333 13.333 -63 20 -89 20c39.333 13.333 72.333 10 99 -10v99c26 72.667 -30.333 119 -169 139c-66 -92.667 -82.333 -182 -49 -268zM796 1744
c-130.667 43.333 -235.332 43.3271 -313.999 -0.00585938l-39 26l-13 -52c-78.667 34.667 -152.667 47.667 -222 39c-78.667 -174 -91.667 -344 -39 -510c43.333 35.333 86.666 53 129.999 53c0 235.333 61 326.666 183 273.999c35.333 34.667 74.666 47.667 117.999 39
c70 -34.667 131 -39 183 -13l52 13c-8.66699 -17.333 -8.66699 -34.666 0 -51.999c26.667 34.667 61.667 65.334 105 92.001c17.333 -52.667 52 -83.334 104 -92.001l-39 -13c-8.66699 -52 -26 -95.667 -52 -131c-78.667 -78 -131 -156.333 -157 -235
c-52 8.66699 -86.667 -8.66602 -104 -51.999c-35.333 -192 -127 -331.667 -275 -419c-87.333 -200 -205 -365.333 -353 -496c0 -87.333 13 -161.666 39 -222.999c44 -17.333 70.333 -4 79 40c34.667 -17.333 65 -21.666 91 -12.999c52.667 0 100.667 -13.333 144 -40l26 13
l79 27c78 -18 147.667 -18 209 0l39 -40c26 18 34.667 40 26 66c43.333 -35.333 91.333 -57.333 144 -66l13 -26l26 39c104.667 -34.667 205 -47.667 301 -39c86.667 122 121.334 266 104.001 432c35.333 122 26.666 213.333 -26.001 274c26 70 0 87.333 -78 52
c-87.333 -113.333 -126.666 -265.666 -117.999 -456.999c-52 -34.667 -95.667 -69.667 -131 -105c-156.667 70 -313.334 83.333 -470.001 40c-44 52 -92 86.667 -144 104c26 200.667 122 322.667 288 366l52 262c26 -9.33301 43.333 -9.33301 52 0v52
c104.667 17.333 148.334 69.666 131.001 156.999c26 34.667 39 69.334 39 104.001c70 17.333 96.333 52.333 79 105c52 34.667 82.333 78.334 91 131.001c96 17.333 131 100 105 248c-78.667 34.667 -153 30.334 -223 -12.999c-60.667 52 -126 82.333 -196 91zM1554 44.9941
c-8.66699 -61.333 -26 -113.666 -52 -156.999c52 -78.667 73.667 -26.334 65 156.999h-13z" />
    <glyph glyph-name="uni008F" unicode="&#x179;" horiz-adv-x="1429" 
d="M625 1819c46 6.66699 82.333 16.667 109 30c19.333 -46.667 49 -73 89 -79l10 69c-33.333 13.333 -63 20 -89 20c39.333 13.333 72.333 10 99 -10v99c26 72.667 -30.333 119 -169 139c-66 -92.667 -82.333 -182 -49 -268zM796 1744
c-130.667 43.333 -235.332 43.3271 -313.999 -0.00585938l-39 26l-13 -52c-78.667 34.667 -152.667 47.667 -222 39c-78.667 -174 -91.667 -344 -39 -510c43.333 35.333 86.666 53 129.999 53c0 235.333 61 326.666 183 273.999c35.333 34.667 74.666 47.667 117.999 39
c70 -34.667 131 -39 183 -13l52 13c-8.66699 -17.333 -8.66699 -34.666 0 -51.999c26.667 34.667 61.667 65.334 105 92.001c17.333 -52.667 52 -83.334 104 -92.001l-39 -13c-8.66699 -52 -26 -95.667 -52 -131c-78.667 -78 -131 -156.333 -157 -235
c-52 8.66699 -86.667 -8.66602 -104 -51.999c-35.333 -192 -127 -331.667 -275 -419c-87.333 -200 -205 -365.333 -353 -496c0 -87.333 13 -161.666 39 -222.999c44 -17.333 70.333 -4 79 40c34.667 -17.333 65 -21.666 91 -12.999c52.667 0 100.667 -13.333 144 -40l26 13
l79 27c78 -18 147.667 -18 209 0l39 -40c26 18 34.667 40 26 66c43.333 -35.333 91.333 -57.333 144 -66l13 -26l26 39c104.667 -34.667 205 -47.667 301 -39c86.667 122 121.334 266 104.001 432c35.333 122 26.666 213.333 -26.001 274c26 70 0 87.333 -78 52
c-87.333 -113.333 -126.666 -265.666 -117.999 -456.999c-52 -34.667 -95.667 -69.667 -131 -105c-156.667 70 -313.334 83.333 -470.001 40c-44 52 -92 86.667 -144 104c26 200.667 122 322.667 288 366l52 262c26 -9.33301 43.333 -9.33301 52 0v52
c104.667 17.333 148.334 69.666 131.001 156.999c26 34.667 39 69.334 39 104.001c70 17.333 96.333 52.333 79 105c52 34.667 82.333 78.334 91 131.001c96 17.333 131 100 105 248c-78.667 34.667 -153 30.334 -223 -12.999c-60.667 52 -126 82.333 -196 91zM1554 44.9941
c-8.66699 -61.333 -26 -113.666 -52 -156.999c52 -78.667 73.667 -26.334 65 156.999h-13z" />
    <glyph glyph-name="uni0095" horiz-adv-x="1870" 
 />
    <glyph glyph-name="uni0095" unicode="&#x2022;" horiz-adv-x="1870" 
 />
    <glyph glyph-name="sterling" unicode="&#xa3;" horiz-adv-x="1571" 
d="M771 1822c-61.333 18 -96.333 -3.66797 -105 -65.001c149.333 -202 224 -215.333 224 -40c44 -26 61.333 -4 52 66c-26 52.667 -69.667 83.334 -131 92.001zM429 1796c52.667 -105.333 118.666 -109.667 197.999 -13l-92 53c-35.333 -26.667 -70.666 -40 -105.999 -40z
M152.999 1717c17.333 61.333 -4.66699 87.666 -66 78.999c35.333 -17.333 57.333 -43.666 66 -78.999zM1008 1796h-51.999c17.333 -131.333 34.666 -131.333 51.999 0zM311 1744l-53 26c-8.66699 -70 9 -78.667 53 -26zM377 1428c-62 -88 -79.665 -175.997 -52.998 -263.997
l-53 -39l40 -66c-61.333 -34.667 -105.333 -87.334 -132 -158.001l-52 13c-44 -96 -75 -179.333 -93 -250l53 -79c61.333 9.33301 109.666 -8 144.999 -52c-35.333 -105.333 -92.333 -193 -171 -263l13 -211c44 0 61.667 17.667 53 53
c17.333 -52.667 34.666 -92.334 51.999 -119.001c96.667 -17.333 175.667 0.333984 237 53.001l26 -26c26.667 0 53 -13.333 79 -40c61.333 -17.333 96.666 0.333984 105.999 53.001c78.667 -26.667 148.667 -26.667 210 0c114 -52.667 219.333 -52.667 316 0l66 -27l39 53
c61.333 0 114 4.33301 158 13l13 40l40 144c-8.66699 79.333 0 154 26 224c-17.333 35.333 -21.666 66 -12.999 92l-13 53c87.333 149.333 52.333 250.333 -105 303c-62 -62 -101.667 -128 -119 -198c-44 0 -79 -13 -105 -39c8.66699 -96.667 21.667 -114.334 39 -53.001
c-8.66699 -78.667 -35 -148.667 -79 -210l66 -106c-52.667 -8.66699 -96.334 -30.667 -131.001 -66l-40 53l-39 -26c-79.333 17.333 -158.333 17.333 -237 0c-35.333 26 -75 34.667 -119 26l27 40c-88 104.667 -114.333 218.667 -79 342c-18 70 -27 127 -27 171
c26.667 26 57.334 30.333 92.001 13c0 61.333 22 109.666 66 144.999c79.333 0 132 35 158 105c70 17.333 105 65.666 105 144.999c-26 131.333 -78.333 162 -157 92c-105.333 26 -162.666 -0.333008 -171.999 -79c-78.667 219.333 -144.334 368.333 -197.001 447
c-70 -105.333 -83 -206 -39 -302zM166.002 1651c-35.333 0 -66 9 -92 27c17.333 -79.333 48 -88.333 92 -27zM206.002 1086c78.667 61.333 87.333 127 26 197c0 -79.333 -8.66699 -145 -26 -197z" />
    <glyph glyph-name="sterling" unicode="&#x141;" horiz-adv-x="1571" 
d="M771 1822c-61.333 18 -96.333 -3.66797 -105 -65.001c149.333 -202 224 -215.333 224 -40c44 -26 61.333 -4 52 66c-26 52.667 -69.667 83.334 -131 92.001zM429 1796c52.667 -105.333 118.666 -109.667 197.999 -13l-92 53c-35.333 -26.667 -70.666 -40 -105.999 -40z
M152.999 1717c17.333 61.333 -4.66699 87.666 -66 78.999c35.333 -17.333 57.333 -43.666 66 -78.999zM1008 1796h-51.999c17.333 -131.333 34.666 -131.333 51.999 0zM311 1744l-53 26c-8.66699 -70 9 -78.667 53 -26zM377 1428c-62 -88 -79.665 -175.997 -52.998 -263.997
l-53 -39l40 -66c-61.333 -34.667 -105.333 -87.334 -132 -158.001l-52 13c-44 -96 -75 -179.333 -93 -250l53 -79c61.333 9.33301 109.666 -8 144.999 -52c-35.333 -105.333 -92.333 -193 -171 -263l13 -211c44 0 61.667 17.667 53 53
c17.333 -52.667 34.666 -92.334 51.999 -119.001c96.667 -17.333 175.667 0.333984 237 53.001l26 -26c26.667 0 53 -13.333 79 -40c61.333 -17.333 96.666 0.333984 105.999 53.001c78.667 -26.667 148.667 -26.667 210 0c114 -52.667 219.333 -52.667 316 0l66 -27l39 53
c61.333 0 114 4.33301 158 13l13 40l40 144c-8.66699 79.333 0 154 26 224c-17.333 35.333 -21.666 66 -12.999 92l-13 53c87.333 149.333 52.333 250.333 -105 303c-62 -62 -101.667 -128 -119 -198c-44 0 -79 -13 -105 -39c8.66699 -96.667 21.667 -114.334 39 -53.001
c-8.66699 -78.667 -35 -148.667 -79 -210l66 -106c-52.667 -8.66699 -96.334 -30.667 -131.001 -66l-40 53l-39 -26c-79.333 17.333 -158.333 17.333 -237 0c-35.333 26 -75 34.667 -119 26l27 40c-88 104.667 -114.333 218.667 -79 342c-18 70 -27 127 -27 171
c26.667 26 57.334 30.333 92.001 13c0 61.333 22 109.666 66 144.999c79.333 0 132 35 158 105c70 17.333 105 65.666 105 144.999c-26 131.333 -78.333 162 -157 92c-105.333 26 -162.666 -0.333008 -171.999 -79c-78.667 219.333 -144.334 368.333 -197.001 447
c-70 -105.333 -83 -206 -39 -302zM166.002 1651c-35.333 0 -66 9 -92 27c17.333 -79.333 48 -88.333 92 -27zM206.002 1086c78.667 61.333 87.333 127 26 197c0 -79.333 -8.66699 -145 -26 -197z" />
    <glyph glyph-name="yen" unicode="&#xa5;" horiz-adv-x="1906" 
d="M803 1867l-72 -113.996c-9.33301 -47.333 -4.33301 -85.333 15 -114c-28.667 -19.333 -43 -48 -43 -86l-29 -72c-48 -114.667 -62.333 -215 -43 -301c-66.667 -76 -90.667 -161.667 -72 -257c-47.333 -28.667 -85.333 -57.334 -114 -86.001l28 -72v-43l-28 -28
c-28.667 -38.667 -52.667 -91.334 -72 -158.001l14 -42l-14 -29c-47.333 -104.667 -80.333 -195.334 -99 -272.001c-57.333 38 -138.666 4.66699 -243.999 -100c114.667 -124.667 238.667 -134.334 372 -29.001c104.667 -86 190.667 -100.333 258 -43
c57.333 -28.667 95.333 -14.334 114 42.999c19.333 28.667 14.666 52.667 -14.001 72c-28.667 38 -47.667 38 -57 0c-38.667 47.333 -58 95 -58 143c-18.667 -28.667 -28 -57.334 -28 -86.001l-101 115c28.667 66.667 38.334 128.667 29.001 186
c9.33301 -48 33.333 -72 72 -72c28.667 76 76.334 100 143.001 72c76.667 -48 110 -115 100 -201c124 38.667 129 81.667 15 129c57.333 48 109.333 76.667 156 86c67.333 -28.667 81.666 -76.334 42.999 -143.001c96 -48 124.667 -91 86 -129h-100
c-114 -210 -42.333 -291.333 215 -244c153.333 -62 296.333 -47.667 429 43c9.33301 48 4.66602 91 -14.001 129c-47.333 67.333 -90 77 -128 29l-15 29c-104.667 104.667 -181 209.334 -229 314.001l29 29v86l-29 28c-9.33301 76.667 -33.333 143.667 -72 201
c0 86 -19 157.667 -57 215c-105.333 -76.667 -115 -143.667 -29 -201c-66.667 -47.333 -85.667 -104.666 -57 -171.999c-57.333 -9.33301 -114.333 -4.33301 -171 15c-19.333 -10 -29 -19.667 -29 -29l-43 72c-47.333 -48 -90.333 -76.667 -129 -86
c-28.667 38 -62 61.667 -100 71l43 15c-38 133.333 -4.66699 243 100 329c-38 38 -66.667 76 -86 114l43 29c38.667 38 58 85.667 58 143c57.333 48 100.333 95.667 129 143l71 -43c0 -38 14 -66.667 42 -86c-18.667 -66.667 0.666016 -104.667 57.999 -114
c-38.667 -76.667 -34 -138.667 14 -186c9.33301 38 28.333 76 57 114c-38 76.667 -57 148.334 -57 215.001l-72 14c38.667 48 48.334 100.667 29.001 158l-29 29c-66 -19.333 -127.667 -24.333 -185 -15c38 28.667 52.333 67 43 115c123.333 -86 152 -48 86 114
c-48 28.667 -95.667 38 -143 28zM59 923.004c-38.667 -66.667 -29.333 -81 28 -43zM59.001 565.004c18.667 47.333 9 90.333 -29 129c0 -57.333 9.66699 -100.333 29 -129zM760.001 336.004h-42.999c9.33301 -57.333 23.666 -57.333 42.999 0zM1277 -293.996
c19.333 -108.667 156 -140.999 410 -96.999c-92 80 -152 195 -180 345h-88c-82.667 -70.667 -130 -153.334 -142 -248.001z" />
    <glyph glyph-name="yen" unicode="&#x104;" horiz-adv-x="1906" 
d="M803 1867l-72 -113.996c-9.33301 -47.333 -4.33301 -85.333 15 -114c-28.667 -19.333 -43 -48 -43 -86l-29 -72c-48 -114.667 -62.333 -215 -43 -301c-66.667 -76 -90.667 -161.667 -72 -257c-47.333 -28.667 -85.333 -57.334 -114 -86.001l28 -72v-43l-28 -28
c-28.667 -38.667 -52.667 -91.334 -72 -158.001l14 -42l-14 -29c-47.333 -104.667 -80.333 -195.334 -99 -272.001c-57.333 38 -138.666 4.66699 -243.999 -100c114.667 -124.667 238.667 -134.334 372 -29.001c104.667 -86 190.667 -100.333 258 -43
c57.333 -28.667 95.333 -14.334 114 42.999c19.333 28.667 14.666 52.667 -14.001 72c-28.667 38 -47.667 38 -57 0c-38.667 47.333 -58 95 -58 143c-18.667 -28.667 -28 -57.334 -28 -86.001l-101 115c28.667 66.667 38.334 128.667 29.001 186
c9.33301 -48 33.333 -72 72 -72c28.667 76 76.334 100 143.001 72c76.667 -48 110 -115 100 -201c124 38.667 129 81.667 15 129c57.333 48 109.333 76.667 156 86c67.333 -28.667 81.666 -76.334 42.999 -143.001c96 -48 124.667 -91 86 -129h-100
c-114 -210 -42.333 -291.333 215 -244c153.333 -62 296.333 -47.667 429 43c9.33301 48 4.66602 91 -14.001 129c-47.333 67.333 -90 77 -128 29l-15 29c-104.667 104.667 -181 209.334 -229 314.001l29 29v86l-29 28c-9.33301 76.667 -33.333 143.667 -72 201
c0 86 -19 157.667 -57 215c-105.333 -76.667 -115 -143.667 -29 -201c-66.667 -47.333 -85.667 -104.666 -57 -171.999c-57.333 -9.33301 -114.333 -4.33301 -171 15c-19.333 -10 -29 -19.667 -29 -29l-43 72c-47.333 -48 -90.333 -76.667 -129 -86
c-28.667 38 -62 61.667 -100 71l43 15c-38 133.333 -4.66699 243 100 329c-38 38 -66.667 76 -86 114l43 29c38.667 38 58 85.667 58 143c57.333 48 100.333 95.667 129 143l71 -43c0 -38 14 -66.667 42 -86c-18.667 -66.667 0.666016 -104.667 57.999 -114
c-38.667 -76.667 -34 -138.667 14 -186c9.33301 38 28.333 76 57 114c-38 76.667 -57 148.334 -57 215.001l-72 14c38.667 48 48.334 100.667 29.001 158l-29 29c-66 -19.333 -127.667 -24.333 -185 -15c38 28.667 52.333 67 43 115c123.333 -86 152 -48 86 114
c-48 28.667 -95.667 38 -143 28zM59 923.004c-38.667 -66.667 -29.333 -81 28 -43zM59.001 565.004c18.667 47.333 9 90.333 -29 129c0 -57.333 9.66699 -100.333 29 -129zM760.001 336.004h-42.999c9.33301 -57.333 23.666 -57.333 42.999 0zM1277 -293.996
c19.333 -108.667 156 -140.999 410 -96.999c-92 80 -152 195 -180 345h-88c-82.667 -70.667 -130 -153.334 -142 -248.001z" />
    <glyph glyph-name="section" unicode="&#xa7;" horiz-adv-x="1137" 
d="M577 1815c-56.667 21.333 -105.997 21.333 -147.997 0c-35.333 49.333 -63.666 49.333 -84.999 0c-42.667 0 -64 -21.333 -64 -64c-70.667 50 -102.334 -31 -95.001 -243c35.333 21.333 63.666 21.333 84.999 0c42 56.667 70 116.667 84 180l32 -106
c14 77.333 38.667 144.333 74 201c49.333 -70.667 91.666 -77.667 126.999 -21c14.667 -56.667 46.667 -88.334 96 -95.001l21 -43l-21 -74c0 -56.667 -10.667 -106 -32 -148c49.333 28 84.666 17.333 105.999 -32c14 -106 49.333 -106 106 0c14 14 21 31.667 21 53
c28 -56.667 56.333 -46 85 32c21.333 112.667 -10.667 190.334 -96 233.001c-28 92 -88 138 -180 138c-6.66699 35.333 -27.667 49.333 -63 42zM164.003 1338c-92 -63.333 -127.333 -147.999 -106 -253.999c98.667 -14 151.667 46 159 180c42 -42 95 -45.333 159 -10
c14 -50 49.333 -78.333 106 -85c28 -63.333 70.333 -88 127 -74c56 -113.333 133.667 -187.666 233 -222.999v43l31 -32c14.667 -141.333 -31 -208.333 -137 -201l-11 -32c-70.667 63.333 -141.334 105.666 -212.001 126.999c-20.667 14 -31 31.667 -31 53
c-28.667 21.333 -60.667 35.333 -96 42l-10 53c-50 21.333 -85.333 46 -106 74l-11 -31c-35.333 35.333 -60 70.666 -74 105.999c-14 -50 -38.667 -89 -74 -117c42 -120 80.667 -158.667 116 -116c21.333 -56.667 53.333 -88.667 96 -96
c-28.667 -6.66699 -43 -24.334 -43 -53.001c35.333 21.333 56.666 18 63.999 -10c35.333 -42.667 81.333 -50 138 -22c28 -98.667 95 -141 201 -127c-21.333 -56 21 -112.333 127 -169v-85c-42.667 -28 -71 -63.333 -85 -106c-35.333 14 -63.666 31.667 -84.999 53l-42 -63
c-56.667 14 -106 10.333 -148 -11c-21.333 -28 -28.333 -52.667 -21 -74c0 106 -35.333 155.333 -106 148c28 70.667 66.667 127.334 116 170.001c-21.333 70.667 -63.666 127 -126.999 169c-35.333 -28 -70.666 -45.667 -105.999 -53l-21 -32
c-21.333 -49.333 -32 -95 -32 -137l-42 -74c35.333 -35.333 53 -81.333 53 -138c35.333 14 70.666 10.333 105.999 -11v32l10 -74h53c78 -78 148.667 -92 212 -42l53 -43l11 74l10 -53l32 32c98.667 -21.333 165.667 14 201 106c-6.66699 21.333 0.333008 32 21 32l22 -42
c91.333 126.667 101.666 225.334 30.999 296.001c28.667 42.667 36 85 22 127c28 35.333 59.667 49.666 95 42.999c0 34.667 -3.66699 62.667 -11 84c21.333 64 32 120.667 32 170h-21l-42 180l-43 -21l-10 42c-78 28 -131 74 -159 138l-43 -43
c-28 35.333 -63.333 56.666 -106 63.999c-35.333 56.667 -77.666 88.334 -126.999 95.001c-84.667 84.667 -172.667 141.334 -264 170.001c-56.667 -42.667 -85 -92.334 -85 -149.001z" />
    <glyph glyph-name="copyright" unicode="&#xa9;" horiz-adv-x="2370" 
d="M639 1541c-123.333 38 -226.336 11.335 -309.003 -79.998c-62 -69.333 -87.667 -138.333 -77 -207c-61.333 -61.333 -107.666 -118.666 -138.999 -171.999c40.667 -106.667 35.667 -190.334 -15 -251.001l46 -35v-137l30 -92c41.333 -68.667 67.333 -129.667 78 -183
c72 -15.333 113 -46 123 -92h62c-30.667 -23.333 -41 -50 -31 -80c103.333 -61.333 201.333 -103.333 294 -126c112.667 -61.333 189.667 -61.333 231 0c113.333 -61.333 195.666 -46.333 246.999 45l47 -23c30.667 15.333 46 30.666 46 45.999
c226 -7.33301 328.667 96 308 310c92.667 68.667 113.334 144.667 62.001 228c31.333 46.667 36.666 93 15.999 139l61 10c-20 107.333 -50.667 195.333 -92 264c30.667 99.333 -5.66602 183.333 -108.999 252c-51.333 -68.667 -71.666 -137.334 -60.999 -206.001
c51.333 -22.667 102.666 -34 153.999 -34l-15 -23c0 -54 -10.333 -92 -31 -114c20.667 -62 31 -111.667 31 -149c-31.333 -23.333 -41.666 -46.333 -30.999 -69l31 -58c-92.667 -84 -139 -175.667 -139 -275l-109 -34c-50.667 -68.667 -112 -122 -184 -160l-77 22l-263 -34
c-52 76.667 -103.333 95.667 -154 57c-41.333 23.333 -82.666 38.333 -123.999 45l-139 265l-77 11c30.667 76 35.667 148.333 15 217c-10 46 -30.333 80.667 -61 104c72 114.667 82 206.334 30 275.001c62 46 98.333 91.667 109 137c61.333 15.333 97.333 46 108 92
c62 15.333 108.333 30.666 139 45.999c41.333 -53.333 87.333 -53.333 138 0c-10 53.333 -41 84 -93 92c62 30.667 62 53.667 0 69c-40 -23.333 -65.333 -54 -76 -92zM154.997 857.002c-82.667 -99.333 -97.6621 -204.666 -44.9951 -315.999
c40 -83.333 93.667 -133 161 -149c32.667 -81.333 67.667 -146.666 105 -195.999c114.667 -2.66699 190.334 -39.334 227.001 -110.001l49 29l128 -52l96 -7c79.333 11.333 145.666 11.666 198.999 0.999023c41.333 60.667 85.333 86.667 132 78l23 57
c10 -36.667 30.667 -56 62 -58c96.667 72 173 146 229 222c100.667 81.333 130.667 152.666 90 213.999c99.333 80.667 117 162.334 53 245.001l39 34c-2.66699 34.667 -11.334 55 -26.001 61c94 206 38.333 340.667 -167 404c-28 111.333 -90.667 159.333 -188 144
c-30.667 46.667 -71.334 69.334 -122.001 68.001l14 61c-106 22 -198.667 27.333 -278 16c-80.667 66 -172.667 64.667 -276 -4c44.667 -74 101 -119 169 -135c40.667 38 70.334 80.667 89.001 128l16 -23c49.333 -19.333 80.333 -43.333 93 -72
c65.333 -4.66699 115.666 -14 150.999 -28c8.66699 -38 25.667 -56.333 51 -55l65 6c42.667 -117.333 109.667 -195 201 -233l-10 -114c43.333 -73.333 69 -150.666 77 -231.999l-50 -63l-70 -255c-90 -18.667 -127.333 -59 -112 -121
c-36.667 -28.667 -66.334 -60.667 -89.001 -96l-297 -28l-41 -66c-58.667 57.333 -123.334 89.666 -194.001 96.999c-46.667 8.66699 -86.334 3 -119.001 -17c-78.667 110.667 -159.667 155 -243 133c-18 75.333 -46 126.666 -84 153.999c8.66699 62.667 -6 107.667 -44 135
c10 62.667 13.667 111 11 145c65.333 18 83 60.667 53 128c-53.333 11.333 -93.333 -5.33398 -120 -50.001c-4.66699 68.667 -26 77.334 -64 26.001c6 -46 24.667 -81.333 56 -106zM612.002 1043l-26.998 -6.99805c-28.667 -78.667 -28.667 -150.334 0 -215.001
c-19.333 -41.333 3.66699 -96.666 69 -165.999c74 -92.667 155 -130 243 -112c32 -22.667 62 -20.334 90 6.99902c37.333 -4.66699 63 9 77 41c14 -8 25.333 -12 34 -12c55.333 59.333 90.333 126.333 105 201c-37.333 18 -70 27 -98 27l-7 -21
c-13.333 -13.333 -22.333 -29.333 -27 -48l-22 7c-64 -78.667 -135.333 -97.334 -214 -56.001l-43 -14c0 14 -2.33301 23.333 -7 28c-55.333 32.667 -97 72 -125 118l42 27c-46 24 -55 57 -27 99c18 83.333 59.333 143.333 124 180v27
c19.333 -22.667 42.666 -36.334 69.999 -41.001c27.333 9.33301 41 23 41 41l14 -6c24 0 45 -4.66699 63 -14l21 -35c-18.667 -42 -28 -81.333 -28 -118l21 -7c42 -4 79 -13 111 -27l7 27c9.33301 -8.66699 21.333 -10.667 36 -6c13.333 92 -5.66699 173 -57 243
c-28 4 -49 1.66699 -63 -7l-55 13l-13 7l-35 7l-49 14c-18.667 -4.66699 -32.334 -4.66699 -41.001 0c-121.333 -27.333 -198 -94.666 -230 -201.999z" />
    <glyph glyph-name="macron" unicode="&#xaf;" horiz-adv-x="1480" 
d="M807 1744c-130.667 43.333 -235.332 43.3271 -313.999 -0.00585938l-39 26l-13 -52c-78.667 34.667 -152.667 47.667 -222 39c-78.667 -174 -91.667 -344 -39 -510c43.333 35.333 86.666 53 129.999 53c0 235.333 61 326.666 183 273.999
c35.333 34.667 74.666 47.667 117.999 39c70 -34.667 131 -39 183 -13l52 13c-8.66699 -17.333 -8.66699 -34.666 0 -51.999c26.667 34.667 61.667 65.334 105 92.001c17.333 -52.667 52 -83.334 104 -92.001l-39 -13c-8.66699 -52 -26 -95.667 -52 -131
c-78.667 -78 -131 -156.333 -157 -235c-52 8.66699 -86.667 -8.66602 -104 -51.999c-35.333 -192 -127 -331.667 -275 -419c-87.333 -200 -205 -365.333 -353 -496c0 -87.333 13 -161.666 39 -222.999c44 -17.333 70.333 -4 79 40c34.667 -17.333 65 -21.666 91 -12.999
c52.667 0 100.667 -13.333 144 -40l26 13l79 27c78 -18 147.667 -18 209 0l39 -40c26 18 34.667 40 26 66c43.333 -35.333 91.333 -57.333 144 -66l13 -26l26 39c104.667 -34.667 205 -47.667 301 -39c86.667 122 121.334 266 104.001 432
c35.333 122 26.666 213.333 -26.001 274c26 70 0 87.333 -78 52c-87.333 -113.333 -126.666 -265.666 -117.999 -456.999c-52 -34.667 -95.667 -69.667 -131 -105c-156.667 70 -313.334 83.333 -470.001 40c-44 52 -92 86.667 -144 104c26 200.667 122 322.667 288 366
l52 262c26 -9.33301 43.333 -9.33301 52 0v52c104.667 17.333 148.334 69.666 131.001 156.999c26 34.667 39 69.334 39 104.001c70 17.333 96.333 52.333 79 105c52 34.667 82.333 78.334 91 131.001c96 17.333 131 100 105 248c-78.667 34.667 -153 30.334 -223 -12.999
c-60.667 52 -126 82.333 -196 91zM893.002 2102.99c-11.333 -58 -30.667 -62.667 -58 -14c-40 -17.333 -53.333 -22 -40 -14c-94 -73.333 -113 -136.333 -57 -189c-140 -28.667 -147 -74.667 -21 -138l-6 -18c74.667 10 113 46.333 115 109l32 20l31 -18l61 52l49 26
c50 18.667 93 47 129 85c-33.333 76 -81 92.667 -143 50l-55 36c-20.667 11.333 -33 15.666 -37 13z" />
    <glyph glyph-name="macron" unicode="&#x17b;" horiz-adv-x="1480" 
d="M807 1744c-130.667 43.333 -235.332 43.3271 -313.999 -0.00585938l-39 26l-13 -52c-78.667 34.667 -152.667 47.667 -222 39c-78.667 -174 -91.667 -344 -39 -510c43.333 35.333 86.666 53 129.999 53c0 235.333 61 326.666 183 273.999
c35.333 34.667 74.666 47.667 117.999 39c70 -34.667 131 -39 183 -13l52 13c-8.66699 -17.333 -8.66699 -34.666 0 -51.999c26.667 34.667 61.667 65.334 105 92.001c17.333 -52.667 52 -83.334 104 -92.001l-39 -13c-8.66699 -52 -26 -95.667 -52 -131
c-78.667 -78 -131 -156.333 -157 -235c-52 8.66699 -86.667 -8.66602 -104 -51.999c-35.333 -192 -127 -331.667 -275 -419c-87.333 -200 -205 -365.333 -353 -496c0 -87.333 13 -161.666 39 -222.999c44 -17.333 70.333 -4 79 40c34.667 -17.333 65 -21.666 91 -12.999
c52.667 0 100.667 -13.333 144 -40l26 13l79 27c78 -18 147.667 -18 209 0l39 -40c26 18 34.667 40 26 66c43.333 -35.333 91.333 -57.333 144 -66l13 -26l26 39c104.667 -34.667 205 -47.667 301 -39c86.667 122 121.334 266 104.001 432
c35.333 122 26.666 213.333 -26.001 274c26 70 0 87.333 -78 52c-87.333 -113.333 -126.666 -265.666 -117.999 -456.999c-52 -34.667 -95.667 -69.667 -131 -105c-156.667 70 -313.334 83.333 -470.001 40c-44 52 -92 86.667 -144 104c26 200.667 122 322.667 288 366
l52 262c26 -9.33301 43.333 -9.33301 52 0v52c104.667 17.333 148.334 69.666 131.001 156.999c26 34.667 39 69.334 39 104.001c70 17.333 96.333 52.333 79 105c52 34.667 82.333 78.334 91 131.001c96 17.333 131 100 105 248c-78.667 34.667 -153 30.334 -223 -12.999
c-60.667 52 -126 82.333 -196 91zM893.002 2102.99c-11.333 -58 -30.667 -62.667 -58 -14c-40 -17.333 -53.333 -22 -40 -14c-94 -73.333 -113 -136.333 -57 -189c-140 -28.667 -147 -74.667 -21 -138l-6 -18c74.667 10 113 46.333 115 109l32 20l31 -18l61 52l49 26
c50 18.667 93 47 129 85c-33.333 76 -81 92.667 -143 50l-55 36c-20.667 11.333 -33 15.666 -37 13z" />
    <glyph glyph-name="uni00B3" unicode="&#xb3;" horiz-adv-x="1390" 
d="M47 1711c36.667 18.667 64.334 36.999 83.001 54.999c46 -18 73.333 -4.33301 82 41c36.667 -54.667 82.667 -96 138 -124c46 0 73.667 23 83 69c36.667 -18 45.667 -50 27 -96c74 -46 92.667 -110.333 56 -193c-28 -147.333 -5 -244 69 -290l-56 -13
c-91.333 -193.333 -215.333 -340.666 -372 -441.999c-27.333 -82.667 -27.333 -160.667 0 -234c28 73.333 74 96.333 138 69v83l-83 27l55 42c64.667 -28 124.667 -37.333 180 -28l-55 -69c91.333 18.667 109.666 -36.333 54.999 -165c18 -101.333 -19 -184 -111 -248
c-27.333 36.667 -59.333 55 -96 55c-27.333 -55.333 -82.666 -69.333 -165.999 -42c-27.333 -54.667 -36.333 -109.667 -27 -165c55.333 -55.333 110.333 -55.333 165 0c64.667 -36.667 101.667 -23 111 41l13 -55l28 -14c156 18.667 294 9.66699 414 -27l13 69
c92 -64.667 184 -78.667 276 -42c211.333 -27.333 298.666 69.334 261.999 290.001l-110 -28l-28 42h-55c-119.333 -37.333 -229.666 -51.333 -330.999 -42c-9.33301 55.333 -41.333 92.333 -96 111l55 13c9.33301 276 -4.66699 317.333 -42 124
c-36.667 110.667 -32 147.667 14 111l28 138l-42 41c-18 27.333 -22.333 64 -13 110c73.333 -27.333 114.666 18.667 123.999 138c183.333 55.333 279.666 174.666 288.999 357.999l-55 42c-55.333 -36.667 -106 -55 -152 -55c-64 -101.333 -151.333 -147.333 -262 -138
l28 27c0 55.333 -9.33301 101.333 -28 138c18.667 46 18.667 83 0 111c46 110 50.667 215.667 14 317c-92 18 -147 -9.66699 -165 -83c-28 46 -46.333 46 -55 0l-42 96c-110 -18 -211 -8.66699 -303 28c-73.333 -64.667 -91.666 -129 -54.999 -193zM-42 87.999
c10.667 -8 14.667 -5.33301 12 8z" />
    <glyph glyph-name="uni00B3" unicode="&#x142;" horiz-adv-x="1390" 
d="M47 1711c36.667 18.667 64.334 36.999 83.001 54.999c46 -18 73.333 -4.33301 82 41c36.667 -54.667 82.667 -96 138 -124c46 0 73.667 23 83 69c36.667 -18 45.667 -50 27 -96c74 -46 92.667 -110.333 56 -193c-28 -147.333 -5 -244 69 -290l-56 -13
c-91.333 -193.333 -215.333 -340.666 -372 -441.999c-27.333 -82.667 -27.333 -160.667 0 -234c28 73.333 74 96.333 138 69v83l-83 27l55 42c64.667 -28 124.667 -37.333 180 -28l-55 -69c91.333 18.667 109.666 -36.333 54.999 -165c18 -101.333 -19 -184 -111 -248
c-27.333 36.667 -59.333 55 -96 55c-27.333 -55.333 -82.666 -69.333 -165.999 -42c-27.333 -54.667 -36.333 -109.667 -27 -165c55.333 -55.333 110.333 -55.333 165 0c64.667 -36.667 101.667 -23 111 41l13 -55l28 -14c156 18.667 294 9.66699 414 -27l13 69
c92 -64.667 184 -78.667 276 -42c211.333 -27.333 298.666 69.334 261.999 290.001l-110 -28l-28 42h-55c-119.333 -37.333 -229.666 -51.333 -330.999 -42c-9.33301 55.333 -41.333 92.333 -96 111l55 13c9.33301 276 -4.66699 317.333 -42 124
c-36.667 110.667 -32 147.667 14 111l28 138l-42 41c-18 27.333 -22.333 64 -13 110c73.333 -27.333 114.666 18.667 123.999 138c183.333 55.333 279.666 174.666 288.999 357.999l-55 42c-55.333 -36.667 -106 -55 -152 -55c-64 -101.333 -151.333 -147.333 -262 -138
l28 27c0 55.333 -9.33301 101.333 -28 138c18.667 46 18.667 83 0 111c46 110 50.667 215.667 14 317c-92 18 -147 -9.66699 -165 -83c-28 46 -46.333 46 -55 0l-42 96c-110 -18 -211 -8.66699 -303 28c-73.333 -64.667 -91.666 -129 -54.999 -193zM-42 87.999
c10.667 -8 14.667 -5.33301 12 8z" />
    <glyph glyph-name="uni00B9" unicode="&#xb9;" horiz-adv-x="1388" 
d="M396 1203c60 -34.667 103.001 -73.667 129.001 -117c43.333 95.333 17.666 160.333 -77.001 195c-34.667 -17.333 -52 -43.333 -52 -78zM798.001 1203c8.66699 -43.333 8.66895 -78.0029 0.00195312 -104.003c60.667 -25.333 117 -38 169 -38
c-26 -78 -39 -147.333 -39 -208c-60.667 -43.333 -125.667 -60.666 -195 -51.999c-26 -43.333 -56.333 -73.666 -91 -90.999l-39 78c-26 0 -43.333 -4.33301 -52 -13l-65 -13l-25 -39c-52 8.66699 -95.333 -4.33301 -130 -39c-60.667 26 -108.334 13 -143.001 -39l-91 -13
l-26 -26l-26 -91c0 -346 117 -510.333 351 -493l77 -13c60.667 -86.667 125.667 -99.667 195 -39c69.333 -8.66699 108.333 17.333 117 78l52 -26c-8.66699 26 -8.66699 43.333 0 52l13 -52c-60.667 -43.333 -69.334 -95.333 -26.001 -156
c-34.667 -95.333 -17.334 -173.333 51.999 -234l13 -103c17.333 8.66699 26 17.334 26 26.001c86.667 -121.333 186 -138.666 298 -51.999l78 -13c34.667 68.667 56.334 129 65.001 181c-43.333 34.667 -82.333 43.334 -117 26.001c-42.667 43.333 -90 60.666 -142 51.999
c0 60.667 -26 95.334 -78 104.001c60.667 26 99.667 65 117 117c34.667 0 64.667 8.66699 90 26c104 -43.333 147.333 -8.66602 130 104.001c-8.66699 95.333 -56.334 138.666 -143.001 129.999c-25.333 43.333 -59.666 73.666 -102.999 90.999
c8.66699 42.667 8.66699 77 0 103c17.333 52 21.666 108.333 12.999 169c26 121.333 34.667 225.333 26 312l-52 26c-17.333 43.333 -26 82.333 -26 117l-39 13c-17.333 42.667 -47.666 72.667 -90.999 90c8.66699 43.333 -4.33301 73.666 -39 90.999h-91zM162.003 1190
c-69.333 -129.333 -52 -215.669 52 -259.002c26 -43.333 56.333 -78 91 -104c26 34.667 39 69.334 39 104.001c-8.66699 95.333 0 173 26 233l-52 39c-52 -17.333 -104 -21.666 -156 -12.999zM928.003 592.994c-34.667 -60.667 -52 -129.999 -52 -207.999
c-138.667 -146.667 -290 -211.334 -454 -194.001c-190.667 69.333 -238.334 207.666 -143.001 414.999c78 -17.333 147 -21.666 207 -12.999l13 -26c78 52 169 52 273 0c34.667 26 56.334 52 65.001 78c26 -34.667 56.333 -52 91 -52zM253.003 462.995
c43.333 0 47.667 13 13 39zM292.004 229.995c-60.667 -26 -86.667 -4.33301 -78 65c8.66699 -43.333 34.667 -65 78 -65z" />
    <glyph glyph-name="uni00B9" unicode="&#x105;" horiz-adv-x="1388" 
d="M396 1203c60 -34.667 103.001 -73.667 129.001 -117c43.333 95.333 17.666 160.333 -77.001 195c-34.667 -17.333 -52 -43.333 -52 -78zM798.001 1203c8.66699 -43.333 8.66895 -78.0029 0.00195312 -104.003c60.667 -25.333 117 -38 169 -38
c-26 -78 -39 -147.333 -39 -208c-60.667 -43.333 -125.667 -60.666 -195 -51.999c-26 -43.333 -56.333 -73.666 -91 -90.999l-39 78c-26 0 -43.333 -4.33301 -52 -13l-65 -13l-25 -39c-52 8.66699 -95.333 -4.33301 -130 -39c-60.667 26 -108.334 13 -143.001 -39l-91 -13
l-26 -26l-26 -91c0 -346 117 -510.333 351 -493l77 -13c60.667 -86.667 125.667 -99.667 195 -39c69.333 -8.66699 108.333 17.333 117 78l52 -26c-8.66699 26 -8.66699 43.333 0 52l13 -52c-60.667 -43.333 -69.334 -95.333 -26.001 -156
c-34.667 -95.333 -17.334 -173.333 51.999 -234l13 -103c17.333 8.66699 26 17.334 26 26.001c86.667 -121.333 186 -138.666 298 -51.999l78 -13c34.667 68.667 56.334 129 65.001 181c-43.333 34.667 -82.333 43.334 -117 26.001c-42.667 43.333 -90 60.666 -142 51.999
c0 60.667 -26 95.334 -78 104.001c60.667 26 99.667 65 117 117c34.667 0 64.667 8.66699 90 26c104 -43.333 147.333 -8.66602 130 104.001c-8.66699 95.333 -56.334 138.666 -143.001 129.999c-25.333 43.333 -59.666 73.666 -102.999 90.999
c8.66699 42.667 8.66699 77 0 103c17.333 52 21.666 108.333 12.999 169c26 121.333 34.667 225.333 26 312l-52 26c-17.333 43.333 -26 82.333 -26 117l-39 13c-17.333 42.667 -47.666 72.667 -90.999 90c8.66699 43.333 -4.33301 73.666 -39 90.999h-91zM162.003 1190
c-69.333 -129.333 -52 -215.669 52 -259.002c26 -43.333 56.333 -78 91 -104c26 34.667 39 69.334 39 104.001c-8.66699 95.333 0 173 26 233l-52 39c-52 -17.333 -104 -21.666 -156 -12.999zM928.003 592.994c-34.667 -60.667 -52 -129.999 -52 -207.999
c-138.667 -146.667 -290 -211.334 -454 -194.001c-190.667 69.333 -238.334 207.666 -143.001 414.999c78 -17.333 147 -21.666 207 -12.999l13 -26c78 52 169 52 273 0c34.667 26 56.334 52 65.001 78c26 -34.667 56.333 -52 91 -52zM253.003 462.995
c43.333 0 47.667 13 13 39zM292.004 229.995c-60.667 -26 -86.667 -4.33301 -78 65c8.66699 -43.333 34.667 -65 78 -65z" />
    <glyph glyph-name="questiondown" unicode="&#xbf;" horiz-adv-x="1260" 
d="M647 1902c-44 0 -87.667 -12.999 -131 -38.999c-87.333 -34.667 -122.333 -95.667 -105 -183c104.667 -122 170 -139.333 196 -52c70 -87.333 140 -96.333 210 -27c26 157.333 -26.333 266.666 -157 327.999zM319 1314c-78 0 -147.672 -17.6631 -209.005 -52.9961
l-13 -39c0 -130.667 -21.667 -248.334 -65 -353.001c34.667 -61.333 82.667 -87.666 144 -78.999c69.333 70 91 144.333 65 223c34.667 34.667 52 73.667 52 117c279.333 35.333 410.333 -17 393 -157h39l-39 -13c-8.66699 -60.667 -26 -113 -52 -157l-40 -13l-104 -92
l-40 -26l-65 -65c-26 -44 -52.333 -79 -79 -105l-26 -13c-34.667 -43.333 -69.334 -78.333 -104.001 -105l-27 -26c-34.667 -43.333 -60.667 -82.666 -78 -117.999v-157c70 -34.667 135.333 -30.334 196 12.999l52 -78c26.667 17.333 44.334 34.666 53.001 51.999l26 -13
l79 -65l78 65l26 -52c87.333 26 157.333 26 210 0c52 26 95.333 26 130 0l27 26c69.333 -8.66699 130.333 0 183 26c34.667 78.667 43.334 153 26.001 223c70 122 65.667 231 -13 327h-52c-44 -96 -70.333 -183.333 -79 -262c-43.333 -34.667 -74 -65.334 -92 -92.001
c-26 -8.66699 -43.333 -17.334 -52 -26.001c-87.333 35.333 -165.666 35.333 -234.999 0c-122.667 -17.333 -170.667 -4 -144 40l-92 -40l-52 53c34.667 17.333 69.334 56.333 104.001 117c0 26.667 4.33301 44.334 13 53.001c96 60.667 166 134.667 210 222
c34.667 17.333 56.334 43.666 65.001 78.999c78.667 17.333 139.667 87 183 209l66 -13c43.333 78.667 91.333 144 144 196c-8.66699 61.333 -21.667 113.666 -39 156.999l-171 14l-52 13c-52 -18 -100 -18 -144 0c-43.333 0 -78.333 -4.33301 -105 -13l-39 13
c-87.333 -8.66699 -165.666 -8.66699 -234.999 0zM803.995 1130l-53 -13.001c0 -87.333 -13 -78.666 -39 26.001z" />
    </font>
</defs>
</svg>
